<?xml version="1.0" standalone="no"?>
<!DOCTYPE svg PUBLIC "-//W3C//DTD SVG 1.1//EN" "http://www.w3.org/Graphics/SVG/1.1/DTD/svg11.dtd" >
<svg>
<metadata>
Created by FontForge 20090914 at Mon Jul 31 02:56:22 2017
 By www-data
Webtype Web Use Only
</metadata>
<defs>
<font id="WebtypeWebUseOnly" horiz-adv-x="1235" >
  <font-face 
    font-family="Webtype Web Use Only"
    font-weight="500"
    font-stretch="normal"
    units-per-em="2048"
    panose-1="2 0 6 3 0 0 0 2 0 4"
    ascent="1638"
    descent="-410"
    x-height="1087"
    cap-height="1516"
    bbox="-188 -422 2932.99 1962"
    underline-thickness="50"
    underline-position="-50"
    unicode-range="U+0020-U+FB04"
  />
<missing-glyph horiz-adv-x="1024" 
 />
    <glyph glyph-name="f_f" unicode="ff" horiz-adv-x="1411" 
d="M236 0l0.000976562 887h-189v200h189v111c0 45.333 5.5 87.833 16.5 127.5s29.333 74 55 103s59.167 51.833 100.5 68.5s92.333 25 153 25c13.333 0 27.333 -0.5 42 -1.5s28.5 -2.16699 41.5 -3.5l35 -3.5c10.333 -1 17.833 -1.83301 22.5 -2.5v-192
c-9.33301 2 -21.333 3.5 -36 4.5s-27.667 1.5 -39 1.5c-45.333 0 -80 -11.667 -104 -35s-36 -58.666 -36 -105.999v-97h383v101c0 45.333 5.33301 88.333 16 129s29.167 76.167 55.5 106.5s62.166 54.333 107.499 72s102.666 26.5 171.999 26.5c12 0 25.833 -0.5 41.5 -1.5
s30.834 -2.16699 45.501 -3.5l39.5 -3.5c11.667 -1 19.834 -1.83301 24.501 -2.5v-194l-17.5 2.5c-7 1 -14.5 2 -22.5 3s-16 1.66699 -24 2s-15.333 0.5 -22 0.5c-22.667 0 -43.834 -1.83301 -63.501 -5.5s-37 -10.834 -52 -21.501s-26.833 -25.167 -35.5 -43.5
s-13 -41.833 -13 -70.5v-97h238v-200h-238v-887h-252v887h-383v-887h-251z" />
    <glyph glyph-name="f_i" unicode="fi" horiz-adv-x="1284" 
d="M236 0l-0.000976562 886.999h-189v200h189v111c0 45.333 5.5 87.833 16.5 127.5s29.333 74 55 103s59.167 51.833 100.5 68.5s92.333 25 153 25c12 0 25.333 -0.5 40 -1.5s28.667 -2.16699 42 -3.5l36 -3.5c10.667 -1 18.334 -1.83301 23.001 -2.5v-194
c-9.33301 2 -21.333 3.5 -36 4.5s-27.667 1.5 -39 1.5c-45.333 0 -80 -11.667 -104 -35s-36 -58.666 -36 -105.999v-95h213v-200h-213v-887h-251zM869.999 -0.000976562v1087h252v-1087h-252zM867.999 1266v229h256v-229h-256z" />
    <glyph glyph-name="f_l" unicode="fl" horiz-adv-x="1278" 
d="M236 0l-0.000976562 886.999h-189v200h189v111c0 45.333 5.5 87.833 16.5 127.5s29.333 74 55 103s59.167 51.833 100.5 68.5s92.333 25 153 25c12 0 25.333 -0.5 40 -1.5s28.667 -2.16699 42 -3.5l36 -3.5c10.667 -1 18.334 -1.83301 23.001 -2.5v-194
c-9.33301 2 -21.333 3.5 -36 4.5s-27.667 1.5 -39 1.5c-45.333 0 -80 -11.667 -104 -35s-36 -58.666 -36 -105.999v-95h213v-200h-213v-887h-251zM869.999 -0.000976562v1516h252v-1516h-252z" />
    <glyph glyph-name="f_f_i" unicode="ffi" horiz-adv-x="1903" 
d="M236 0l-0.000976562 886.998h-189v200h189v111c0 45.333 5.5 87.833 16.5 127.5s29.333 74 55 103s59.167 51.833 100.5 68.5s92.333 25 153 25c13.333 0 27.333 -0.5 42 -1.5s28.5 -2.16699 41.5 -3.5l35 -3.5c10.333 -1 17.833 -1.83301 22.5 -2.5v-194
c-9.33301 2 -21.333 3.5 -36 4.5s-27.667 1.5 -39 1.5c-45.333 0 -80 -11.667 -104 -35s-36 -58.666 -36 -105.999v-95h383v99c0 45.333 5.66699 88.333 17 129s29.833 76.334 55.5 107.001s59.167 55 100.5 73s92.333 27 153 27c12 0 25 -0.5 39 -1.5
s27.667 -2.16699 41 -3.5l36 -3.5c10.667 -1 18.334 -1.83301 23.001 -2.5v-194c-8 2 -19.5 3.5 -34.5 4.5s-28.5 1.5 -40.5 1.5c-92 0 -138 -47 -138 -141v-95h211v-200h-211v-887h-252v887h-383v-887h-251zM1503 -0.00195312v1087h252v-1087h-252zM1501 1266v229h256v-229
h-256z" />
    <glyph glyph-name="f_f_l" unicode="ffl" horiz-adv-x="1903" 
d="M236 0l-0.000976562 886.998h-189v200h189v111c0 45.333 5.5 87.833 16.5 127.5s29.333 74 55 103s59.167 51.833 100.5 68.5s92.333 25 153 25c13.333 0 27.333 -0.5 42 -1.5s28.5 -2.16699 41.5 -3.5l35 -3.5c10.333 -1 17.833 -1.83301 22.5 -2.5v-194
c-9.33301 2 -21.333 3.5 -36 4.5s-27.667 1.5 -39 1.5c-45.333 0 -80 -11.667 -104 -35s-36 -58.666 -36 -105.999v-95h383v99c0 45.333 5.66699 88.333 17 129s29.833 76.334 55.5 107.001s59.167 55 100.5 73s92.333 27 153 27c12 0 25 -0.5 39 -1.5
s27.667 -2.16699 41 -3.5l36 -3.5c10.667 -1 18.334 -1.83301 23.001 -2.5v-194c-8 2 -19.5 3.5 -34.5 4.5s-28.5 1.5 -40.5 1.5c-92 0 -138 -47 -138 -141v-95h211v-200h-211v-887h-252v887h-383v-887h-251zM1503 -0.00195312v1516h252v-1516h-252z" />
    <glyph glyph-name=".notdef" horiz-adv-x="1024" 
 />
    <glyph glyph-name="space" unicode=" " horiz-adv-x="514" 
 />
    <glyph glyph-name="space" unicode="&#xa0;" horiz-adv-x="514" 
 />
    <glyph glyph-name="exclam" unicode="!" horiz-adv-x="694" 
d="M262 453l-67 1063h315l-68 -1063h-180zM211 0v256h283v-256h-283z" />
    <glyph glyph-name="quotedbl" unicode="&#x22;" horiz-adv-x="895" 
d="M561 979l-35 401v136h224v-136l-35 -401h-154zM180 979l-35 401v136h224v-136l-35 -401h-154z" />
    <glyph glyph-name="numbersign" unicode="#" horiz-adv-x="1516" 
d="M213 0l84 408h-229v190h270l65 320h-247v190h288l86 408h228l-84 -408h295l86 408h227l-86 -408h252v-190h-291l-67 -320h270v-190h-309l-86 -408h-228l84 408h-295l-86 -408h-227zM565 598h297l66 320h-295z" />
    <glyph glyph-name="dollar" unicode="$" horiz-adv-x="1368" 
d="M602 -14c-66.667 6 -126.168 18.8359 -178.501 38.5029s-98.833 43.667 -139.5 72s-76 59.833 -106 94.5s-56 70 -78 106l179 121c21.333 -30.667 43.333 -59.334 66 -86.001s47.167 -50.167 73.5 -70.5s55.166 -37.5 86.499 -51.5s66.333 -24 105 -30v504
c-59.333 15.333 -117 33 -173 53s-105.833 46.167 -149.5 78.5s-78.667 72.333 -105 120s-39.5 106.5 -39.5 176.5c0 58.667 10.667 112.834 32 162.501s51.833 92.667 91.5 129s87.834 65.666 144.501 87.999s120.334 35.833 191.001 40.5v145h164v-149
c56.667 -6.66699 107 -18.334 151 -35.001s83.167 -36.834 117.5 -60.501s64.333 -49.834 90 -78.501s48.834 -58.667 69.501 -90l-174 -136c-16.667 25.333 -33.5 48.833 -50.5 70.5s-35.833 41 -56.5 58s-43.334 31.333 -68.001 43s-53 20.167 -85 25.5v-455
c66.667 -17.333 130 -37 190 -59s112.333 -50.167 157 -84.5s80.167 -76.333 106.5 -126s39.5 -110.5 39.5 -182.5c0 -57.333 -9.83301 -110.833 -29.5 -160.5s-49.667 -93.667 -90 -132s-91 -69.666 -152 -93.999s-132.833 -39.5 -215.5 -45.5v-176h-164v176z
M759.999 178.003c38.667 4 73.833 10.667 105.5 20s58.667 22.5 81 39.5s39.5 38.5 51.5 64.5s18 57 18 93c0 34.667 -6 65 -18 91s-29 48.667 -51 68s-48.833 36 -80.5 50s-67.167 27 -106.5 39v-465zM609.998 1333c-39.333 -3.33301 -73.333 -10.4971 -102 -21.4971
s-52.5 -25.167 -71.5 -42.5s-33 -37.333 -42 -60s-13.5 -47.334 -13.5 -74.001c0 -32 5.33301 -59.5 16 -82.5s25.834 -43.333 45.501 -61s43.667 -32.834 72 -45.501s60.166 -24.334 95.499 -35.001v422z" />
    <glyph glyph-name="percent" unicode="%" horiz-adv-x="2154" 
d="M485 580c-60 0 -113.669 11.5 -161.002 34.5s-87.333 55.333 -120 97s-57.5 91.834 -74.5 150.501s-25.5 123.667 -25.5 195c0 73.333 9 139.666 27 198.999s43.5 110 76.5 152s73.167 74.5 120.5 97.5s100.333 34.5 159 34.5s111.5 -11.333 158.5 -34
s86.833 -54.834 119.5 -96.501s57.667 -92 75 -151s26 -124.833 26 -197.5c0 -71.333 -8.66699 -136.5 -26 -195.5s-42.166 -109.667 -74.499 -152s-72.166 -75.166 -119.499 -98.499s-101 -35 -161 -35zM1669 -20c-60.667 0 -114.672 11.5 -162.005 34.5
s-87.166 55.333 -119.499 97s-57 91.834 -74 150.501s-25.5 123.667 -25.5 195c0 73.333 9 139.666 27 198.999s43.5 109.833 76.5 151.5s73.167 73.834 120.5 96.501s100.333 34 159 34s111.334 -11.167 158.001 -33.5s86.334 -54.333 119.001 -96
s57.834 -91.834 75.501 -150.501s26.5 -124.334 26.5 -197.001c0 -71.333 -8.66699 -136.5 -26 -195.5s-42.333 -109.667 -75 -152s-72.667 -75.166 -120 -98.499s-100.666 -35 -159.999 -35zM513.993 0l905 1516h221l-905 -1516h-221zM1668.99 158
c28.667 0 53.5 7.16699 74.5 21.5s38.5 34.5 52.5 60.5s24.333 57.5 31 94.5s10 78.5 10 124.5c0 95.333 -13.833 169 -41.5 221s-69.834 78 -126.501 78c-29.333 0 -54.666 -7 -75.999 -21s-39 -33.833 -53 -59.5s-24.333 -56.834 -31 -93.501s-10 -77.667 -10 -123
c0 -95.333 14 -169.666 42 -222.999s70.667 -80 128 -80zM486.993 760c28 0 52.5 7.00098 73.5 21.001s38.333 34 52 60s23.834 57.5 30.501 94.5s10 78.167 10 123.5c0 95.333 -13.833 169 -41.5 221s-69.834 78 -126.501 78c-28.667 0 -53.5 -7 -74.5 -21
s-38.5 -33.833 -52.5 -59.5s-24.333 -56.834 -31 -93.501s-10 -77.667 -10 -123c0 -96 14 -170.167 42 -222.5s70.667 -78.5 128 -78.5z" />
    <glyph glyph-name="ampersand" unicode="&#x26;" horiz-adv-x="1503" 
d="M578 -29c-83.333 0 -157.496 9.99805 -222.496 29.998s-119.833 48 -164.5 84s-78.834 78.667 -102.501 128s-35.5 103.333 -35.5 162s9.33301 111 28 157s44 87.333 76 124s69.167 69.167 111.5 97.5s87.166 54.166 134.499 77.499
c-32 58.667 -56.333 115.834 -73 171.501s-25 111.834 -25 168.501c0 48 8 94.5 24 139.5s40.333 84.833 73 119.5s74 62.334 124 83.001s108.667 31 176 31c62.667 0 116.834 -8.66699 162.501 -26s83.334 -40.5 113.001 -69.5s51.667 -62.5 66 -100.5
s21.5 -77.667 21.5 -119c0 -54.667 -9.83301 -103.667 -29.5 -147s-46 -82.5 -79 -117.5s-71.5 -66.5 -115.5 -94.5s-90.333 -54.333 -139 -79c15.333 -23.333 32.333 -47.166 51 -71.499l60 -76.5l107.5 -130.5c33.667 -39 66.167 -73.833 97.5 -104.5
c32 48 58.167 102.667 78.5 164s35.166 127.333 44.499 198h223c-12.667 -88.667 -33.334 -174.5 -62.001 -257.5s-66.667 -158.833 -114 -227.5c49.333 -33.333 97.5 -57.5 144.5 -72.5s95.833 -22.5 146.5 -22.5v-210c-44.667 0.666992 -86.834 3.66699 -126.501 9
s-77.834 13.333 -114.501 24s-72 24.167 -106 40.5s-68 36.166 -102 59.499c-57.333 -44 -122.5 -78.667 -195.5 -104s-158.5 -38 -256.5 -38zM616.004 929.998c32 18 62.168 36.334 90.501 55.001s53 39 74 61s37.5 46.167 49.5 72.5s18 56.166 18 89.499
c0 18.667 -3.16699 36.667 -9.5 54s-15.5 32.5 -27.5 45.5s-26.667 23.333 -44 31s-37.333 11.5 -60 11.5c-50.667 0 -91 -13 -121 -39s-45 -67.667 -45 -125c0 -42 6.16699 -83.667 18.5 -125s31.166 -85 56.499 -131zM600.005 175.999c50 0 96.333 4.99902 139 14.999
s83.667 27.667 123 53c-37.333 34.667 -75.166 74.167 -113.499 118.5l-125.5 151.5l-66.5 85.5l-58.5 80.5c-56.667 -36 -102.334 -76.5 -137.001 -121.5s-52 -95.167 -52 -150.5c0 -39.333 6.66699 -73.666 20 -102.999s32.5 -53.5 57.5 -72.5s55.5 -33.167 91.5 -42.5
s76.667 -14 122 -14z" />
    <glyph glyph-name="quotesingle" unicode="'" horiz-adv-x="514" 
d="M180 979l-35 401v136h224v-136l-35 -401h-154z" />
    <glyph glyph-name="parenleft" unicode="(" horiz-adv-x="821" 
d="M625 -420c-83.333 70 -157.334 142.331 -222.001 216.998s-119 152.834 -163 234.501s-77.333 167.334 -100 257.001s-34 184.5 -34 284.5c0 100.667 11.333 196 34 286s56 175.667 100 257s98.333 159.333 163 234s138.667 147 222 217l116 -125
c-56 -56 -106.667 -116.5 -152 -181.5s-84 -133.833 -116 -206.5s-56.667 -149.167 -74 -229.5s-26 -164.166 -26 -251.499s8.83301 -171.5 26.5 -252.5s42.834 -158.167 75.501 -231.5s72 -142.833 118 -208.5s97.667 -126.834 155 -183.501z" />
    <glyph glyph-name="parenright" unicode=")" horiz-adv-x="821" 
d="M74 -303c56.667 56.667 108.166 117.836 154.499 183.503s85.833 135.167 118.5 208.5s57.834 150.5 75.501 231.5s26.5 165.167 26.5 252.5s-8.83301 171.166 -26.5 251.499s-42.5 156.833 -74.5 229.5s-70.667 141.5 -116 206.5s-96 125.5 -152 181.5l117 125
c83.333 -70 157.166 -142.333 221.499 -217s118.5 -152.667 162.5 -234s77.333 -167 100 -257s34 -185.333 34 -286c0 -100 -11.333 -194.833 -34 -284.5s-56 -175.334 -100 -257.001s-98.167 -159.834 -162.5 -234.501s-138.166 -147 -221.499 -217z" />
    <glyph glyph-name="asterisk" unicode="*" horiz-adv-x="1040" 
d="M369 662l-146 83l201 291l-352 -24v159l354 -24l-203 291l146 86l151 -322l152 322l145 -86l-201 -291l353 24v-159l-353 24l201 -291l-143 -83l-154 319z" />
    <glyph glyph-name="plus" unicode="+" horiz-adv-x="1315" 
d="M553 168v430h-416v203h416v430h209v-430h418v-203h-418v-430h-209z" />
    <glyph glyph-name="comma" unicode="," horiz-adv-x="565" 
d="M178 -229l72 229h-109v266h283v-231l-129 -264h-117z" />
    <glyph glyph-name="hyphen" unicode="-" horiz-adv-x="731" 
d="M113 553v180h505v-180h-505z" />
    <glyph glyph-name="hyphen" unicode="&#xad;" horiz-adv-x="731" 
d="M113 553v180h505v-180h-505z" />
    <glyph glyph-name="period" unicode="." horiz-adv-x="565" 
d="M141 0v266h283v-266h-283z" />
    <glyph glyph-name="slash" unicode="/" 
d="M47 0l881 1516h260l-881 -1516h-260z" />
    <glyph glyph-name="zero" unicode="0" horiz-adv-x="1389" 
d="M696 -29c-95.333 0 -180.333 18.833 -255 56.5s-137.667 90.834 -189 159.501s-90.5 151.5 -117.5 248.5s-40.5 204.5 -40.5 322.5s13.5 225.333 40.5 322s66.167 179.334 117.5 248.001s114.333 121.834 189 159.501s159.667 56.5 255 56.5s180 -18.833 254 -56.5
s136.5 -90.834 187.5 -159.501s89.833 -151.334 116.5 -248.001s40 -204 40 -322s-13.333 -225.5 -40 -322.5s-65.5 -179.833 -116.5 -248.5s-113.5 -121.834 -187.5 -159.501s-158.667 -56.5 -254 -56.5zM696 197c109.333 0 193.664 46.167 252.997 138.5
s89 233.166 89 422.499c0 94.667 -7.83301 177 -23.5 247s-38.167 128 -67.5 174s-65.166 80.167 -107.499 102.5s-90.166 33.5 -143.499 33.5c-111.333 0 -196.833 -45.5 -256.5 -136.5s-89.5 -231.167 -89.5 -420.5c0 -94.667 8 -177.167 24 -247.5
s38.833 -128.666 68.5 -174.999s65.834 -81 108.501 -104s91 -34.5 145 -34.5z" />
    <glyph glyph-name="one" unicode="1" horiz-adv-x="918" 
d="M88 0v224.998h279v1030c-18.667 -9.33301 -39.334 -18.166 -62.001 -26.499s-46.167 -15.666 -70.5 -21.999s-48.666 -11.333 -72.999 -15s-47.5 -5.5 -69.5 -5.5v231c58.667 2 112 11 160 27s89 40 123 72h241v-1291h248v-225h-776z" />
    <glyph glyph-name="two" unicode="2" 
d="M72 0l0.000976562 33.0029c0 54.667 6 109.167 18 163.5s35.167 109.5 69.5 165.5s82.5 113.5 144.5 172.5s143 120.5 243 184.5c58 37.333 107.333 70.666 148 99.999s74 58 100 86s45 57 57 87s18 64.667 18 104c0 35.333 -5.66699 66.666 -17 93.999
s-27.333 50.166 -48 68.499s-45.5 32.333 -74.5 42s-61.5 14.5 -97.5 14.5c-66.667 0 -130.834 -19.5 -192.501 -58.5s-116.5 -93.833 -164.5 -164.5l-190 131c30.667 46.667 64.834 89.667 102.501 129s79.5 73.333 125.5 102s96.333 50.834 151 66.501
s114.667 23.5 180 23.5c74 0 140.5 -10.333 199.5 -31s108.833 -49.834 149.5 -87.501s71.834 -82.834 93.501 -135.501s32.5 -111.334 32.5 -176.001c0 -46 -5 -89.667 -15 -131s-28.333 -82.166 -55 -122.499s-63.167 -81.333 -109.5 -123s-105.833 -85.5 -178.5 -131.5
c-60.667 -38 -113.834 -74.167 -159.501 -108.5s-84.667 -67.166 -117 -98.499s-57.833 -61.333 -76.5 -90s-31.334 -56.667 -38.001 -84h757v-225h-1056z" />
    <glyph glyph-name="three" unicode="3" horiz-adv-x="1249" 
d="M600 -29c-120.667 0 -228.499 22.4961 -323.499 67.4961s-174.833 111.5 -239.5 199.5l178 143c26 -34 53.667 -62.833 83 -86.5s60 -42.667 92 -57s65.333 -24.666 100 -30.999s70 -9.5 106 -9.5c46.667 0 88.834 4.5 126.501 13.5s69.834 23 96.501 42
s47.334 43.167 62.001 72.5s22 64.333 22 105c0 48 -8.66699 88.5 -26 121.5s-43.5 60 -78.5 81s-78.833 36.167 -131.5 45.5s-114.667 14 -186 14h-69v209h75c74 0 135.167 5.33301 183.5 16s86.666 25.667 114.999 45s48.166 42.5 59.499 69.5s17 57.167 17 90.5
c0 30 -4.66699 56.833 -14 80.5s-24.333 43.667 -45 60s-47.5 28.833 -80.5 37.5s-73.167 13 -120.5 13c-64.667 0 -127.834 -12.667 -189.501 -38s-115.167 -61.333 -160.5 -108l-150 160c31.333 32.667 66.5 62.334 105.5 89.001s80.833 49.334 125.5 68.001
s91.834 33 141.501 43s100.5 15 152.5 15c81.333 0 152.5 -9.33301 213.5 -28s111.667 -45 152 -79s70.666 -74.5 90.999 -121.5s30.5 -98.5 30.5 -154.5c0 -91.333 -24.167 -167.333 -72.5 -228s-116.833 -102.667 -205.5 -126
c111.333 -22.667 192.666 -67.167 243.999 -133.5s77 -150.166 77 -251.499c0 -68 -13.167 -129.667 -39.5 -185s-63.833 -102.5 -112.5 -141.5s-107.167 -69.167 -175.5 -90.5s-144.833 -32 -229.5 -32z" />
    <glyph glyph-name="four" unicode="4" horiz-adv-x="1325" 
d="M786 0v311h-737v201l690 1004h295v-984h256v-221h-256v-311h-248zM326 532h460v678h-4z" />
    <glyph glyph-name="five" unicode="5" horiz-adv-x="1225" 
d="M592 -29c-58.667 0 -114.163 5.50488 -166.496 16.5049s-101.5 26.5 -147.5 46.5s-88.333 44.167 -127 72.5s-73.334 59.833 -104.001 94.5l158 168c25.333 -24 51.833 -46.5 79.5 -67.5s56.667 -39.333 87 -55s62.833 -27.834 97.5 -36.501s71.667 -13 111 -13
c56 0 104.333 7.66699 145 23s74.334 36.5 101.001 63.5s46.5 59.167 59.5 96.5s19.5 78 19.5 122c0 50 -6.83301 93.667 -20.5 131s-33.334 68.166 -59.001 92.499s-56.834 42.666 -93.501 54.999s-78 18.5 -124 18.5c-62.667 0 -119.334 -11 -170.001 -33
s-96.334 -59.667 -137.001 -113l-170 56l59 807h873l-19 -226h-655l-31 -391c14.667 16 32.167 30.833 52.5 44.5s43.5 25.667 69.5 36s55.333 18.333 88 24s68.667 8.5 108 8.5c76 0 143.833 -12.167 203.5 -36.5s110.167 -58.5 151.5 -102.5s73 -96.833 95 -158.5
s33 -129.834 33 -204.501c0 -78.667 -13 -151 -39 -217s-63.5 -122.833 -112.5 -170.5s-108.5 -84.834 -178.5 -111.501s-149 -40 -237 -40z" />
    <glyph glyph-name="six" unicode="6" horiz-adv-x="1303" 
d="M680 -29c-87.333 0 -166.83 15.835 -238.497 47.502s-133.334 79.167 -185.001 142.5s-91.667 142.5 -120 237.5s-42.5 205.833 -42.5 332.5c0 134 17.5 251.667 52.5 353s82.333 186 142 254s129.167 119.333 208.5 154s163.666 52 252.999 52
c42.667 0 83.167 -3.33301 121.5 -10s74 -15.834 107 -27.501s63.167 -24.834 90.5 -39.501s51.333 -30 72 -46l-123 -188c-35.333 24.667 -75.666 45.5 -120.999 62.5s-98 25.5 -158 25.5c-57.333 0 -109.5 -12.167 -156.5 -36.5s-87.5 -59 -121.5 -104
s-61 -99.5 -81 -163.5s-31.333 -136 -34 -216c26 22.667 53.667 44 83 64s60.5 37.5 93.5 52.5s68 26.667 105 35s76.167 12.5 117.5 12.5c72 0 137.833 -10.333 197.5 -31s110.667 -51 153 -91s75.166 -89.833 98.499 -149.5s35 -128.5 35 -206.5
c0 -76 -14.5 -145.667 -43.5 -209s-68.333 -117.833 -118 -163.5s-107.834 -81 -174.501 -106s-137.667 -37.5 -213 -37.5zM692.003 188.002c46 0 87.167 6.66797 123.5 20.001s67 32.666 92 57.999s44.167 55.833 57.5 91.5s20 76.167 20 121.5
c0 39.333 -5 75.666 -15 108.999s-26.167 62.166 -48.5 86.499s-51.833 43.333 -88.5 57s-81.667 20.5 -135 20.5c-36 0 -71.333 -4.16699 -106 -12.5s-67.334 -19.5 -98.001 -33.5s-58.5 -30 -83.5 -48s-45.833 -36.667 -62.5 -56
c5.33301 -73.333 17.333 -136.166 36 -188.499s42.834 -95.166 72.501 -128.499s64.5 -57.833 104.5 -73.5s83.667 -23.5 131 -23.5z" />
    <glyph glyph-name="seven" unicode="7" horiz-adv-x="1112" 
d="M197 0l604 1290h-746v226h1010v-209l-606 -1307h-262z" />
    <glyph glyph-name="eight" unicode="8" horiz-adv-x="1280" 
d="M641 -35c-92 0 -174.002 10.168 -246.002 30.501s-132.833 49 -182.5 86s-87.667 80.833 -114 131.5s-39.5 106.667 -39.5 168c0 50 9 95.667 27 137s43.167 78.833 75.5 112.5s70.666 64.167 114.999 91.5s92.833 52.333 145.5 75
c-45.333 22 -86.166 44.833 -122.499 68.5s-67.166 50 -92.499 79s-44.666 61.5 -57.999 97.5s-20 77.667 -20 125c0 48 11 94.833 33 140.5s54.5 86.5 97.5 122.5s96.5 65 160.5 87s137.667 33 221 33c85.333 0 160 -11 224 -33s117.167 -51 159.5 -87
s74 -76.833 95 -122.5s31.5 -92.5 31.5 -140.5c0 -83.333 -25.667 -154.333 -77 -213s-123.333 -109 -216 -151c55.333 -24 105.333 -49 150 -75s82.834 -55.333 114.501 -88s56 -70 73 -112s25.5 -91 25.5 -147c0 -60.667 -13.167 -116.334 -39.5 -167.001
s-64.333 -94.5 -114 -131.5s-110.334 -65.833 -182.001 -86.5s-153.167 -31 -244.5 -31zM656.998 891.001c42.667 20 79.501 39.333 110.501 58s56.5 38 76.5 58s34.833 41.5 44.5 64.5s14.5 48.833 14.5 77.5c0 24 -5 47.5 -15 70.5s-25.5 43.5 -46.5 61.5
s-48 32.5 -81 43.5s-72.833 16.5 -119.5 16.5c-45.333 0 -84.5 -5.16699 -117.5 -15.5s-60.333 -24 -82 -41s-37.834 -37 -48.501 -60s-16 -46.833 -16 -71.5c0 -31.333 6 -59 18 -83s29.667 -46.167 53 -66.5s52.5 -39.5 87.5 -57.5s75.5 -36.333 121.5 -55z
M640.999 172.001c49.333 0 94.002 5.16406 134.002 15.4971s74 25 102 44s49.667 42.333 65 70s23 58.834 23 93.501c0 34 -7 64.833 -21 92.5s-35.333 53.5 -64 77.5s-64.334 47 -107.001 69s-92.667 44.667 -150 68c-50 -23.333 -94.167 -46.166 -132.5 -68.499
s-70.5 -45.833 -96.5 -70.5s-45.667 -50.667 -59 -78s-20 -57.333 -20 -90c0 -34 7.66699 -64.667 23 -92s37.166 -50.666 65.499 -69.999s62.5 -34.333 102.5 -45s85 -16 135 -16z" />
    <glyph glyph-name="nine" unicode="9" horiz-adv-x="1303" 
d="M553 -29c-42.667 0 -83.1709 3.49512 -121.504 10.4951s-74 16.167 -107 27.5s-63.167 24.333 -90.5 39s-51.333 30 -72 46l123 189c34.667 -25.333 74.834 -47.166 120.501 -65.499s98.167 -27.5 157.5 -27.5c57.333 0 109.5 12.333 156.5 37s87.5 59.834 121.5 105.501
s60.833 100.834 80.5 165.501s31.167 137 34.5 217c-25.333 -23.333 -52.666 -44.833 -81.999 -64.5s-60.5 -37 -93.5 -52s-68.167 -26.667 -105.5 -35s-76.666 -12.5 -117.999 -12.5c-72 0 -137.667 10.333 -197 31s-110.166 51 -152.499 91s-75.166 89.667 -98.499 149
s-35 128 -35 206c0 76 14.5 145.667 43.5 209s68.333 117.833 118 163.5s107.834 81 174.501 106s137.667 37.5 213 37.5c86.667 0 166 -15.833 238 -47.5s133.667 -79.167 185 -142.5s91.166 -142.5 119.499 -237.5s42.5 -205.833 42.5 -332.5
c0 -133.333 -17.5 -250.666 -52.5 -351.999s-82.167 -186.166 -141.5 -254.499s-128.833 -119.833 -208.5 -154.5s-163.834 -52 -252.501 -52zM603.996 763.995c36 0 71.499 4.16602 106.499 12.499s67.833 19.333 98.5 33s58.5 29.5 83.5 47.5s45.5 36.667 61.5 56
c-5.33301 73.333 -17.166 135.833 -35.499 187.5s-42.5 94 -72.5 127s-64.833 57.167 -104.5 72.5s-83.5 23 -131.5 23c-92.667 0 -164.667 -25 -216 -75s-77 -120.667 -77 -212c0 -39.333 5 -75.666 15 -108.999s26.167 -62 48.5 -86s51.833 -42.833 88.5 -56.5
s81.667 -20.5 135 -20.5z" />
    <glyph glyph-name="colon" unicode=":" horiz-adv-x="584" 
d="M152 819v268h280v-268h-280zM152 0v266h280v-266h-280z" />
    <glyph glyph-name="semicolon" unicode=";" horiz-adv-x="584" 
d="M184 -229l72 229h-104v266h280v-227l-131 -268h-117zM152 819v268h280v-268h-280z" />
    <glyph glyph-name="less" unicode="&#x3c;" horiz-adv-x="1315" 
d="M1200 119l-1083 471v147l1083 471v-213l-809 -331l809 -332v-213z" />
    <glyph glyph-name="equal" unicode="=" horiz-adv-x="1315" 
d="M139 809v186h1035v-186h-1035zM139 342v186h1035v-186h-1035z" />
    <glyph glyph-name="greater" unicode="&#x3e;" horiz-adv-x="1315" 
d="M123 119v213l809 332l-809 331v213l1083 -471v-147z" />
    <glyph glyph-name="question" unicode="?" horiz-adv-x="1171" 
d="M434 449c-3.33301 24.667 -5.1582 48.5029 -5.49121 71.5029s-0.5 46.833 -0.5 71.5c0 74.667 17.5 137.5 52.5 188.5s84.5 94.5 148.5 130.5c33.333 19.333 62.166 37.166 86.499 53.499s44.5 33.5 60.5 51.5s27.833 37.833 35.5 59.5s11.5 47.5 11.5 77.5
c0 51.333 -20.5 91.833 -61.5 121.5s-98.833 44.5 -173.5 44.5c-38 0 -74.333 -5 -109 -15s-67.334 -23.333 -98.001 -40s-58.667 -35.5 -84 -56.5s-47.333 -42.5 -66 -64.5l-161 145c29.333 36 62.166 69.5 98.499 100.5s76.666 58 120.999 81s93 41.167 146 54.5
s111.167 20 174.5 20c76 0 143 -9.16699 201 -27.5s106.5 -44 145.5 -77s68.5 -72.333 88.5 -118s30 -95.834 30 -150.501c0 -48.667 -6.5 -91.334 -19.5 -128.001s-30.667 -69.167 -53 -97.5s-48.833 -53.5 -79.5 -75.5s-63.334 -42.333 -98.001 -61
c-30 -16.667 -55.333 -32 -76 -46s-37.834 -28.5 -51.501 -43.5s-24.334 -30.833 -32.001 -47.5s-13.334 -35.667 -17.001 -57s-5.83398 -45.5 -6.50098 -72.5s-1 -58.167 -1 -93.5h-207zM397.008 0.00292969v256h281v-256h-281z" />
    <glyph glyph-name="at" unicode="@" horiz-adv-x="1778" 
d="M877 -29c-118.667 0 -226.336 19.332 -323.003 57.999s-179.167 92.834 -247.5 162.501s-121.166 152.5 -158.499 248.5s-56 201.333 -56 316s19.667 220.167 59 316.5s94.166 179.5 164.499 249.5s154.5 124.5 252.5 163.5s205.667 58.5 323 58.5
s224.666 -18.833 321.999 -56.5s181 -90.334 251 -158.001s124.5 -148.5 163.5 -242.5s58.5 -197 58.5 -309c0 -70 -8.83301 -133.5 -26.5 -190.5s-42.834 -105.667 -75.501 -146s-72.5 -71.5 -119.5 -93.5s-99.5 -33 -157.5 -33c-75.333 0 -134.166 13.167 -176.499 39.5
s-71.166 64.5 -86.499 114.5c-42 -42 -89 -75 -141 -99s-114 -36 -186 -36c-42.667 0 -81.5 6.66699 -116.5 20s-65.167 33.333 -90.5 60s-45 60 -59 100s-21 86.333 -21 139c0 81.333 10.5 155.833 31.5 223.5s49.833 125.667 86.5 174s79.834 86 129.501 113
s103.167 40.5 160.5 40.5c31.333 0 59.333 -2.83301 84 -8.5s46.834 -13.167 66.501 -22.5s37.334 -20.5 53.001 -33.5s30.167 -26.833 43.5 -41.5l15 90h196l-96 -608c-7.33301 -46.667 0 -83.334 22 -110.001s59 -40 111 -40c32.667 0 63.167 7.33301 91.5 22
s52.833 36.334 73.5 65.001s37 64.334 49 107.001s18 92 18 148c0 96.667 -16.333 185.167 -49 265.5s-78.667 149.333 -138 207s-130.333 102.5 -213 134.5s-174 48 -274 48c-100.667 0 -192.167 -16.5 -274.5 -49.5s-153 -79.167 -212 -138.5
s-104.667 -130.166 -137 -212.499s-48.5 -172.5 -48.5 -270.5c0 -99.333 15.833 -190.333 47.5 -273s76.5 -153.834 134.5 -213.501s127.833 -106.167 209.5 -139.5s172.5 -50 272.5 -50c78.667 0 150.167 8.66699 214.5 26s125.833 44 184.5 80l55 -88
c-62 -40 -132 -71.167 -210 -93.5s-161.333 -33.5 -250 -33.5zM787.998 486.999c39.333 0 77.001 8.5 113.001 25.5s71 42.167 105 75.5l57 362c-28 32 -56.833 55 -86.5 69s-65.167 21 -106.5 21c-38 0 -71.833 -10.167 -101.5 -30.5s-54.834 -47.5 -75.501 -81.5
s-36.5 -73 -47.5 -117s-16.5 -89.667 -16.5 -137c0 -64 13 -111.167 39 -141.5s66 -45.5 120 -45.5z" />
    <glyph glyph-name="A" unicode="A" horiz-adv-x="1427" 
d="M51 0l537 1522h252l536 -1522h-262l-123 360h-575l-125 -360h-240zM494 586h421l-206 614h-4z" />
    <glyph glyph-name="B" unicode="B" horiz-adv-x="1438" 
d="M172 0l0.00292969 1516h573c76 0 146.333 -6.66699 211 -20s120.5 -34.833 167.5 -64.5s83.833 -68.5 110.5 -116.5s40 -106.667 40 -176c0 -52.667 -6.83301 -99 -20.5 -139s-32.5 -74.333 -56.5 -103s-52.333 -51.667 -85 -69s-68 -29.666 -106 -36.999v-5
c46.667 -8.66699 89.167 -22 127.5 -40s71.166 -41.833 98.499 -71.5s48.666 -65.667 63.999 -108s23 -92.5 23 -150.5c0 -70 -13.5 -131 -40.5 -183s-64.333 -95.167 -112 -129.5s-104.334 -60.166 -170.001 -77.499s-137.167 -26 -214.5 -26h-610zM424.003 220.998h332
c108.667 0 187.667 18 237 54s74 91.667 74 167c0 40.667 -7.5 75.167 -22.5 103.5s-37 51.5 -66 69.5s-64.333 31 -106 39s-89.5 12 -143.5 12h-305v-445zM424.003 882.998l297.001 0.000976562c101.333 0 177.833 16.167 229.5 48.5s77.5 85.166 77.5 158.499
c0 36 -5.83301 66.667 -17.5 92s-29.834 46 -54.501 62s-56.167 27.667 -94.5 35s-83.833 11 -136.5 11h-301v-407z" />
    <glyph glyph-name="C" unicode="C" horiz-adv-x="1468" 
d="M764 -29c-97.333 0 -186.664 16.6631 -267.997 49.9961s-151.5 83.166 -210.5 149.499s-105 148.833 -138 247.5s-49.5 213.334 -49.5 344.001c0 126.667 16.833 238.667 50.5 336s80.167 179 139.5 245s129.666 116 210.999 150s169.666 51 264.999 51
c88 0 165 -11.5 231 -34.5s122.5 -55.333 169.5 -97s85.667 -91.334 116 -149.001s54.166 -121.167 71.499 -190.5l-244 -69c-14 50 -30.5 93.833 -49.5 131.5s-42.167 69.334 -69.5 95.001s-59.5 44.834 -96.5 57.501s-80.5 19 -130.5 19
c-64 0 -121.167 -12.167 -171.5 -36.5s-92.833 -59.666 -127.5 -105.999s-61.167 -103.166 -79.5 -170.499s-27.5 -144 -27.5 -230c0 -90 9.33301 -169.833 28 -239.5s45.667 -128.167 81 -175.5s78.333 -83.166 129 -107.499s108 -36.5 172 -36.5
c49.333 0 93.333 6.33301 132 19s72.834 32.167 102.501 58.5s55.167 60 76.5 101s39 89.833 53 146.5l244 -55c-18.667 -75.333 -44.5 -144 -77.5 -206s-74.333 -115 -124 -159s-108.334 -78.167 -176.001 -102.5s-145.167 -36.5 -232.5 -36.5z" />
    <glyph glyph-name="D" unicode="D" horiz-adv-x="1491" 
d="M172 0v1516h432c118.667 0 226.5 -14.333 323.5 -43s179.833 -73.5 248.5 -134.5s121.667 -138.833 159 -233.5s56 -208.334 56 -341.001c0 -135.333 -19 -251.166 -57 -347.499s-91.5 -175.333 -160.5 -237s-151.833 -107 -248.5 -136s-203.667 -43.5 -321 -43.5h-432z
M428 229h198.998c86.667 0 161.834 9.83301 225.501 29.5s116.5 51 158.5 94s73.167 98.333 93.5 166s30.5 149.5 30.5 245.5c0 90.667 -10.333 168.5 -31 233.5s-52.167 118.333 -94.5 160s-95.666 72.167 -159.999 91.5s-139.833 29 -226.5 29h-195v-1049z" />
    <glyph glyph-name="E" unicode="E" horiz-adv-x="1272" 
d="M172 0v1516h979v-238h-723v-377h530v-227h-530v-441h764v-233h-1020z" />
    <glyph glyph-name="F" unicode="F" horiz-adv-x="1184" 
d="M172 0v1516h954v-238h-698v-406h506v-227h-506v-645h-256z" />
    <glyph glyph-name="G" unicode="G" horiz-adv-x="1526" 
d="M745 -29c-108.667 0 -203.502 19.6641 -284.502 58.9971s-148.333 94 -202 164s-93.834 153.5 -120.501 250.5s-40 203.5 -40 319.5c0 121.333 15.833 230.166 47.5 326.499s76.667 178.166 135 245.499s128.5 118.833 210.5 154.5s173.667 53.5 275 53.5
c72 0 138.833 -8.66699 200.5 -26s117.5 -45.166 167.5 -83.499s93.5 -87.666 130.5 -147.999s66.833 -133.5 89.5 -219.5l-238 -63c-16.667 56.667 -36 104.334 -58 143.001s-47.167 69.834 -75.5 93.501s-60.666 40.667 -96.999 51s-76.833 15.5 -121.5 15.5
c-30 0 -60.833 -3.33301 -92.5 -10s-62.667 -18.167 -93 -34.5s-59 -37.833 -86 -64.5s-50.667 -59.834 -71 -99.501s-36.333 -86.667 -48 -141s-17.5 -116.833 -17.5 -187.5c0 -106 11.667 -195.333 35 -268s54.5 -131.167 93.5 -175.5s83.5 -76.333 133.5 -96
s102 -29.5 156 -29.5c50 0 95.833 7.33301 137.5 22s77.834 36.334 108.501 65.001s55.334 64.334 74.001 107.001s30 92 34 148h-305v207h551v-750h-211v219h-4c-12 -27.333 -29.333 -55.5 -52 -84.5s-51 -55.667 -85 -80s-74 -44.333 -120 -60s-98.333 -23.5 -157 -23.5z
" />
    <glyph glyph-name="H" unicode="H" horiz-adv-x="1544" 
d="M172 0v1516h256v-605h688v605h256v-1516h-256v674h-688v-674h-256z" />
    <glyph glyph-name="I" unicode="I" horiz-adv-x="635" 
d="M188 0v1516h258v-1516h-258z" />
    <glyph glyph-name="J" unicode="J" horiz-adv-x="1065" 
d="M449 -29c-91.333 0 -170.169 15.5 -236.502 46.5s-124.833 73.5 -175.5 127.5l160 158c13.333 -13.333 28.333 -26.5 45 -39.5s34.834 -24.5 54.501 -34.5s40.834 -18.167 63.501 -24.5s46.667 -9.5 72 -9.5c35.333 0 67 4 95 12s51.833 22 71.5 42s34.667 46.667 45 80
s15.5 75.333 15.5 126v1061h256v-1096c0 -70.667 -10.333 -133.834 -31 -189.501s-51 -102.667 -91 -141s-88.833 -67.666 -146.5 -87.999s-123.5 -30.5 -197.5 -30.5z" />
    <glyph glyph-name="K" unicode="K" horiz-adv-x="1430" 
d="M172 0v1516h256v-705l596 705h303l-516 -584l580 -932h-293l-455 735l-215 -237v-498h-256z" />
    <glyph glyph-name="L" unicode="L" horiz-adv-x="1184" 
d="M172 0v1516h256v-1283h698v-233h-954z" />
    <glyph glyph-name="M" unicode="M" horiz-adv-x="1829" 
d="M172 0v1516h338l405 -1203h5l393 1203h344v-1516h-248v1130h-4c-11.333 -52 -24.833 -103 -40.5 -153l-49.5 -156l-295 -821h-227l-293 821l-25.5 75.5l-22.5 70.5c-7.33301 24 -14.5 49.833 -21.5 77.5s-14.5 59.834 -22.5 96.501h-5v-1141h-231z" />
    <glyph glyph-name="N" unicode="N" horiz-adv-x="1563" 
d="M172 0v1516h260l717 -1082h4v1082h238v-1516h-234l-743 1104h-4v-1104h-238z" />
    <glyph glyph-name="O" unicode="O" horiz-adv-x="1565" 
d="M784 -29c-96 0 -185.833 17 -269.5 51s-156.334 84.333 -218.001 151s-110.167 149 -145.5 247s-53 210.667 -53 338s17.667 240 53 338s83.833 180.167 145.5 246.5s134.334 116.5 218.001 150.5s173.5 51 269.5 51s185.5 -17 268.5 -51s155.167 -84.167 216.5 -150.5
s109.5 -148.5 144.5 -246.5s52.5 -210.667 52.5 -338s-17.5 -240 -52.5 -338s-83.167 -180.333 -144.5 -247s-133.5 -117 -216.5 -151s-172.5 -51 -268.5 -51zM784 203c63.333 0 121.166 12.167 173.499 36.5s97 60 134 107s65.667 105 86 174s30.5 148.167 30.5 237.5
c0 88.667 -10.167 167.334 -30.5 236.001s-49 126.334 -86 173.001s-81.667 82 -134 106s-110.166 36 -173.499 36c-64.667 0 -123.334 -12 -176.001 -36s-97.667 -59.333 -135 -106s-66.166 -104.334 -86.499 -173.001s-30.5 -147.334 -30.5 -236.001
c0 -89.333 10.167 -168.5 30.5 -237.5s49.166 -127 86.499 -174s82.333 -82.667 135 -107s111.334 -36.5 176.001 -36.5z" />
    <glyph glyph-name="P" unicode="P" horiz-adv-x="1358" 
d="M172 0v1516h530c82 0 158.5 -7.83301 229.5 -23.5s132.833 -41.667 185.5 -78s94 -84.166 124 -143.499s45 -132.666 45 -219.999c0 -92 -16.167 -168.5 -48.5 -229.5s-75.833 -109.667 -130.5 -146s-117.667 -62.166 -189 -77.499s-146 -23 -224 -23h-268v-575h-254z
M426 798.997h281c56 0 104.667 4.5 146 13.5s75.333 23.167 102 42.5s46.5 44.5 59.5 75.5s19.5 68.167 19.5 111.5c0 84 -26.5 145 -79.5 183s-136.167 57 -249.5 57h-279v-483z" />
    <glyph glyph-name="Q" unicode="Q" horiz-adv-x="1565" 
d="M1116 -395c-80 0 -149.671 9.66699 -209.004 29s-108.666 46 -147.999 80s-69.166 74.5 -89.499 121.5s-31.166 98.5 -32.499 154.5c-76.667 14 -148 41.167 -214 81.5s-123.167 93.166 -171.5 158.499s-86.333 142.166 -114 230.499s-41.5 187.5 -41.5 297.5
c0 127.333 18.5 240 55.5 338s87 180.167 150 246.5s136 116.5 219 150.5s170.167 51 261.5 51s178.166 -17 260.499 -51s154.833 -84.167 217.5 -150.5s112.334 -148.5 149.001 -246.5s55 -210.667 55 -338c0 -113.333 -14.5 -215.166 -43.5 -305.499
s-69 -168.333 -120 -234s-111 -118.167 -180 -157.5s-143.5 -65 -223.5 -77c8 -37.333 20.5 -66.666 37.5 -87.999s38.833 -37.5 65.5 -48.5s58.334 -18 95.001 -21s78.667 -4.5 126 -4.5h104v-217h-209zM781.996 199c63.333 0 121.166 12.333 173.499 37
s97 60.834 134 108.501s65.667 106.167 86 175.5s30.5 148.666 30.5 237.999c0 88.667 -10.167 167.334 -30.5 236.001s-49 126.334 -86 173.001s-81.667 82 -134 106s-110.166 36 -173.499 36c-64.667 0 -123.334 -12 -176.001 -36s-97.667 -59.333 -135 -106
s-66.166 -104.334 -86.499 -173.001s-30.5 -147.334 -30.5 -236.001c0 -89.333 10.167 -168.666 30.5 -237.999s49.166 -127.833 86.499 -175.5s82.333 -83.834 135 -108.501s111.334 -37 176.001 -37z" />
    <glyph glyph-name="R" unicode="R" horiz-adv-x="1415" 
d="M172 0l0.00195312 1516h543c90 0 170.333 -9.16699 241 -27.5s130.167 -46.333 178.5 -84s85.333 -85 111 -142s38.5 -124.167 38.5 -201.5c0 -60.667 -7.66699 -114.667 -23 -162s-37.333 -88.833 -66 -124.5s-63.834 -65.334 -105.501 -89.001
s-88.834 -41.834 -141.501 -54.501l357 -631h-275l-340 598h-266v-598h-252zM424.002 821.002h280.999c53.333 0 100.333 3.66699 141 11s74.834 20 102.501 38s48.5 42 62.5 72s21 67.667 21 113c0 43.333 -7 79.5 -21 108.5s-34.833 52.333 -62.5 70s-62 30.167 -103 37.5
s-88.833 11 -143.5 11h-278v-461z" />
    <glyph glyph-name="S" unicode="S" horiz-adv-x="1380" 
d="M702 -29c-75.333 0 -145.003 9.32617 -209.003 27.9932s-121.667 44.834 -173 78.501s-96.166 74.167 -134.499 121.5s-69.5 99.666 -93.5 156.999l203 107c45.333 -89.333 102.5 -155.666 171.5 -198.999s151.167 -65 246.5 -65c46 0 88 3.83301 126 11.5
s70.5 19.5 97.5 35.5s48 36.333 63 61s22.5 54 22.5 88c0 32.667 -6.16699 61.5 -18.5 86.5s-32.166 47.833 -59.499 68.5s-62.833 39.834 -106.5 57.501s-96.834 35.834 -159.501 54.501c-48.667 14 -95.5 28.333 -140.5 43s-87.167 30.834 -126.5 48.501
s-75 37.5 -107 59.5s-59.333 47.333 -82 76s-40.334 61.667 -53.001 99s-19 80 -19 128c0 64.667 12.5 123.334 37.5 176.001s60.333 97.667 106 135s100.167 66.166 163.5 86.499s133.666 30.5 210.999 30.5c74.667 0 141.834 -8.66699 201.501 -26
s112.834 -40.666 159.501 -69.999s86.834 -63.666 120.501 -102.999s62.167 -81.333 85.5 -126l-186 -129c-46 76 -100.833 131.833 -164.5 167.5s-136.5 53.5 -218.5 53.5c-84.667 0 -150 -14.833 -196 -44.5s-69 -72.167 -69 -127.5c0 -35.333 7 -65.5 21 -90.5
s35.5 -47.167 64.5 -66.5s66 -37.166 111 -53.499s98.5 -33.5 160.5 -51.5c71.333 -21.333 138.333 -44 201 -68s117.334 -53.5 164.001 -88.5s83.5 -77.167 110.5 -126.5s40.5 -109.333 40.5 -180c0 -62 -12.833 -120 -38.5 -174s-63 -100.833 -112 -140.5
s-109 -71 -180 -94s-151.5 -34.5 -241.5 -34.5z" />
    <glyph glyph-name="T" unicode="T" horiz-adv-x="1300" 
d="M522 0v1278h-467v238h1190v-238h-467v-1278h-256z" />
    <glyph glyph-name="U" unicode="U" horiz-adv-x="1477" 
d="M739 -25c-104 0 -193.168 14.001 -267.501 42.001s-135.166 67.333 -182.499 118s-82 111.5 -104 182.5s-33 149.5 -33 235.5v963h256v-941c0 -58 6.5 -109.667 19.5 -155s33 -83.833 60 -115.5s61.5 -55.834 103.5 -72.501s92 -25 150 -25s107.833 8.16699 149.5 24.5
s76 40 103 71s47 69.333 60 115s19.5 97.5 19.5 155.5v943h252v-961c0 -86 -12.167 -164.667 -36.5 -236s-61 -132.5 -110 -183.5s-110 -90.5 -183 -118.5s-158.5 -42 -256.5 -42z" />
    <glyph glyph-name="V" unicode="V" horiz-adv-x="1397" 
d="M578 -6l-527 1522h260l391 -1182h5l397 1182h242l-527 -1522h-241z" />
    <glyph glyph-name="W" unicode="W" horiz-adv-x="1933" 
d="M463 0l-404.001 1516h258l193 -785l43.5 -176.5c13.667 -57 25.834 -115.5 36.501 -175.5h4c10 58.667 21.667 116.5 35 173.5l43 176.5l182 787h246l188 -791l23 -90.5l21 -83.5c6.66699 -27.333 13 -54.833 19 -82.5s11.667 -57.5 17 -89.5h4
c6 32.667 11.833 62.667 17.5 90l17.5 80.5l18.5 80.5l20.5 89l188 797h240l-399 -1516h-224l-272 1161h-4l-287 -1161h-225z" />
    <glyph glyph-name="X" unicode="X" horiz-adv-x="1427" 
d="M66 0l503 805l-450 711h293l315 -508l305 508h266l-442 -711l506 -805h-283l-374 600l-371 -600h-268z" />
    <glyph glyph-name="Y" unicode="Y" horiz-adv-x="1354" 
d="M547 0v653l-516 863h270l379 -646l377 646h266l-518 -863v-653h-258z" />
    <glyph glyph-name="Z" unicode="Z" horiz-adv-x="1321" 
d="M72 0v178l837 1122h-782v216h1104v-185l-828 -1122h828v-209h-1159z" />
    <glyph glyph-name="bracketleft" unicode="[" horiz-adv-x="862" 
d="M158 -410v1926h630v-181h-376v-1564h376v-181h-630z" />
    <glyph glyph-name="backslash" unicode="\" horiz-adv-x="1194" 
d="M907 0l-880 1516h260l880 -1516h-260z" />
    <glyph glyph-name="bracketright" unicode="]" horiz-adv-x="862" 
d="M74 -410v181h377v1562h-377v183h631v-1926h-631z" />
    <glyph glyph-name="asciicircum" unicode="^" horiz-adv-x="1315" 
d="M588 1516h147l471 -838h-213l-331 582l-332 -582h-213z" />
    <glyph glyph-name="underscore" unicode="_" horiz-adv-x="1024" 
d="M0 -297v182h1024v-182h-1024z" />
    <glyph glyph-name="grave" unicode="`" horiz-adv-x="1024" 
d="M240 1542h272l193 -340h-166z" />
    <glyph glyph-name="a" unicode="a" horiz-adv-x="1157" 
d="M379 -16c-44 0 -84.666 5.99902 -121.999 17.999s-69.833 29.833 -97.5 53.5s-49.167 52.667 -64.5 87s-23 74.166 -23 119.499c0 58.667 13 112.5 39 161.5s67.5 92.5 124.5 130.5s130.167 70.333 219.5 97s197.666 47.334 324.999 62.001v32
c0 54.667 -14.5 94.334 -43.5 119.001s-73.833 37 -134.5 37c-38 0 -74 -4.16699 -108 -12.5s-66.333 -19.5 -97 -33.5s-59.5 -29.833 -86.5 -47.5s-51.833 -35.5 -74.5 -53.5l-123 157c28.667 26.667 61.667 52 99 76s78 45 122 63s91.5 32.167 142.5 42.5
s104.5 15.5 160.5 15.5c72.667 0 134 -8.5 184 -25.5s90.333 -42.167 121 -75.5s52.667 -74.5 66 -123.5s20 -105.167 20 -168.5v-449c0 -66 2.33301 -119.833 7 -161.5s12.667 -76.5 24 -104.5h-254l-9.5 32c-3 10 -5.66699 20.5 -8 31.5s-4.16602 22.5 -5.49902 34.5
s-2 25.667 -2 41c-55.333 -56 -115.833 -95.833 -181.5 -119.5s-138.834 -35.5 -219.501 -35.5zM471.001 177.999c64.667 0 122.333 11.334 173 34.001s96 53 136 91v240c-151.333 -20.667 -266 -49.834 -344 -87.501s-117 -86.5 -117 -146.5c0 -43.333 13.833 -76 41.5 -98
s64.5 -33 110.5 -33z" />
    <glyph glyph-name="b" unicode="b" horiz-adv-x="1251" 
d="M705 -16c-58.667 0 -115.333 11.501 -170 34.501s-102 57.167 -142 102.5v-121h-252v1516h252v-572c18 21.333 38.667 42 62 62s49.333 37.5 78 52.5s60.167 27 94.5 36s71.5 13.5 111.5 13.5c62 0 119.333 -11.667 172 -35s98 -58.333 136 -105
s67.833 -105.334 89.5 -176.001s32.5 -153 32.5 -247s-11.167 -176.167 -33.5 -246.5s-53.833 -128.833 -94.5 -175.5s-89.5 -81.5 -146.5 -104.5s-120.167 -34.5 -189.5 -34.5zM649.001 184.001c95.333 0 164 29.501 206 88.501s63 149.167 63 270.5
c0 115.333 -23.167 202.5 -69.5 261.5s-110.166 88.5 -191.499 88.5c-26 0 -51.5 -3.83301 -76.5 -11.5s-49 -17.834 -72 -30.501s-44.333 -27.167 -64 -43.5s-36.834 -33.5 -51.501 -51.5v-437c34 -44 73.833 -77.5 119.5 -100.5s91.167 -34.5 136.5 -34.5z" />
    <glyph glyph-name="c" unicode="c" horiz-adv-x="1116" 
d="M588 -23c-63.333 0 -125.327 10.8311 -185.994 32.498s-114.834 55.5 -162.501 101.5s-86.167 104.667 -115.5 176s-44 156.666 -44 255.999c0 69.333 7.33301 131.333 22 186s34.5 103 59.5 145s54.5 77.833 88.5 107.5s70.333 53.834 109 72.501
s78.667 32.334 120 41.001s82.333 13 123 13c67.333 0 125.666 -8.66699 174.999 -26s91.666 -40.666 126.999 -69.999s64.833 -63 88.5 -101s43.834 -78 60.501 -120l-213 -76c-21.333 62 -51.833 107.833 -91.5 137.5s-89.834 44.5 -150.501 44.5
c-36 0 -70 -6.33301 -102 -19s-60 -33 -84 -61s-43 -64.5 -57 -109.5s-21 -99.833 -21 -164.5c0 -116.667 22.5 -205.667 67.5 -267s109.167 -92 192.5 -92c28.667 0 55.167 2.66699 79.5 8s47 15 68 29s40.167 33.167 57.5 57.5s33.666 55.833 48.999 94.5l209 -76
c-19.333 -43.333 -42.333 -84.5 -69 -123.5s-58.834 -73 -96.501 -102s-81.334 -52 -131.001 -69s-107.167 -25.5 -172.5 -25.5z" />
    <glyph glyph-name="d" unicode="d" horiz-adv-x="1251" 
d="M512 -16c-62 0 -119.333 11.334 -172 34.001s-98 57 -136 103s-67.833 104 -89.5 174s-32.5 152 -32.5 246s11.167 176.5 33.5 247.5s53.833 130.167 94.5 177.5s89.5 82.833 146.5 106.5s120.5 35.5 190.5 35.5c58.667 0 115.167 -11.5 169.5 -34.5
s101.5 -57.167 141.5 -102.5v545h252v-1250c0 -66 2.33301 -119.833 7 -161.5s13.334 -76.5 26.001 -104.5h-260c-7.33301 15.333 -13.333 36.833 -18 64.5s-7 55.167 -7 82.5c-20 -23.333 -41.667 -44.833 -65 -64.5s-49 -36.834 -77 -51.501s-58.833 -26.167 -92.5 -34.5
s-70.834 -12.5 -111.501 -12.5zM594 190.001c26 0 51.665 3.8291 76.998 11.4961s49.333 17.834 72 30.501s43.834 27.334 63.501 44.001s36.834 34 51.501 52v436c-34 44 -73.833 77.5 -119.5 100.5s-91.167 34.5 -136.5 34.5c-47.333 0 -88 -7.66699 -122 -23
s-61.833 -38.166 -83.5 -68.499s-37.5 -68.333 -47.5 -114s-15 -98.5 -15 -158.5c0 -115.333 23 -201.666 69 -258.999s109.667 -86 191 -86z" />
    <glyph glyph-name="e" unicode="e" horiz-adv-x="1155" 
d="M604 -23c-68 0 -133.496 10.668 -196.496 32.001s-118.833 55 -167.5 101s-87.5 104.667 -116.5 176s-43.5 157 -43.5 257c0 68.667 7.5 130.334 22.5 185.001s35.5 103 61.5 145s56.167 77.833 90.5 107.5s70.666 54 108.999 73s77.666 32.833 117.999 41.5
s79.166 13 116.499 13c40.667 0 80.667 -4.33301 120 -13s76.666 -22.334 111.999 -41.001s68 -43.167 98 -73.5s55.833 -67.333 77.5 -111s38.667 -94.334 51 -152.001s18.5 -123.5 18.5 -197.5v-59h-743c2.66699 -49.333 11.834 -91.833 27.501 -127.5
s36.334 -65 62.001 -88s55.667 -40 90 -51s71.5 -16.5 111.5 -16.5c35.333 0 67.166 2.83301 95.499 8.5s54.666 14 78.999 25s47 24.333 68 40s41.833 33.5 62.5 53.5l133 -131c-56.667 -62.667 -122.5 -111.167 -197.5 -145.5s-161.5 -51.5 -259.5 -51.5zM844.004 649.001
c-7.33301 83.333 -31.332 146.499 -71.999 189.499s-99.334 64.5 -176.001 64.5c-30.667 0 -60.334 -4.5 -89.001 -13.5s-54.667 -23.667 -78 -44s-43.166 -46.666 -59.499 -78.999s-27.5 -71.5 -33.5 -117.5h508z" />
    <glyph glyph-name="f" unicode="f" horiz-adv-x="766" 
d="M236 0l0.000976562 887.001h-189v200h189v111c0 45.333 5.33301 87.833 16 127.5s29.334 74 56.001 103s62.667 51.833 108 68.5s102.666 25 171.999 25c12 0 25.667 -0.5 41 -1.5s30.166 -2.16699 44.499 -3.5l39 -3.5c11.667 -1 19.834 -1.83301 24.501 -2.5v-194
c-8 2 -20.667 3.83301 -38 5.5s-33.333 2.5 -48 2.5c-22.667 0 -43.834 -1.83301 -63.501 -5.5s-37 -10.834 -52 -21.501s-26.833 -25.167 -35.5 -43.5s-13 -41.833 -13 -70.5v-97h238v-200h-238v-887h-251z" />
    <glyph glyph-name="g" unicode="g" horiz-adv-x="1202" 
d="M551 -422c-94 0 -174.164 6.49219 -240.497 19.4922s-120.5 31.167 -162.5 54.5s-72.667 51.333 -92 84s-29 68.667 -29 108c0 54.667 15.667 101.334 47 140.001s75 68.667 131 90c-56 28.667 -84 73 -84 133c0 20.667 3.83301 40.334 11.5 59.001
s18.167 36.167 31.5 52.5s28.833 31.833 46.5 46.5s36.834 28.334 57.501 41.001c-55.333 34.667 -97.833 78.834 -127.5 132.501s-44.5 113.834 -44.5 180.501c0 56 10.5 107.667 31.5 155s51.167 88.333 90.5 123s87.166 61.834 143.499 81.501s120.166 29.5 191.499 29.5
c74.667 0 139.667 -10.833 195 -32.5s101.666 -49.167 138.999 -82.5c17.333 14 36.833 27 58.5 39s44.5 22.833 68.5 32.5s48.167 17.5 72.5 23.5s47.833 10 70.5 12v-205c-24.667 0 -53.5 -2 -86.5 -6s-67.5 -11.667 -103.5 -23c12 -19.333 21.5 -41.5 28.5 -66.5
s10.5 -51.833 10.5 -80.5c0 -56.667 -10.333 -108.667 -31 -156s-50.5 -88.166 -89.5 -122.499s-86.5 -61 -142.5 -80s-119.333 -28.5 -190 -28.5c-15.333 0 -29.333 0.5 -42 1.5s-24.834 2.5 -36.501 4.5s-23.5 4.33301 -35.5 7s-24.667 5.66699 -38 9
c-16 -9.33301 -29.167 -19.666 -39.5 -30.999s-15.5 -24 -15.5 -38c0 -21.333 8.83301 -36.666 26.5 -45.999s50.5 -16 98.5 -20l193 -12c80 -5.33301 148.333 -14.833 205 -28.5s103 -32.5 139 -56.5s62.333 -53.5 79 -88.5s25 -76.167 25 -123.5
c0 -56 -13.5 -104.667 -40.5 -146s-65 -75.833 -114 -103.5s-108 -48.334 -177 -62.001s-145.5 -20.5 -229.5 -20.5zM557.003 505.992c68.667 0 122.333 17.5 161 52.5s58 85.833 58 152.5c0 68 -18.833 119.833 -56.5 155.5s-92.5 53.5 -164.5 53.5
c-70 0 -124.333 -18.167 -163 -54.5s-58 -87.833 -58 -154.5s19.667 -117.5 59 -152.5s94 -52.5 164 -52.5zM590.002 -240.008c46 0 87.5 2.99805 124.5 8.99805s68.333 14.5 94 25.5s45.5 24.333 59.5 40s21 33.167 21 52.5s-4 35.833 -12 49.5s-22.333 25.334 -43 35.001
s-49 17.334 -85 23.001s-81.667 10.167 -137 13.5l-188 12c-11.333 0 -22.333 0.666992 -33 2s-21.667 3 -33 5c-36 -16.667 -61.667 -37.167 -77 -61.5s-23 -50.5 -23 -78.5c0 -48 27.5 -81.167 82.5 -99.5s138.167 -27.5 249.5 -27.5z" />
    <glyph glyph-name="h" unicode="h" 
d="M141 0l0.000976562 1516h254v-576c17.333 18.667 38.666 37.834 63.999 57.501s54.5 37.667 87.5 54s70 29.833 111 40.5s86.167 16 135.5 16c47.333 0 90.333 -7 129 -21s71.667 -34.833 99 -62.5s48.333 -61.834 63 -102.501s22 -88 22 -142v-780h-254v717
c0 60.667 -13 105.167 -39 133.5s-67 42.5 -123 42.5c-55.333 0 -106.833 -13 -154.5 -39s-94.5 -60 -140.5 -102v-752h-254z" />
    <glyph glyph-name="i" unicode="i" horiz-adv-x="557" 
d="M152 0v1087h254v-1087h-254zM150 1276v219h258v-219h-258z" />
    <glyph glyph-name="j" unicode="j" horiz-adv-x="557" 
d="M102 -414c-12 0 -25.8311 0.501953 -41.498 1.50195s-31.167 2.16699 -46.5 3.5s-29 2.66602 -41 3.99902s-20 2.66602 -24 3.99902v176c9.33301 -2 21.666 -3.83301 36.999 -5.5s30.333 -2.5 45 -2.5c40 0 70.167 10.333 90.5 31s30.5 56 30.5 106v1183h254v-1222
c0 -37.333 -4 -73 -12 -107s-23.167 -63.667 -45.5 -89s-53.333 -45.5 -93 -60.5s-90.834 -22.5 -153.501 -22.5zM150.002 1276v219h258v-219h-258z" />
    <glyph glyph-name="k" unicode="k" horiz-adv-x="1153" 
d="M141 0v1516h252v-904l412 475h276l-354 -397l385 -690h-264l-281 504l-174 -191v-313h-252z" />
    <glyph glyph-name="l" unicode="l" horiz-adv-x="557" 
d="M152 0v1516h254v-1516h-254z" />
    <glyph glyph-name="m" unicode="m" horiz-adv-x="1892" 
d="M141 0l0.00488281 1087h252v-149c20.667 22.667 44 44.334 70 65.001s54.5 38.834 85.5 54.501s64.667 28 101 37s75.166 13.5 116.499 13.5c45.333 0 84.333 -4.33301 117 -13s60.5 -20.834 83.5 -36.501s42.167 -34.334 57.5 -56.001s28.333 -45.834 39 -72.501
c21.333 23.333 45.5 45.833 72.5 67.5s56.333 40.667 88 57s66 29.333 103 39s76.167 14.5 117.5 14.5c55.333 0 103 -8 143 -24s72.833 -38.333 98.5 -67s44.667 -63.167 57 -103.5s18.5 -84.833 18.5 -133.5v-780h-252v717c0 30 -2.33301 56.167 -7 78.5
s-12.834 40.666 -24.501 54.999s-27.334 25 -47.001 32s-44.5 10.5 -74.5 10.5c-51.333 0 -99 -13 -143 -39s-89.333 -60 -136 -102v-752h-252v717c0 30 -2.33301 56.167 -7 78.5s-12.834 40.666 -24.501 54.999s-27.334 25 -47.001 32s-44.5 10.5 -74.5 10.5
c-25.333 0 -49.666 -3.33301 -72.999 -10s-46.333 -16.334 -69 -29.001s-45.334 -27.667 -68.001 -45s-45.667 -36.333 -69 -57v-752h-252z" />
    <glyph glyph-name="n" unicode="n" 
d="M143 0l0.000976562 1087h252v-174c20.667 24 44 47.5 70 70.5s55.167 43.833 87.5 62.5s67.666 33.667 105.999 45s80.166 17 125.499 17c50 0 94.833 -6.5 134.5 -19.5s73.334 -32.5 101.001 -58.5s49 -58.833 64 -98.5s22.5 -86.5 22.5 -140.5v-791h-252v719
c0 60 -12.833 105 -38.5 135s-67.5 45 -125.5 45c-55.333 0 -106.833 -12.667 -154.5 -38s-94.5 -59.666 -140.5 -102.999v-758h-252z" />
    <glyph glyph-name="o" unicode="o" horiz-adv-x="1221" 
d="M610 -23c-66 0 -130.669 10.835 -194.002 32.502s-120 55.5 -170 101.5s-90.167 104.667 -120.5 176s-45.5 156.666 -45.5 255.999c0 100 15.167 185.833 45.5 257.5s70.333 130.167 120 175.5s106.167 78.666 169.5 99.999s128.333 32 195 32
c66 0 130.833 -10.667 194.5 -32s120.334 -54.666 170.001 -99.999s89.834 -103.833 120.501 -175.5s46 -157.5 46 -257.5c0 -66 -7 -126 -21 -180s-33.333 -102 -58 -144s-53.834 -78.167 -87.501 -108.5s-70.167 -55.333 -109.5 -75s-80.666 -34.334 -123.999 -44.001
s-87 -14.5 -131 -14.5zM609.998 188.002c91.333 0 160.332 31.165 206.999 93.498s70 149.5 70 261.5c0 50.667 -5.5 97.334 -16.5 140.001s-27.833 79.5 -50.5 110.5s-51.334 55.333 -86.001 73s-76 26.5 -124 26.5c-45.333 0 -85.333 -8 -120 -24s-63.5 -39 -86.5 -69
s-40.333 -66.667 -52 -110s-17.5 -92.333 -17.5 -147c0 -52 5.33301 -99.667 16 -143s27.334 -80.666 50.001 -111.999s51.334 -55.833 86.001 -73.5s76 -26.5 124 -26.5z" />
    <glyph glyph-name="p" unicode="p" horiz-adv-x="1251" 
d="M141 -410l0.000976562 1497h252v-143c18 21.333 38.667 42 62 62s49.333 37.5 78 52.5s60.167 27 94.5 36s71.5 13.5 111.5 13.5c62 0 119.333 -11.667 172 -35s98 -58.333 136 -105s67.833 -105.334 89.5 -176.001s32.5 -153 32.5 -247s-11.167 -176.167 -33.5 -246.5
s-53.833 -128.833 -94.5 -175.5s-89.5 -81.5 -146.5 -104.5s-120.167 -34.5 -189.5 -34.5c-58.667 0 -115.334 11.5 -170.001 34.5s-102 57.167 -142 102.5v-531h-252zM649.001 184.001c95.333 0 164 29.501 206 88.501s63 149.167 63 270.5
c0 115.333 -23.167 202.5 -69.5 261.5s-110.166 88.5 -191.499 88.5c-26 0 -51.5 -3.83301 -76.5 -11.5s-49 -17.834 -72 -30.501s-44.333 -27.167 -64 -43.5s-36.834 -33.5 -51.501 -51.5v-437c34 -44 73.833 -77.5 119.5 -100.5s91.167 -34.5 136.5 -34.5z" />
    <glyph glyph-name="q" unicode="q" horiz-adv-x="1251" 
d="M858 -410l0.000976562 557.001c-20 -23.333 -41.667 -44.833 -65 -64.5s-49 -36.834 -77 -51.501s-58.833 -26.167 -92.5 -34.5s-70.834 -12.5 -111.501 -12.5c-62 0 -119.333 11.333 -172 34s-98 57 -136 103s-67.833 104 -89.5 174s-32.5 152 -32.5 246
s11.167 176.5 33.5 247.5s53.833 130.167 94.5 177.5s89.5 82.833 146.5 106.5s120.5 35.5 190.5 35.5c58.667 0 115.167 -11.5 169.5 -34.5s101.5 -57.167 141.5 -102.5v116h252v-1497h-252zM594.001 190.001c26 0 51.665 3.8291 76.998 11.4961s49.333 17.834 72 30.501
s43.834 27.334 63.501 44.001s36.834 34 51.501 52v436c-34 44 -73.833 77.5 -119.5 100.5s-91.167 34.5 -136.5 34.5c-47.333 0 -88 -7.66699 -122 -23s-61.833 -38.166 -83.5 -68.499s-37.5 -68.333 -47.5 -114s-15 -98.5 -15 -158.5c0 -115.333 23 -201.666 69 -258.999
s109.667 -86 191 -86z" />
    <glyph glyph-name="r" unicode="r" horiz-adv-x="844" 
d="M141 0l-0.00390625 1087h252v-178h4c16.667 27.333 36.834 53 60.501 77s51.334 45 83.001 63s68 32.333 109 43s87.167 16 138.5 16h17l-8 -231c-3.33301 0.666992 -8 1.16699 -14 1.5s-12.5 0.666016 -19.5 0.999023s-13.667 0.666016 -20 0.999023
s-11.166 0.5 -14.499 0.5c-40.667 0 -77.667 -4.5 -111 -13.5s-63.666 -22 -90.999 -39s-52 -37.333 -74 -61s-42 -50.167 -60 -79.5v-688h-252z" />
    <glyph glyph-name="s" unicode="s" horiz-adv-x="1071" 
d="M539 -23c-50 0 -98.5029 4.33496 -145.503 13.002s-91.167 20.667 -132.5 36s-79.166 33.5 -113.499 54.5s-63.833 44.167 -88.5 69.5l138 153c20.667 -17.333 43.5 -33.833 68.5 -49.5s52 -29.334 81 -41.001s59.5 -21 91.5 -28s65.667 -10.5 101 -10.5
c67.333 0 120.333 9.5 159 28.5s58 51.167 58 96.5c0 22 -6.5 40.5 -19.5 55.5s-30.5 27.833 -52.5 38.5s-47.667 20 -77 28s-60.333 15.667 -93 23l-95 23c-32 8 -63.333 17.833 -94 29.5s-59.334 25.5 -86.001 41.5s-50 35.5 -70 58.5s-35.833 50.167 -47.5 81.5
s-17.5 68 -17.5 110c0 48 9.83301 91.667 29.5 131s47.167 73 82.5 101s77.833 49.667 127.5 65s104.5 23 164.5 23c52 0 99.167 -3.5 141.5 -10.5s81.333 -17.167 117 -30.5s68.834 -29.5 99.501 -48.5s60 -40.5 88 -64.5l-120 -163c-20 16 -42.667 31.167 -68 45.5
s-51.666 26.833 -78.999 37.5s-54.833 19.167 -82.5 25.5s-53.834 9.5 -78.501 9.5c-34.667 0 -63.834 -2.83301 -87.501 -8.5s-42.667 -13.5 -57 -23.5s-24.5 -21.667 -30.5 -35s-9 -27.666 -9 -42.999c0 -22 6.33301 -40.5 19 -55.5s29.834 -27.833 51.501 -38.5
s47 -19.834 76 -27.501s59.5 -15.167 91.5 -22.5c30.667 -6.66699 62.334 -14 95.001 -22s64.334 -17.5 95.001 -28.5s59.5 -24.5 86.5 -40.5s50.667 -35.5 71 -58.5s36.333 -50.333 48 -82s17.5 -68.5 17.5 -110.5c0 -57.333 -12 -107 -36 -149s-56.667 -76.833 -98 -104.5
s-89.5 -48.334 -144.5 -62.001s-113.5 -20.5 -175.5 -20.5z" />
    <glyph glyph-name="t" unicode="t" horiz-adv-x="825" 
d="M563 -14c-69.333 0 -125.668 6.33301 -169.001 19s-77.5 31.5 -102.5 56.5s-42 56.167 -51 93.5s-13.5 80.666 -13.5 129.999v602h-188v200h188v379h252v-379h281v-200h-281v-539c0 -29.333 2.5 -54.333 7.5 -75s13.5 -37.667 25.5 -51s28.333 -23 49 -29
s46.667 -9 78 -9c18.667 0 38.334 1.33301 59.001 4s37.334 6.33398 50.001 11.001v-199c-6.66699 -1.33301 -17 -2.83301 -31 -4.5s-29.833 -3.16699 -47.5 -4.5s-35.834 -2.5 -54.501 -3.5s-36 -1.5 -52 -1.5z" />
    <glyph glyph-name="u" unicode="u" 
d="M442 -20c-47.333 0 -90.334 7.00098 -129.001 21.001s-71.667 34.667 -99 62s-48.333 61.333 -63 102s-22 88 -22 142v780h254v-720c0 -60.667 13 -105.334 39 -134.001s67 -43 123 -43c55.333 0 106.833 13.167 154.5 39.5s94.5 60.5 140.5 102.5v755h254v-1087h-254
v147c-17.333 -18 -38.666 -36.833 -63.999 -56.5s-54.5 -37.667 -87.5 -54s-70 -29.833 -111 -40.5s-86.167 -16 -135.5 -16z" />
    <glyph glyph-name="v" unicode="v" horiz-adv-x="1079" 
d="M412 -2l-394 1089h265l266 -802h4l264 802h244l-393 -1089h-256z" />
    <glyph glyph-name="w" unicode="w" horiz-adv-x="1563" 
d="M348 0l-323 1087h256l118 -450l22.5 -86.5l20.5 -80.5c6.66699 -26.667 13 -54.5 19 -83.5l20 -95.5h4l22.5 99l20 84c6.33301 26.667 13 53.334 20 80.001l23.5 87l115 446h205l121 -454c8.66699 -30 16.5 -58.333 23.5 -85l20 -79.5l19 -82.5l21.5 -95h4l22 95.5
l20 81.5l20.5 77.5l23.5 83.5l123 458h229l-324 -1087h-235l-197 756h-4l-196 -756h-234z" />
    <glyph glyph-name="x" unicode="x" horiz-adv-x="1092" 
d="M39 0l379 561l-352 526h268l227 -348l219 348h260l-356 -526l377 -561h-268l-250 381l-246 -381h-258z" />
    <glyph glyph-name="y" unicode="y" horiz-adv-x="1120" 
d="M256 -422c-64.667 0 -117.164 3.66797 -157.497 11.001s-73.833 14.666 -100.5 21.999l57 203c15.333 -4.66699 39 -9.66699 71 -15s70 -8 114 -8c44.667 0 80.167 9.5 106.5 28.5s48.166 50.5 65.499 94.5l30 80l-417 1093h262l280 -792h4l279 792h250l-463 -1206
c-18 -47.333 -37.833 -89.833 -59.5 -127.5s-47.334 -69.5 -77.001 -95.5s-64.334 -45.833 -104.001 -59.5s-86.5 -20.5 -140.5 -20.5z" />
    <glyph glyph-name="z" unicode="z" horiz-adv-x="1065" 
d="M70 0v145l579 742h-536v200h852v-151l-582 -741h616v-195h-929z" />
    <glyph glyph-name="braceleft" unicode="{" horiz-adv-x="852" 
d="M567 -410c-47.333 0 -88.5 6.83203 -123.5 20.499s-64 33.334 -87 59.001s-40.333 56.5 -52 92.5s-17.5 76.333 -17.5 121v334c0 50 -4.66699 91 -14 123s-23.5 57.167 -42.5 75.5s-42.667 30.833 -71 37.5s-61.833 10 -100.5 10v180c38.667 0 72.167 3.33301 100.5 10
s52 19.167 71 37.5s33.167 43.5 42.5 75.5s14 73 14 123v334c0 44.667 5.83301 85 17.5 121s29 66.667 52 92s52 45 87 59s76.167 21 123.5 21h224v-181h-91c-55.333 0 -95.666 -13.5 -120.999 -40.5s-38 -66.5 -38 -118.5v-316c0 -50 -3.83301 -92.333 -11.5 -127
s-19 -63.667 -34 -87s-33.333 -42 -55 -56s-46.167 -25.667 -73.5 -35v-4c27.333 -9.33301 51.833 -21 73.5 -35s40 -32.667 55 -56s26.333 -52.333 34 -87s11.5 -77 11.5 -127v-316c0 -52 12.667 -91.5 38 -118.5s65.666 -40.5 120.999 -40.5h91v-181h-224z" />
    <glyph glyph-name="bar" unicode="|" horiz-adv-x="772" 
d="M262 -410v1926h248v-1926h-248z" />
    <glyph glyph-name="braceright" unicode="}" horiz-adv-x="852" 
d="M61 -410l0.000976562 180.998h91c55.333 0 95.666 13.5 120.999 40.5s38 66.5 38 118.5v336c0 50 3.83301 91.333 11.5 124s19 59.334 34 80.001s33.333 37 55 49s46.167 22.667 73.5 32v4c-27.333 9.33301 -51.833 20 -73.5 32s-40 28.333 -55 49
s-26.333 47.334 -34 80.001s-11.5 74 -11.5 124v336c0 52 -12 92.167 -36 120.5s-63.667 42.5 -119 42.5h-90l-5 177h244c47.333 0 87.5 -5.83301 120.5 -17.5s59.833 -29 80.5 -52s35.667 -51.5 45 -85.5s14 -73.333 14 -118v-354c0 -50 4.66699 -91 14 -123
s23.5 -57.167 42.5 -75.5s42.667 -30.833 71 -37.5s61.833 -10 100.5 -10v-180c-38.667 0 -72.167 -3.33301 -100.5 -10s-52 -19.167 -71 -37.5s-33.167 -43.5 -42.5 -75.5s-14 -73 -14 -123v-354c0 -44.667 -4.66699 -84 -14 -118s-24.333 -62.5 -45 -85.5
s-47.5 -40.333 -80.5 -52s-73.167 -17.5 -120.5 -17.5h-244z" />
    <glyph glyph-name="asciitilde" unicode="~" horiz-adv-x="1315" 
d="M934 537c-26.667 0.666992 -56.499 4.49902 -89.499 11.499s-67.167 15.5 -102.5 25.5s-71 20.833 -107 32.5l-102 32.5c-32 10 -61.167 18.5 -87.5 25.5s-47.833 10.833 -64.5 11.5c-26.667 2 -48.667 -3.5 -66 -16.5s-28 -38.167 -32 -75.5l-154 22
c6 49.333 16.167 91.333 30.5 126s32.333 63 54 85s46.667 37.667 75 47s59.166 13.666 92.499 12.999c27.333 -0.666992 57.833 -4.66699 91.5 -12s68.167 -16.166 103.5 -26.499s70.666 -21.333 105.999 -33l101 -33c32 -10.333 61 -19 87 -26s47.333 -10.833 64 -11.5
c13.333 -0.666992 25.666 0.333008 36.999 3s21.333 7.66699 30 15s15.834 17.333 21.501 30s9.5 28.667 11.5 48l152 -18c-6 -50 -16.167 -92.667 -30.5 -128s-32.333 -64.166 -54 -86.499s-46.667 -38.5 -75 -48.5s-59.166 -14.333 -92.499 -13z" />
    <glyph glyph-name="exclamdown" unicode="&#xa1;" horiz-adv-x="694" 
d="M184 0l68 1063h180l68 -1063h-316zM201 1260v256h282v-256h-282z" />
    <glyph glyph-name="cent" unicode="&#xa2;" horiz-adv-x="1124" 
d="M348 35c-38 20.667 -73.3359 46.502 -106.003 77.502s-61 67.5 -85 109.5s-42.833 89.667 -56.5 143s-20.5 112.666 -20.5 177.999c0 67.333 7.33301 128.166 22 182.499s34.5 102.333 59.5 144s54.5 77.5 88.5 107.5s70.333 54.833 109 74.5s78.667 34 120 43
s82.333 13.5 123 13.5h27.5c9 0 17.5 -0.666992 25.5 -2l58 201h139l-66 -228c36.667 -12.667 69 -29.167 97 -49.5s52.833 -43 74.5 -68s40.667 -52 57 -81s30.5 -58.833 42.5 -89.5l-203 -76c-15.333 44 -34.166 79.167 -56.499 105.5s-47.833 45.833 -76.5 58.5
l-197 -693c10.667 -3.33301 21.834 -5.5 33.501 -6.5s23.834 -1.5 36.501 -1.5c28 0 54.833 3 80.5 9s49.667 16.333 72 31s43.166 34.5 62.499 59.5s37 56.833 53 95.5l199 -76c-19.333 -43.333 -42.666 -84.5 -69.999 -123.5s-60 -73 -98 -102s-82.167 -52 -132.5 -69
s-107.833 -25.5 -172.5 -25.5c-19.333 0 -38.5 1.16699 -57.5 3.5s-38.167 5.5 -57.5 9.5l-72 -254h-141zM601.997 901.002h-3.99805c-36 0 -70.833 -6 -104.5 -18s-63.834 -32 -90.501 -60s-48 -64.833 -64 -110.5s-24 -102.167 -24 -169.5
c0 -72.667 8.66699 -133.5 26 -182.5s41.666 -88.5 72.999 -118.5z" />
    <glyph glyph-name="sterling" unicode="&#xa3;" horiz-adv-x="1346" 
d="M182 690l-0.000976562 167.997h185c-25.333 43.333 -46.333 87.5 -63 132.5s-25 94.5 -25 148.5c0 58 10 111.667 30 161s48.667 92 86 128s82.666 64.333 135.999 85s113.333 31 180 31c80.667 0 148.5 -11.333 203.5 -34s100 -52.5 135 -89.5s61.667 -79.167 80 -126.5
s31.5 -95.666 39.5 -144.999l-227 -43c-4 32 -10.667 61.833 -20 89.5s-22.833 51.667 -40.5 72s-39.834 36.333 -66.501 48s-59.334 17.5 -98.001 17.5c-32 0 -60 -4.83301 -84 -14.5s-44 -23 -60 -40s-28.167 -37.333 -36.5 -61s-12.5 -49.167 -12.5 -76.5
c0 -25.333 3 -49.833 9 -73.5s13.833 -47 23.5 -70s20.834 -46 33.501 -69l39 -70.5h358v-168h-278c13.333 -34 23.833 -69.667 31.5 -107s11.5 -78.666 11.5 -123.999c0 -39.333 -3.5 -76.666 -10.5 -111.999s-17.167 -69 -30.5 -101
c30.667 -19.333 61.667 -35.833 93 -49.5s64.333 -20.5 99 -20.5c33.333 0 61 4 83 12s39.667 20.833 53 38.5s23 40.834 29 69.501s9.66699 63.667 11 105h224c0 -57.333 -5.83301 -112 -17.5 -164s-31.334 -97.667 -59.001 -137s-64.667 -70.666 -111 -93.999
s-104.166 -35 -173.499 -35c-35.333 0 -68.5 3.33301 -99.5 10s-60.167 15.834 -87.5 27.501s-53 25 -77 40s-46.667 30.833 -68 47.5c-39.333 -39.333 -85.166 -70 -137.499 -92s-111.5 -33 -177.5 -33c-30.667 0 -61.167 4.5 -91.5 13.5s-57.5 22.667 -81.5 41
s-43.5 41.666 -58.5 69.999s-22.5 62.166 -22.5 101.499c0 40 6.66699 75.5 20 106.5s32 57.333 56 79s52.333 38.167 85 49.5s68.334 17 107.001 17c42 0 80.833 -7.16699 116.5 -21.5s70.5 -31.833 104.5 -52.5c1.33301 10 2 20.167 2 30.5v32.5
c0 47.333 -6.66699 91.666 -20 132.999s-29.666 81 -48.999 119h-281zM478.999 208.997c-28.667 24.667 -56.5 45.5 -83.5 62.5s-55.167 25.5 -84.5 25.5c-32 0 -57 -8.66699 -75 -26s-27 -40 -27 -68c0 -26.667 9.16699 -48.667 27.5 -66s42.5 -26 72.5 -26
c38 0 71.167 8.5 99.5 25.5s51.833 41.167 70.5 72.5z" />
    <glyph glyph-name="currency" unicode="&#xa4;" horiz-adv-x="1152" 
d="M1056 392l-116.001 -107.997l-200 216c-48 -32 -104 -48 -168 -48c-61.333 0 -116 16 -164 48l-200 -216l-116 108l208 216c-18.667 26.667 -31.334 52.667 -38.001 78s-10 56.666 -10 93.999c0 32 3.33301 62 10 90s19.334 55.333 38.001 82l-208 216l116 108l200 -216
c48 32 102.667 48 164 48c64 0 120 -16 168 -48l204 216l116 -120l-208 -204c18.667 -26.667 31.334 -53.334 38.001 -80.001s10 -57.334 10 -92.001c0 -64 -17.333 -121.333 -52 -172zM747.999 780.003c0 53.333 -16.667 96.666 -50 129.999s-75.333 50 -126 50
s-92 -16.667 -124 -50s-48 -76.666 -48 -129.999s16.667 -96 50 -128s74 -48 122 -48c53.333 0 96 16 128 48s48 74.667 48 128z" />
    <glyph glyph-name="yen" unicode="&#xa5;" horiz-adv-x="1343" 
d="M543 0v199h-377v170h377v143h-377v170h371l-498 834h268l367 -625l366 625h265l-502 -834h377v-170h-381v-143h381v-170h-381v-199h-256z" />
    <glyph glyph-name="brokenbar" unicode="&#xa6;" horiz-adv-x="772" 
d="M262 678v838h248v-838h-248zM262 -410v838h248v-838h-248z" />
    <glyph glyph-name="section" unicode="&#xa7;" horiz-adv-x="1149" 
d="M573 -410c-73.333 0 -135.497 8.3291 -186.497 24.9961s-93.333 38.667 -127 66s-60.167 58.5 -79.5 93.5s-34.333 71.167 -45 108.5l189 78c8.66699 -28.667 19.5 -54.334 32.5 -77.001s28.833 -41.667 47.5 -57s41 -27.166 67 -35.499s56.667 -12.5 92 -12.5
c33.333 0 61.166 3.66699 83.499 11s40.166 17.333 53.499 30s22.833 27.667 28.5 45s8.5 35.666 8.5 54.999c0 22.667 -5 43.834 -15 63.501s-25.5 39.5 -46.5 59.5s-47.5 40.333 -79.5 61s-69.667 43.334 -113 68.001l-151 91.5c-46 29 -85.5 59.667 -118.5 92
s-58.667 67.5 -77 105.5s-27.5 81.667 -27.5 131c0 39.333 6.66699 75.666 20 108.999s30.666 63.5 51.999 90.5s45.333 51 72 72s53 39.167 79 54.5c-30 22.667 -55.167 45 -75.5 67s-37 44.167 -50 66.5s-22.333 45.833 -28 70.5s-8.5 51.334 -8.5 80.001
c0 45.333 9.16699 88.666 27.5 129.999s44.666 77.666 78.999 108.999s76.666 56.333 126.999 75s107.5 28 171.5 28c74.667 0 138 -8.16699 190 -24.5s95.167 -38.166 129.5 -65.499s61.5 -58.666 81.5 -93.999s35.333 -71.666 46 -108.999l-199 -84
c-9.33301 28.667 -21.5 55 -36.5 79s-32.5 44.5 -52.5 61.5s-42.5 30.333 -67.5 40s-51.833 14.5 -80.5 14.5c-33.333 0 -61.666 -4 -84.999 -12s-42.5 -18.833 -57.5 -32.5s-25.833 -29.5 -32.5 -47.5s-10 -36.667 -10 -56c0 -22.667 5.5 -43.834 16.5 -63.501
s27.5 -39.334 49.5 -59.001s49.333 -39.834 82 -60.501s71 -43.334 115 -68.001c56 -31.333 106.833 -61.666 152.5 -90.999s85 -60.166 118 -92.499s58.5 -67.666 76.5 -105.999s27 -81.833 27 -130.5c0 -39.333 -6.66699 -75.833 -20 -109.5s-30.5 -64.167 -51.5 -91.5
s-44.667 -51.666 -71 -72.999s-52.5 -39.333 -78.5 -54c29.333 -23.333 53.666 -45.833 72.999 -67.5s34.833 -43.667 46.5 -66s20 -45.833 25 -70.5s7.5 -51 7.5 -79c0 -45.333 -8.66699 -88.666 -26 -129.999s-42.666 -77.666 -75.999 -108.999
s-74.666 -56.333 -123.999 -75s-106 -28 -170 -28zM680.003 308.996c47.333 24.667 83.667 52.6689 109 84.002s38 65.666 38 102.999c0 26.667 -4 50.334 -12 71.001s-22.833 41.667 -44.5 63s-51.667 44.666 -90 69.999s-87.833 55.666 -148.5 90.999l-65 34
c-44 -23.333 -79.167 -50.833 -105.5 -82.5s-39.5 -66.167 -39.5 -103.5c0 -26.667 4 -50.5 12 -71.5s22.833 -42.167 44.5 -63.5s51.667 -44.5 90 -69.5s87.5 -55.167 147.5 -90.5l33.5 -18z" />
    <glyph glyph-name="dieresis" unicode="&#xa8;" horiz-adv-x="1065" 
d="M213 1444h229v-248h-229v248zM618 1444h230v-248h-230v248z" />
    <glyph glyph-name="copyright" unicode="&#xa9;" horiz-adv-x="1772" 
d="M885 -29c-74 0 -144.668 9.17188 -212.001 27.5049s-130 44.333 -188 78s-110.5 74.167 -157.5 121.5s-87.333 100.166 -121 158.499s-59.5 121.166 -77.5 188.499s-27 137.666 -27 210.999s9.16699 143.666 27.5 210.999s44.333 130.166 78 188.499
s74.334 111.5 122.001 159.5s100.667 88.833 159 122.5s121.166 59.834 188.499 78.501s138 28 212 28c110 0 212.5 -20.167 307.5 -60.5s177.5 -95.833 247.5 -166.5s125 -153.667 165 -249s60 -198 60 -308c0 -73.333 -9.16699 -143.833 -27.5 -211.5
s-44.333 -130.667 -78 -189s-74.167 -111.5 -121.5 -159.5s-100 -88.833 -158 -122.5s-120.667 -59.834 -188 -78.501s-137.666 -28 -210.999 -28zM888.999 90.0049c92.667 0 178.672 17.168 258.005 51.501s148.166 81.333 206.499 141s104 130 137 211
s49.5 168.5 49.5 262.5c0 93.333 -16.833 180.666 -50.5 261.999s-79.834 152.166 -138.501 212.499s-127.834 107.833 -207.501 142.5s-165.834 52 -258.501 52c-93.333 0 -179.833 -17 -259.5 -51s-148.834 -80.833 -207.501 -140.5s-104.5 -130 -137.5 -211
s-49.5 -168.5 -49.5 -262.5s16.833 -181.667 50.5 -263s80 -152.166 139 -212.499s128.5 -107.833 208.5 -142.5s166.667 -52 260 -52zM881.004 317.006c-54 0 -103.333 10.166 -148 30.499s-83 49.833 -115 88.5s-56.667 85.834 -74 141.501s-26 118.5 -26 188.5
c0 68 8.5 129.333 25.5 184s41.333 101.334 73 140.001s70.167 68.334 115.5 89.001s96.333 31 153 31c46.667 0 88.167 -6.33301 124.5 -19s68.166 -30.834 95.499 -54.501s50 -52.334 68 -86.001s31.667 -71.167 41 -112.5l-147 -39c-15.333 54.667 -36.5 97 -63.5 127
s-65.833 45 -116.5 45c-32 0 -60.667 -7.33301 -86 -22s-46.833 -35.167 -64.5 -61.5s-31.167 -58.333 -40.5 -96s-14 -79.5 -14 -125.5c0 -48 4.66699 -90.833 14 -128.5s22.666 -69.5 39.999 -95.5s38.833 -46 64.5 -60s54.5 -21 86.5 -21c50 0 89.833 15.167 119.5 45.5
s51.834 76.5 66.501 138.5l74 -20l27.5 -7.5c9 -2.33301 17.167 -4.33301 24.5 -6l18 -4c4.66699 -1 7.33398 -1.5 8.00098 -1.5c-12 -44 -27.5 -83.833 -46.5 -119.5s-42.5 -66 -70.5 -91s-60.667 -44.333 -98 -58s-80.333 -20.5 -129 -20.5z" />
    <glyph glyph-name="ordfeminine" unicode="&#xaa;" horiz-adv-x="889" 
d="M311 745c-32 0 -61.501 4.33789 -88.501 13.0049s-50.333 21.334 -70 38.001s-35 37.167 -46 61.5s-16.5 52.5 -16.5 84.5c0 41.333 9.16699 79.166 27.5 113.499s47.5 64.666 87.5 90.999s91.333 48.666 154 66.999s138.334 32.166 227.001 41.499v25
c0 36 -9.5 63.833 -28.5 83.5s-49.167 29.5 -90.5 29.5c-52.667 0 -99.834 -9.16699 -141.501 -27.5s-81.167 -43.5 -118.5 -75.5l-88 105c20.667 20 43.5 38.667 68.5 56s52.5 32.166 82.5 44.499s63.333 22.166 100 29.499s77.334 11 122.001 11
c96 0 166 -23.833 210 -71.5s66 -115.834 66 -204.501v-312c0 -45.333 1.83301 -82.666 5.5 -111.999s10.167 -54.666 19.5 -75.999h-189c-10 33.333 -16 68.666 -18 105.999c-38 -38 -79.333 -67.667 -124 -89s-95 -32 -151 -32zM374.999 889.005
c45.333 0 84.999 8.5 118.999 25.5s64.667 37.833 92 62.5v172c-61.333 -8 -112.166 -17.667 -152.499 -29s-72.5 -24.5 -96.5 -39.5s-40.833 -31.333 -50.5 -49s-14.5 -36.5 -14.5 -56.5c0 -28.667 9.33301 -50.167 28 -64.5s43.667 -21.5 75 -21.5z" />
    <glyph glyph-name="guillemotleft" unicode="&#xab;" horiz-adv-x="1204" 
d="M391 0l-325 545l325 542h246l-313 -542l313 -545h-246zM874 0l-327 545l327 542h244l-315 -542l315 -545h-244z" />
    <glyph glyph-name="logicalnot" unicode="&#xac;" horiz-adv-x="1536" 
d="M1116 352v376h-904v192h1084v-568h-180z" />
    <glyph glyph-name="registered" unicode="&#xae;" horiz-adv-x="1098" 
d="M549 598c-66.667 0 -128.836 12.1641 -186.503 36.4971s-107.667 57.833 -150 100.5s-75.666 92.834 -99.999 150.501s-36.5 120.167 -36.5 187.5c0 66.667 12.333 128.834 37 186.501s58.334 107.834 101.001 150.501s92.834 76.334 150.501 101.001
s119.834 37 186.501 37s128.667 -12.167 186 -36.5s107.166 -57.833 149.499 -100.5s75.5 -92.667 99.5 -150s36 -119.333 36 -186c0 -67.333 -12.167 -130 -36.5 -188s-57.833 -108.333 -100.5 -151s-92.667 -76.334 -150 -101.001s-119.333 -37 -186 -37zM550.998 675.997
c55.333 0 106.666 10.167 153.999 30.5s88.5 48.166 123.5 83.499s62.333 77.333 82 126s29.5 101 29.5 157s-10 108.167 -30 156.5s-47.5 90.333 -82.5 126s-76.333 63.667 -124 84s-99.167 30.5 -154.5 30.5s-106.666 -10.167 -153.999 -30.5
s-88.5 -48.166 -123.5 -83.499s-62.333 -77 -82 -125s-29.5 -100 -29.5 -156s10 -108.333 30 -157s47.5 -91 82.5 -127s76.333 -64.167 124 -84.5s99.167 -30.5 154.5 -30.5zM366.998 1343l194 -0.000976562c62 0 110 -13.167 144 -39.5s51 -66.166 51 -119.499
c0 -42 -9.33301 -74.5 -28 -97.5s-43.667 -39.833 -75 -50.5l113 -213h-109l-104 199h-82v-199h-104v520zM554.998 1102c32 0 56.333 5.66699 73 17s25 31 25 59c0 25.333 -8.5 43.833 -25.5 55.5s-41.833 17.5 -74.5 17.5h-82v-149h84z" />
    <glyph glyph-name="macron" unicode="&#xaf;" horiz-adv-x="1024" 
d="M193 1382h638v-186h-638v186z" />
    <glyph glyph-name="macron" unicode="&#x304;" horiz-adv-x="1024" 
d="M193 1382h638v-186h-638v186z" />
    <glyph glyph-name="degree" unicode="&#xb0;" horiz-adv-x="840" 
d="M420 920c-45.333 0 -87.166 7.83301 -125.499 23.5s-71.666 37.167 -99.999 64.5s-50.5 60 -66.5 98s-24 79.667 -24 125c0 44.667 8 86.167 24 124.5s38.167 71.166 66.5 98.499s61.666 48.833 99.999 64.5s80.166 23.5 125.499 23.5
c44.667 0 86.334 -7.66699 125.001 -23s72 -36.666 100 -63.999s50 -60 66 -98s24 -79.333 24 -124c0 -45.333 -8 -87 -24 -125s-38 -71 -66 -99s-61.333 -49.833 -100 -65.5s-80.334 -23.5 -125.001 -23.5zM420 1051c24.667 0 47.167 4.33301 67.5 13s38 20.834 53 36.501
s26.667 34.5 35 56.5s12.5 46.667 12.5 74c0 26.667 -4.16699 51.167 -12.5 73.5s-20 41.333 -35 57s-32.667 27.834 -53 36.501s-42.833 13 -67.5 13s-47.167 -4.33301 -67.5 -13s-38 -20.834 -53 -36.501s-26.667 -34.667 -35 -57s-12.5 -46.833 -12.5 -73.5
c0 -27.333 4.16699 -52 12.5 -74s20 -40.833 35 -56.5s32.667 -27.834 53 -36.501s42.833 -13 67.5 -13z" />
    <glyph glyph-name="plusminus" unicode="&#xb1;" horiz-adv-x="1315" 
d="M137 250h420v381h-420v198h420v433h203v-433h420v-198h-420v-381h420v-191h-1043v191z" />
    <glyph glyph-name="two.sups" unicode="&#xb2;" horiz-adv-x="952" 
d="M125 602c0 34.667 3.50098 69.3301 10.501 103.997s21 69.667 42 105s51 71.5 90 108.5s90.5 75.167 154.5 114.5c36 22 66 41.333 90 58s43.167 32.667 57.5 48s24.666 31.333 30.999 48s9.5 35.667 9.5 57c0 36 -10.5 64.5 -31.5 85.5s-52.167 31.5 -93.5 31.5
c-37.333 0 -74.333 -12.167 -111 -36.5s-70 -64.166 -100 -119.499l-145 99c44 76.667 95.167 134.334 153.5 173.001s128.166 58 209.499 58c52 0 97.833 -6.83301 137.5 -20.5s73 -33.167 100 -58.5s47.333 -55.666 61 -90.999s20.5 -74.333 20.5 -117
c0 -29.333 -3.83301 -57.666 -11.5 -84.999s-20.834 -54.333 -39.501 -81s-44 -53.334 -76 -80.001s-72.333 -53.667 -121 -81c-67.333 -40 -116.166 -76.333 -146.499 -109s-49.166 -62.667 -56.499 -90h455v-170h-690v49z" />
    <glyph glyph-name="three.sups" unicode="&#xb3;" horiz-adv-x="952" 
d="M471 537c-78.667 0 -150.167 16.833 -214.5 50.5s-117.166 82.834 -158.499 147.501l129 109c18 -26 36.5 -47.833 55.5 -65.5s38.333 -31.834 58 -42.501s39.167 -18.167 58.5 -22.5s38.666 -6.5 57.999 -6.5c56.667 0 98.5 12.667 125.5 38s40.5 57.666 40.5 96.999
c0 48.667 -17.167 85 -51.5 109s-91.833 36 -172.5 36h-69v148h73c37.333 0 68.833 2.66699 94.5 8s46.334 13.166 62.001 23.499s27 23 34 38s10.5 32.5 10.5 52.5c0 31.333 -10.667 57 -32 77s-55 30 -101 30c-35.333 0 -71.333 -8.33301 -108 -25s-73.667 -44 -111 -82
l-117 123c49.333 52 103.666 91 162.999 117s122.333 39 189 39c54 0 101 -6.5 141 -19.5s73.5 -31 100.5 -54s47.167 -50.167 60.5 -81.5s20 -65.666 20 -102.999c0 -46 -12 -88 -36 -126s-62.667 -65.667 -116 -83c63.333 -19.333 109 -49.166 137 -89.499
s42 -87.5 42 -141.5c0 -47.333 -8.66699 -89.666 -26 -126.999s-41.833 -68.833 -73.5 -94.5s-70 -45.334 -115 -59.001s-95.167 -20.5 -150.5 -20.5z" />
    <glyph glyph-name="acute" unicode="&#xb4;" horiz-adv-x="1024" 
d="M514 1542h270l-297 -340h-165z" />
    <glyph glyph-name="mu" unicode="&#xb5;" horiz-adv-x="1245" 
d="M141 -410v1497.01h252v-718c0 -60.667 12.833 -106.334 38.5 -137.001s67.5 -46 125.5 -46c28 0 54.667 3.5 80 10.5s50 16.667 74 29s47.667 27.166 71 44.499s46.666 36.666 69.999 57.999v759h252v-1087h-252v172c-19.333 -20.667 -40 -40.834 -62 -60.501
s-46 -37.5 -72 -53.5s-53.667 -29.833 -83 -41.5s-60.666 -19.834 -93.999 -24.501c-30 -2 -57.333 -0.833008 -82 3.5s-46.667 14.166 -66 29.499v-435h-252z" />
    <glyph glyph-name="mu" unicode="&#x3bc;" horiz-adv-x="1245" 
d="M141 -410v1497.01h252v-718c0 -60.667 12.833 -106.334 38.5 -137.001s67.5 -46 125.5 -46c28 0 54.667 3.5 80 10.5s50 16.667 74 29s47.667 27.166 71 44.499s46.666 36.666 69.999 57.999v759h252v-1087h-252v172c-19.333 -20.667 -40 -40.834 -62 -60.501
s-46 -37.5 -72 -53.5s-53.667 -29.833 -83 -41.5s-60.666 -19.834 -93.999 -24.501c-30 -2 -57.333 -0.833008 -82 3.5s-46.667 14.166 -66 29.499v-435h-252z" />
    <glyph glyph-name="paragraph" unicode="&#xb6;" horiz-adv-x="1290" 
d="M602 -410l-0.000976562 1072c-161.333 3.33301 -284.666 40.666 -369.999 111.999s-128 175 -128 311c0 60.667 10.167 117.167 30.5 169.5s50.333 97.833 90 136.5s88.667 69.167 147 91.5s125.5 33.5 201.5 33.5h580v-1926h-180v1731h-191v-1731h-180z" />
    <glyph glyph-name="periodcentered" unicode="&#xb7;" horiz-adv-x="575" 
d="M141 541v266h293v-266h-293z" />
    <glyph glyph-name="periodcentered" unicode="&#x2219;" horiz-adv-x="575" 
d="M141 541v266h293v-266h-293z" />
    <glyph glyph-name="cedilla" unicode="&#xb8;" horiz-adv-x="1024" 
d="M528 -408c-54 0 -105.504 6.83691 -154.504 20.5039s-91.5 32.167 -127.5 55.5l51 82c30.667 -20.667 64.334 -36 101.001 -46s72.667 -15 108 -15c82 0 123 26.667 123 80c0 21.333 -6.66699 37.166 -20 47.499s-31.333 15.5 -54 15.5
c-18.667 0 -35.5 -3.33301 -50.5 -10s-29.5 -15.667 -43.5 -27l-72 35l51 170h117l-29 -100c14.667 9.33301 32.167 16.666 52.5 21.999s44.5 8 72.5 8c18.667 0 36.834 -3 54.501 -9s33.334 -15 47.001 -27s24.5 -26.833 32.5 -44.5s12 -37.834 12 -60.501
c0 -32 -7.16699 -60.333 -21.5 -85s-33.666 -45.334 -57.999 -62.001s-53 -29.167 -86 -37.5s-68.167 -12.5 -105.5 -12.5z" />
    <glyph glyph-name="one.sups" unicode="&#xb9;" horiz-adv-x="760" 
d="M143 717l174 -0.000976562v624c-23.333 -11.333 -50.333 -20.5 -81 -27.5s-61 -10.5 -91 -10.5v151c40 1.33301 75 6.83301 105 16.5s55.333 24.834 76 45.501h198v-799h156v-166h-537v166z" />
    <glyph glyph-name="ordmasculine" unicode="&#xba;" horiz-adv-x="924" 
d="M463 745c-47.333 0 -93.5 7.5 -138.5 22.5s-85.167 38.5 -120.5 70.5s-63.833 73 -85.5 123s-32.5 110 -32.5 180c0 70.667 10.833 131 32.5 181s50.167 90.833 85.5 122.5s75.5 54.834 120.5 69.501s91.167 22 138.5 22c46.667 0 92.334 -7.33301 137.001 -22
s84.667 -37.834 120 -69.501s63.833 -72.5 85.5 -122.5s32.5 -110.333 32.5 -181c0 -70 -10.833 -130 -32.5 -180s-50.167 -91 -85.5 -123s-75.333 -55.5 -120 -70.5s-90.334 -22.5 -137.001 -22.5zM463 883c31.333 0 58.668 6.33398 82.001 19.001s42.833 30.5 58.5 53.5
s27.5 50.333 35.5 82s12 66.167 12 103.5c0 34.667 -3.66699 67.667 -11 99s-18.666 58.666 -33.999 81.999s-34.833 42 -58.5 56s-51.834 21 -84.501 21c-32 0 -59.833 -6.5 -83.5 -19.5s-43.5 -31 -59.5 -54s-28 -50.167 -36 -81.5s-12 -65.666 -12 -102.999
c0 -35.333 3.66699 -68.5 11 -99.5s18.666 -58.333 33.999 -82s35 -42.334 59 -56.001s53 -20.5 87 -20.5z" />
    <glyph glyph-name="guillemotright" unicode="&#xbb;" horiz-adv-x="1204" 
d="M84 0l315 545l-315 542h246l327 -542l-327 -545h-246zM567 0l314 545l-314 542h244l326 -542l-326 -545h-244z" />
    <glyph glyph-name="onequarter" unicode="&#xbc;" horiz-adv-x="2064" 
d="M170 719l168.002 0.000976562v590c-22.667 -8.66699 -47.834 -15.334 -75.501 -20.001s-57.167 -7 -88.5 -7v172c45.333 2 82.166 7.5 110.499 16.5s52.833 24.167 73.5 45.5h187v-797h147v-168h-522v168zM1602 213.001h-439v131l428 623h215v-590h154v-164h-154v-213
h-204v213zM1395 1516h221l-907 -1516h-222zM1612 367.001v368l-246 -368h246z" />
    <glyph glyph-name="onehalf" unicode="&#xbd;" horiz-adv-x="2136" 
d="M1309 49c0 34.667 3.6709 69.165 11.0039 103.498s21.666 69 42.999 104s51.666 71 90.999 108s90.666 75.833 153.999 116.5l81.5 55.5c23 16.333 42.167 32.5 57.5 48.5s26.666 32.5 33.999 49.5s11 36.167 11 57.5c0 36 -10.833 64.5 -32.5 85.5
s-52.5 31.5 -92.5 31.5c-36 0 -72 -12 -108 -36s-69.667 -64 -101 -120l-145 99c44 76.667 95.333 134.334 154 173.001s128 58 208 58c50.667 0 95.834 -6.83301 135.501 -20.5s73.167 -33.167 100.5 -58.5s48.166 -55.666 62.499 -90.999s21.5 -74.333 21.5 -117
c0 -29.333 -3.83301 -57.666 -11.5 -84.999s-20.667 -54.333 -39 -81s-43.166 -53.334 -74.499 -80.001s-71 -53.667 -119 -81c-64 -38 -111.833 -73.667 -143.5 -107s-50.834 -64 -57.501 -92h451v-170h-692v49zM1395 1516h221l-907 -1516h-222zM170.004 718.998
l168.002 0.000976562v590c-22.667 -8.66699 -47.834 -15.334 -75.501 -20.001s-57.167 -7 -88.5 -7v172c45.333 2 82.166 7.5 110.499 16.5s52.833 24.167 73.5 45.5h187v-797h147v-168h-522v168z" />
    <glyph glyph-name="threequarters" unicode="&#xbe;" horiz-adv-x="2134" 
d="M471 537c-78.667 0 -150.167 16.833 -214.5 50.5s-117.166 82.834 -158.499 147.501l129 109c18 -26 36.5 -47.833 55.5 -65.5s38.333 -31.834 58 -42.501s39.167 -18.167 58.5 -22.5s38.666 -6.5 57.999 -6.5c56.667 0 98.5 12.667 125.5 38s40.5 57.666 40.5 96.999
c0 48.667 -17.167 85 -51.5 109s-91.833 36 -172.5 36h-69v148h73c37.333 0 68.833 2.66699 94.5 8s46.334 13.166 62.001 23.499s27 23 34 38s10.5 32.5 10.5 52.5c0 31.333 -10.667 57 -32 77s-55 30 -101 30c-35.333 0 -71.333 -8.33301 -108 -25s-73.667 -44 -111 -82
l-117 123c49.333 52 103.666 91 162.999 117s122.333 39 189 39c54 0 101 -6.5 141 -19.5s73.5 -31 100.5 -54s47.167 -50.167 60.5 -81.5s20 -65.666 20 -102.999c0 -46 -12 -88 -36 -126s-62.667 -65.667 -116 -83c63.333 -19.333 109 -49.166 137 -89.499
s42 -87.5 42 -141.5c0 -47.333 -8.66699 -89.666 -26 -126.999s-41.833 -68.833 -73.5 -94.5s-70 -45.334 -115 -59.001s-95.167 -20.5 -150.5 -20.5zM1671 213h-438v131l428 623h215v-590h154v-164h-154v-213h-205v213zM1464 1516h222l-906 -1516h-221zM1681 367v368
l-245 -368h245z" />
    <glyph glyph-name="questiondown" unicode="&#xbf;" horiz-adv-x="1171" 
d="M561 -29c-76 0 -143.002 9.32715 -201.002 27.9941s-106.5 44.5 -145.5 77.5s-68.5 72.333 -88.5 118s-30 95.5 -30 149.5c0 48.667 6.5 91.334 19.5 128.001s30.833 69.334 53.5 98.001s49.167 53.834 79.5 75.501s62.833 42.167 97.5 61.5
c44.667 24.667 79.5 47.334 104.5 68.001s43.333 43.667 55 69s18.667 55.5 21 90.5s3.5 79.167 3.5 132.5h207c3.33301 -24.667 5.16602 -48.5 5.49902 -71.5s0.5 -46.833 0.5 -71.5c0 -75.333 -17.5 -138.5 -52.5 -189.5s-84.167 -94.5 -147.5 -130.5
c-33.333 -19.333 -62.166 -37.166 -86.499 -53.499s-44.5 -33.5 -60.5 -51.5s-28 -37.833 -36 -59.5s-12 -47.5 -12 -77.5c0 -51.333 20.5 -91.666 61.5 -120.999s99.167 -44 174.5 -44c38 0 74.333 5 109 15s67.167 23.333 97.5 40s58 35.5 83 56.5s47.167 42.5 66.5 64.5
l162 -146c-30 -36 -63.167 -69.5 -99.5 -100.5s-76.666 -58 -120.999 -81s-93.166 -41.167 -146.499 -54.5s-111.333 -20 -174 -20zM493.998 1259.99v256h280v-256h-280z" />
    <glyph glyph-name="Agrave" unicode="&#xc0;" horiz-adv-x="1427" 
d="M51 0l537 1522h252l536 -1522h-262l-123 360h-575l-125 -360h-240zM494 586h421l-206 614h-4zM346 1945h272l193 -340h-166z" />
    <glyph glyph-name="Aacute" unicode="&#xc1;" horiz-adv-x="1427" 
d="M51 0l537 1522h252l536 -1522h-262l-123 360h-575l-125 -360h-240zM494 586h421l-206 614h-4zM809 1945h270l-297 -340h-165z" />
    <glyph glyph-name="Acircumflex" unicode="&#xc2;" horiz-adv-x="1427" 
d="M51 0l537 1522h252l536 -1522h-262l-123 360h-575l-125 -360h-240zM494 586h421l-206 614h-4zM625 1945h174l264 -340h-147l-205 172l-205 -172h-145z" />
    <glyph glyph-name="Atilde" unicode="&#xc3;" horiz-adv-x="1427" 
d="M51 0l537 1522h252l536 -1522h-262l-123 360h-575l-125 -360h-240zM494 586h421l-206 614h-4zM868 1591c-34 0 -64.4971 5.99902 -91.4971 17.999s-52.167 25.167 -75.5 39.5l-66.5 39.5c-21 12 -42.167 18 -63.5 18c-28.667 0 -49.834 -8.5 -63.501 -25.5
s-20.5 -45.5 -20.5 -85.5h-141c0 50 4.83301 93 14.5 129s23.667 65.5 42 88.5s40.666 40 66.999 51s56.166 16.5 89.499 16.5c34 0 64.5 -6 91.5 -18s52.167 -25.167 75.5 -39.5l67 -39.5c21.333 -12 43 -18 65 -18c28 0 49 8.5 63 25.5s21 45.5 21 85.5h141
c0 -99.333 -19.167 -171.666 -57.5 -216.999s-90.833 -68 -157.5 -68z" />
    <glyph glyph-name="Adieresis" unicode="&#xc4;" horiz-adv-x="1427" 
d="M51 0l537 1522h252l536 -1522h-262l-123 360h-575l-125 -360h-240zM494 586h421l-206 614h-4zM393 1847h229v-248h-229v248zM798 1847h230v-248h-230v248z" />
    <glyph glyph-name="Aring" unicode="&#xc5;" horiz-adv-x="1427" 
d="M575 1485c-21.333 15.333 -38.502 35.668 -51.502 61.001s-19.5 54 -19.5 86c0 29.333 5.33301 56.666 16 81.999s25.334 47.166 44.001 65.499s40.667 32.833 66 43.5s53 16 83 16s57.833 -5.33301 83.5 -16s47.834 -25.167 66.501 -43.5s33.167 -40.166 43.5 -65.499
s15.5 -52.666 15.5 -81.999c0 -32 -6.33301 -60.333 -19 -85s-29.667 -45.334 -51 -62.001l524 -1485h-262l-123 360h-575l-125 -360h-240zM917.998 588.002l-209 612h-4l-213 -612h426zM712.998 1526c30 0 54.167 9.66699 72.5 29s27.5 45 27.5 77
c0 30 -9.16699 54.667 -27.5 74s-42.5 29 -72.5 29c-29.333 0 -53.5 -9.66699 -72.5 -29s-28.5 -44 -28.5 -74c0 -32 9.5 -57.667 28.5 -77s43.167 -29 72.5 -29z" />
    <glyph glyph-name="AE" unicode="&#xc6;" horiz-adv-x="2134" 
d="M41 0l862 1516h1108v-238h-723v-377h531v-227h-531v-441h764v-233h-1018v426h-495l-240 -426h-258zM666 651h368v652h-2z" />
    <glyph glyph-name="Ccedilla" unicode="&#xc7;" horiz-adv-x="1468" 
d="M770 -408c-56 0 -108.168 6.83887 -156.501 20.5059s-90.5 32.167 -126.5 55.5l50 82c30.667 -20.667 64.667 -36 102 -46s73.666 -15 108.999 -15c81.333 0 122 26.667 122 80c0 21.333 -6.5 37.166 -19.5 47.499s-30.833 15.5 -53.5 15.5
c-19.333 0 -36.666 -3.33301 -51.999 -10s-30.333 -15.667 -45 -27l-71 35l45 145c-85.333 10 -163.333 34.5 -234 73.5s-131.167 91.667 -181.5 158s-89.333 146 -117 239s-41.5 198.5 -41.5 316.5c0 124.667 16.667 235.5 50 332.5s79.666 178.833 138.999 245.5
s129.5 117.334 210.5 152.001s169.167 52 264.5 52c88 0 165 -11.5 231 -34.5s122.5 -55.333 169.5 -97s85.667 -91.334 116 -149.001s54.166 -121.167 71.499 -190.5l-244 -67c-14 50 -30.333 95 -49 135s-41.667 73.833 -69 101.5s-59.666 49 -96.999 64
s-81 22.5 -131 22.5c-64 0 -121.167 -13.333 -171.5 -40s-92.833 -64.5 -127.5 -113.5s-61.167 -108.333 -79.5 -178s-27.5 -147.5 -27.5 -233.5c0 -90 9.33301 -171 28 -243s45.667 -133.167 81 -183.5s78.333 -88.833 129 -115.5s108 -40 172 -40
c50 0 94.333 7.5 133 22.5s72.834 37.167 102.501 66.5s55.167 65.666 76.5 108.999s39.666 93.333 54.999 150l241 -55c-18 -74 -42.833 -141.333 -74.5 -202s-71.5 -112.834 -119.5 -156.501s-104.167 -78.167 -168.5 -103.5s-137.833 -39.333 -220.5 -42l-21 -71
c14.667 9.33301 31.834 16.666 51.501 21.999s43.5 8 71.5 8c19.333 0 37.833 -3 55.5 -9s33.334 -15 47.001 -27s24.5 -26.833 32.5 -44.5s12 -37.834 12 -60.501c0 -32 -7 -60.333 -21 -85s-33.167 -45.334 -57.5 -62.001s-53 -29.167 -86 -37.5
s-68.167 -12.5 -105.5 -12.5z" />
    <glyph glyph-name="Egrave" unicode="&#xc8;" horiz-adv-x="1272" 
d="M172 0v1516h979v-238h-723v-377h530v-227h-530v-441h764v-233h-1020zM336 1945h272l193 -340h-166z" />
    <glyph glyph-name="Eacute" unicode="&#xc9;" horiz-adv-x="1272" 
d="M707 1945h270l-297 -340h-165zM172 0v1516h979v-238h-723v-377h530v-227h-530v-441h764v-233h-1020z" />
    <glyph glyph-name="Ecircumflex" unicode="&#xca;" horiz-adv-x="1272" 
d="M572 1945h174l264 -340h-147l-205 172l-205 -172h-145zM172 0v1516h979v-238h-723v-377h530v-227h-530v-441h764v-233h-1020z" />
    <glyph glyph-name="Edieresis" unicode="&#xcb;" horiz-adv-x="1272" 
d="M350 1847h229v-248h-229v248zM755 1847h230v-248h-230v248zM172 0v1516h979v-238h-723v-377h530v-227h-530v-441h764v-233h-1020z" />
    <glyph glyph-name="Igrave" unicode="&#xcc;" horiz-adv-x="635" 
d="M188 0v1516h258v-1516h-258zM-38 1945h272l193 -340h-166z" />
    <glyph glyph-name="Iacute" unicode="&#xcd;" horiz-adv-x="635" 
d="M188 0v1516h258v-1516h-258zM419 1945h270l-297 -340h-165z" />
    <glyph glyph-name="Icircumflex" unicode="&#xce;" horiz-adv-x="635" 
d="M188 0v1516h258v-1516h-258zM233 1945h174l264 -340h-147l-205 172l-205 -172h-145z" />
    <glyph glyph-name="Idieresis" unicode="&#xcf;" horiz-adv-x="635" 
d="M188 0v1516h258v-1516h-258zM-1 1847h229v-248h-229v248zM404 1847h230v-248h-230v248z" />
    <glyph glyph-name="Eth" unicode="&#xd0;" horiz-adv-x="1491" 
d="M172 0v686h-149v197h149v633h432c118.667 0 226.5 -14.333 323.5 -43s179.833 -73.667 248.5 -135s121.667 -139.833 159 -235.5s56 -210.5 56 -344.5c0 -133.333 -19 -247.833 -57 -343.5s-91.5 -174.167 -160.5 -235.5s-151.833 -106.5 -248.5 -135.5
s-203.667 -43.5 -321 -43.5h-432zM426 227h200.998c86.667 0 161.834 10 225.501 30s116.5 51.667 158.5 95s73.167 98.833 93.5 166.5s30.5 149.5 30.5 245.5c0 90.667 -10.333 168.5 -31 233.5s-52.167 118.333 -94.5 160s-95.666 72.167 -159.999 91.5
s-139.833 29 -226.5 29h-197v-395h317v-197h-317v-459z" />
    <glyph glyph-name="Ntilde" unicode="&#xd1;" horiz-adv-x="1563" 
d="M172 0v1516h260l717 -1082h4v1082h238v-1516h-234l-743 1104h-4v-1104h-238zM948 1591c-34 0 -64.4971 5.99902 -91.4971 17.999s-52.167 25.167 -75.5 39.5l-66.5 39.5c-21 12 -42.167 18 -63.5 18c-28.667 0 -49.834 -8.5 -63.501 -25.5s-20.5 -45.5 -20.5 -85.5h-141
c0 50 4.83301 93 14.5 129s23.667 65.5 42 88.5s40.666 40 66.999 51s56.166 16.5 89.499 16.5c34 0 64.5 -6 91.5 -18s52.167 -25.167 75.5 -39.5l67 -39.5c21.333 -12 43 -18 65 -18c28 0 49 8.5 63 25.5s21 45.5 21 85.5h141c0 -99.333 -19.167 -171.666 -57.5 -216.999
s-90.833 -68 -157.5 -68z" />
    <glyph glyph-name="Ograve" unicode="&#xd2;" horiz-adv-x="1565" 
d="M784 -29c-96 0 -185.833 17 -269.5 51s-156.334 84.333 -218.001 151s-110.167 149 -145.5 247s-53 210.667 -53 338s17.667 240 53 338s83.833 180.167 145.5 246.5s134.334 116.5 218.001 150.5s173.5 51 269.5 51s185.5 -17 268.5 -51s155.167 -84.167 216.5 -150.5
s109.5 -148.5 144.5 -246.5s52.5 -210.667 52.5 -338s-17.5 -240 -52.5 -338s-83.167 -180.333 -144.5 -247s-133.5 -117 -216.5 -151s-172.5 -51 -268.5 -51zM784 203c63.333 0 121.166 12.167 173.499 36.5s97 60 134 107s65.667 105 86 174s30.5 148.167 30.5 237.5
c0 88.667 -10.167 167.334 -30.5 236.001s-49 126.334 -86 173.001s-81.667 82 -134 106s-110.166 36 -173.499 36c-64.667 0 -123.334 -12 -176.001 -36s-97.667 -59.333 -135 -106s-66.166 -104.334 -86.499 -173.001s-30.5 -147.334 -30.5 -236.001
c0 -89.333 10.167 -168.5 30.5 -237.5s49.166 -127 86.499 -174s82.333 -82.667 135 -107s111.334 -36.5 176.001 -36.5zM443 1945h272l193 -340h-166z" />
    <glyph glyph-name="Oacute" unicode="&#xd3;" horiz-adv-x="1565" 
d="M846 1945h270l-297 -340h-165zM784 -29c-96 0 -185.833 17 -269.5 51s-156.334 84.333 -218.001 151s-110.167 149 -145.5 247s-53 210.667 -53 338s17.667 240 53 338s83.833 180.167 145.5 246.5s134.334 116.5 218.001 150.5s173.5 51 269.5 51s185.5 -17 268.5 -51
s155.167 -84.167 216.5 -150.5s109.5 -148.5 144.5 -246.5s52.5 -210.667 52.5 -338s-17.5 -240 -52.5 -338s-83.167 -180.333 -144.5 -247s-133.5 -117 -216.5 -151s-172.5 -51 -268.5 -51zM784 203c63.333 0 121.166 12.167 173.499 36.5s97 60 134 107s65.667 105 86 174
s30.5 148.167 30.5 237.5c0 88.667 -10.167 167.334 -30.5 236.001s-49 126.334 -86 173.001s-81.667 82 -134 106s-110.166 36 -173.499 36c-64.667 0 -123.334 -12 -176.001 -36s-97.667 -59.333 -135 -106s-66.166 -104.334 -86.499 -173.001
s-30.5 -147.334 -30.5 -236.001c0 -89.333 10.167 -168.5 30.5 -237.5s49.166 -127 86.499 -174s82.333 -82.667 135 -107s111.334 -36.5 176.001 -36.5z" />
    <glyph glyph-name="Ocircumflex" unicode="&#xd4;" horiz-adv-x="1565" 
d="M694 1945h174l264 -340h-147l-205 172l-205 -172h-145zM784 -29c-96 0 -185.833 17 -269.5 51s-156.334 84.333 -218.001 151s-110.167 149 -145.5 247s-53 210.667 -53 338s17.667 240 53 338s83.833 180.167 145.5 246.5s134.334 116.5 218.001 150.5
s173.5 51 269.5 51s185.5 -17 268.5 -51s155.167 -84.167 216.5 -150.5s109.5 -148.5 144.5 -246.5s52.5 -210.667 52.5 -338s-17.5 -240 -52.5 -338s-83.167 -180.333 -144.5 -247s-133.5 -117 -216.5 -151s-172.5 -51 -268.5 -51zM784 203
c63.333 0 121.166 12.167 173.499 36.5s97 60 134 107s65.667 105 86 174s30.5 148.167 30.5 237.5c0 88.667 -10.167 167.334 -30.5 236.001s-49 126.334 -86 173.001s-81.667 82 -134 106s-110.166 36 -173.499 36c-64.667 0 -123.334 -12 -176.001 -36
s-97.667 -59.333 -135 -106s-66.166 -104.334 -86.499 -173.001s-30.5 -147.334 -30.5 -236.001c0 -89.333 10.167 -168.5 30.5 -237.5s49.166 -127 86.499 -174s82.333 -82.667 135 -107s111.334 -36.5 176.001 -36.5z" />
    <glyph glyph-name="Otilde" unicode="&#xd5;" horiz-adv-x="1565" 
d="M784 -29c-96 0 -185.833 17 -269.5 51s-156.334 84.333 -218.001 151s-110.167 149 -145.5 247s-53 210.667 -53 338s17.667 240 53 338s83.833 180.167 145.5 246.5s134.334 116.5 218.001 150.5s173.5 51 269.5 51s185.5 -17 268.5 -51s155.167 -84.167 216.5 -150.5
s109.5 -148.5 144.5 -246.5s52.5 -210.667 52.5 -338s-17.5 -240 -52.5 -338s-83.167 -180.333 -144.5 -247s-133.5 -117 -216.5 -151s-172.5 -51 -268.5 -51zM784 203c63.333 0 121.166 12.167 173.499 36.5s97 60 134 107s65.667 105 86 174s30.5 148.167 30.5 237.5
c0 88.667 -10.167 167.334 -30.5 236.001s-49 126.334 -86 173.001s-81.667 82 -134 106s-110.166 36 -173.499 36c-64.667 0 -123.334 -12 -176.001 -36s-97.667 -59.333 -135 -106s-66.166 -104.334 -86.499 -173.001s-30.5 -147.334 -30.5 -236.001
c0 -89.333 10.167 -168.5 30.5 -237.5s49.166 -127 86.499 -174s82.333 -82.667 135 -107s111.334 -36.5 176.001 -36.5zM934 1591c-34 0 -64.4971 5.99902 -91.4971 17.999s-52.167 25.167 -75.5 39.5l-66.5 39.5c-21 12 -42.167 18 -63.5 18
c-28.667 0 -49.834 -8.5 -63.501 -25.5s-20.5 -45.5 -20.5 -85.5h-141c0 50 4.83301 93 14.5 129s23.667 65.5 42 88.5s40.666 40 66.999 51s56.166 16.5 89.499 16.5c34 0 64.5 -6 91.5 -18s52.167 -25.167 75.5 -39.5l67 -39.5c21.333 -12 43 -18 65 -18
c28 0 49 8.5 63 25.5s21 45.5 21 85.5h141c0 -99.333 -19.167 -171.666 -57.5 -216.999s-90.833 -68 -157.5 -68z" />
    <glyph glyph-name="Odieresis" unicode="&#xd6;" horiz-adv-x="1565" 
d="M461 1847h229v-248h-229v248zM866 1847h230v-248h-230v248zM784 -29c-96 0 -185.833 17 -269.5 51s-156.334 84.333 -218.001 151s-110.167 149 -145.5 247s-53 210.667 -53 338s17.667 240 53 338s83.833 180.167 145.5 246.5s134.334 116.5 218.001 150.5
s173.5 51 269.5 51s185.5 -17 268.5 -51s155.167 -84.167 216.5 -150.5s109.5 -148.5 144.5 -246.5s52.5 -210.667 52.5 -338s-17.5 -240 -52.5 -338s-83.167 -180.333 -144.5 -247s-133.5 -117 -216.5 -151s-172.5 -51 -268.5 -51zM784 203
c63.333 0 121.166 12.167 173.499 36.5s97 60 134 107s65.667 105 86 174s30.5 148.167 30.5 237.5c0 88.667 -10.167 167.334 -30.5 236.001s-49 126.334 -86 173.001s-81.667 82 -134 106s-110.166 36 -173.499 36c-64.667 0 -123.334 -12 -176.001 -36
s-97.667 -59.333 -135 -106s-66.166 -104.334 -86.499 -173.001s-30.5 -147.334 -30.5 -236.001c0 -89.333 10.167 -168.5 30.5 -237.5s49.166 -127 86.499 -174s82.333 -82.667 135 -107s111.334 -36.5 176.001 -36.5z" />
    <glyph glyph-name="multiply" unicode="&#xd7;" horiz-adv-x="1315" 
d="M322 172l-150 150l336 333l-336 334l150 148l333 -334l334 334l148 -148l-332 -332l336 -333l-150 -148l-334 334z" />
    <glyph glyph-name="Oslash" unicode="&#xd8;" horiz-adv-x="1565" 
d="M1317 1282c47.333 -64.667 83.9961 -140.668 109.996 -228.001s39 -186 39 -296c0 -127.333 -17.5 -240 -52.5 -338s-83.167 -180.333 -144.5 -247s-133.5 -117 -216.5 -151s-172.5 -51 -268.5 -51c-80 0 -155.833 12 -227.5 36s-136.5 59.333 -194.5 106l-137 -164
l-129 100l152 182c-47.333 66 -84.166 142.833 -110.499 230.5s-39.5 186.5 -39.5 296.5c0 127.333 17.667 240 53 338s83.833 180.167 145.5 246.5s134.334 116.5 218.001 150.5s173.5 51 269.5 51c80.667 0 156.334 -11.667 227.001 -35s134.334 -58.666 191.001 -105.999
l137 164l129 -101zM507.996 298.999c72.667 -70.667 164.667 -106.001 276 -106.001c64 0 122.333 12.667 175 38s98 62 136 110s67.333 107 88 177s31 150 31 240c0 130.667 -21.667 240.334 -65 329.001zM1055 1214c-72.667 68.667 -163.002 103 -271.002 103
c-65.333 0 -124.666 -12.333 -177.999 -37s-99 -60.834 -137 -108.501s-67.333 -106.167 -88 -175.5s-31 -148.666 -31 -237.999c0 -66.667 5.83301 -127.667 17.5 -183s27.834 -105 48.501 -149z" />
    <glyph glyph-name="Ugrave" unicode="&#xd9;" horiz-adv-x="1477" 
d="M739 -25c-104 0 -193.168 14.001 -267.501 42.001s-135.166 67.333 -182.499 118s-82 111.5 -104 182.5s-33 149.5 -33 235.5v963h256v-941c0 -58 6.5 -109.667 19.5 -155s33 -83.833 60 -115.5s61.5 -55.834 103.5 -72.501s92 -25 150 -25s107.833 8.16699 149.5 24.5
s76 40 103 71s47 69.333 60 115s19.5 97.5 19.5 155.5v943h252v-961c0 -86 -12.167 -164.667 -36.5 -236s-61 -132.5 -110 -183.5s-110 -90.5 -183 -118.5s-158.5 -42 -256.5 -42zM405.999 1945h272l193 -340h-166z" />
    <glyph glyph-name="Uacute" unicode="&#xda;" horiz-adv-x="1477" 
d="M782 1945h270l-297 -340h-165zM739 -25c-104 0 -193.168 14.001 -267.501 42.001s-135.166 67.333 -182.499 118s-82 111.5 -104 182.5s-33 149.5 -33 235.5v963h256v-941c0 -58 6.5 -109.667 19.5 -155s33 -83.833 60 -115.5s61.5 -55.834 103.5 -72.501s92 -25 150 -25
s107.833 8.16699 149.5 24.5s76 40 103 71s47 69.333 60 115s19.5 97.5 19.5 155.5v943h252v-961c0 -86 -12.167 -164.667 -36.5 -236s-61 -132.5 -110 -183.5s-110 -90.5 -183 -118.5s-158.5 -42 -256.5 -42z" />
    <glyph glyph-name="Ucircumflex" unicode="&#xdb;" horiz-adv-x="1477" 
d="M649 1945h174l264 -340h-147l-205 172l-205 -172h-145zM739 -25c-104 0 -193.168 14.001 -267.501 42.001s-135.166 67.333 -182.499 118s-82 111.5 -104 182.5s-33 149.5 -33 235.5v963h256v-941c0 -58 6.5 -109.667 19.5 -155s33 -83.833 60 -115.5
s61.5 -55.834 103.5 -72.501s92 -25 150 -25s107.833 8.16699 149.5 24.5s76 40 103 71s47 69.333 60 115s19.5 97.5 19.5 155.5v943h252v-961c0 -86 -12.167 -164.667 -36.5 -236s-61 -132.5 -110 -183.5s-110 -90.5 -183 -118.5s-158.5 -42 -256.5 -42z" />
    <glyph glyph-name="Udieresis" unicode="&#xdc;" horiz-adv-x="1477" 
d="M418 1847h229v-248h-229v248zM823 1847h230v-248h-230v248zM739 -25c-104 0 -193.168 14.001 -267.501 42.001s-135.166 67.333 -182.499 118s-82 111.5 -104 182.5s-33 149.5 -33 235.5v963h256v-941c0 -58 6.5 -109.667 19.5 -155s33 -83.833 60 -115.5
s61.5 -55.834 103.5 -72.501s92 -25 150 -25s107.833 8.16699 149.5 24.5s76 40 103 71s47 69.333 60 115s19.5 97.5 19.5 155.5v943h252v-961c0 -86 -12.167 -164.667 -36.5 -236s-61 -132.5 -110 -183.5s-110 -90.5 -183 -118.5s-158.5 -42 -256.5 -42z" />
    <glyph glyph-name="Yacute" unicode="&#xdd;" horiz-adv-x="1354" 
d="M547 0v653l-516 863h270l379 -646l377 646h266l-518 -863v-653h-258zM688 1956h270l-297 -340h-165z" />
    <glyph glyph-name="Thorn" unicode="&#xde;" horiz-adv-x="1362" 
d="M172 0v1516h256v-252h270c81.333 -0.666992 157.833 -9.16699 229.5 -25.5s134 -42.833 187 -79.5s94.833 -85 125.5 -145s46 -133.667 46 -221c0 -61.333 -7.5 -115.833 -22.5 -163.5s-36 -89.334 -63 -125.001s-59.167 -65.834 -96.5 -90.501s-78 -44.667 -122 -60
s-90.833 -26.333 -140.5 -33s-100.167 -10 -151.5 -10h-262v-311h-256zM428 541.002h270c56.667 0 105.5 4.5 146.5 13.5s75 23.167 102 42.5s47 44.5 60 75.5s19.5 68.167 19.5 111.5c0 84 -26.5 145 -79.5 183s-136.5 57 -250.5 57h-268v-483z" />
    <glyph glyph-name="germandbls" unicode="&#xdf;" horiz-adv-x="1341" 
d="M838 -23c-43.333 0 -83.5029 3.49707 -120.503 10.4971s-70.667 16.5 -101 28.5s-57.333 26 -81 42s-43.834 33 -60.501 51l131 151c28 -25.333 60.5 -46 97.5 -62s78.167 -24 123.5 -24c32 0 61 5.66699 87 17s48 27.5 66 48.5s31.833 46.167 41.5 75.5
s14.5 61.666 14.5 96.999c0 56.667 -11.167 103.834 -33.5 141.501s-53.666 68 -93.999 91s-88.666 39.833 -144.999 50.5s-118.166 17.334 -185.499 20.001v182c58.667 0.666992 108 6.5 148 17.5s72.167 26.5 96.5 46.5s41.833 43.833 52.5 71.5s16 58.167 16 91.5
c0 58 -20.667 102.667 -62 134s-100.666 47 -177.999 47c-42 0 -79.167 -4.83301 -111.5 -14.5s-59.5 -25.5 -81.5 -47.5s-38.667 -50.5 -50 -85.5s-17 -77.5 -17 -127.5v-1030h-250v1022c0 84 12.5 157 37.5 219s60.167 113.333 105.5 154s99.666 71 162.999 91
s133.333 30 210 30c72.667 0 138 -8.33301 196 -25s107.167 -40.834 147.5 -72.501s71.333 -70.667 93 -117s32.5 -99.166 32.5 -158.499c0 -41.333 -6.66699 -79.166 -20 -113.499s-31.666 -64.666 -54.999 -90.999s-51 -49 -83 -68s-66.667 -34.167 -104 -45.5
c52 -6 102.5 -18.167 151.5 -36.5s92.5 -43.833 130.5 -76.5s68.5 -73 91.5 -121s34.5 -104.333 34.5 -169c0 -70.667 -10.167 -133.667 -30.5 -189s-49.333 -102 -87 -140s-83.167 -66.833 -136.5 -86.5s-113.333 -29.5 -180 -29.5z" />
    <glyph glyph-name="agrave" unicode="&#xe0;" horiz-adv-x="1157" 
d="M379 -16c-44 0 -84.666 5.99902 -121.999 17.999s-69.833 29.833 -97.5 53.5s-49.167 52.667 -64.5 87s-23 74.166 -23 119.499c0 58.667 13 112.5 39 161.5s67.5 92.5 124.5 130.5s130.167 70.333 219.5 97s197.666 47.334 324.999 62.001v32
c0 54.667 -14.5 94.334 -43.5 119.001s-73.833 37 -134.5 37c-38 0 -74 -4.16699 -108 -12.5s-66.333 -19.5 -97 -33.5s-59.5 -29.833 -86.5 -47.5s-51.833 -35.5 -74.5 -53.5l-123 157c28.667 26.667 61.667 52 99 76s78 45 122 63s91.5 32.167 142.5 42.5
s104.5 15.5 160.5 15.5c72.667 0 134 -8.5 184 -25.5s90.333 -42.167 121 -75.5s52.667 -74.5 66 -123.5s20 -105.167 20 -168.5v-449c0 -66 2.33301 -119.833 7 -161.5s12.667 -76.5 24 -104.5h-254l-9.5 32c-3 10 -5.66699 20.5 -8 31.5s-4.16602 22.5 -5.49902 34.5
s-2 25.667 -2 41c-55.333 -56 -115.833 -95.833 -181.5 -119.5s-138.834 -35.5 -219.501 -35.5zM471.001 177.999c64.667 0 122.333 11.334 173 34.001s96 53 136 91v240c-151.333 -20.667 -266 -49.834 -344 -87.501s-117 -86.5 -117 -146.5c0 -43.333 13.833 -76 41.5 -98
s64.5 -33 110.5 -33zM260 1542h272l193 -340h-166z" />
    <glyph glyph-name="aacute" unicode="&#xe1;" horiz-adv-x="1157" 
d="M379 -16c-44 0 -84.666 5.99902 -121.999 17.999s-69.833 29.833 -97.5 53.5s-49.167 52.667 -64.5 87s-23 74.166 -23 119.499c0 58.667 13 112.5 39 161.5s67.5 92.5 124.5 130.5s130.167 70.333 219.5 97s197.666 47.334 324.999 62.001v32
c0 54.667 -14.5 94.334 -43.5 119.001s-73.833 37 -134.5 37c-38 0 -74 -4.16699 -108 -12.5s-66.333 -19.5 -97 -33.5s-59.5 -29.833 -86.5 -47.5s-51.833 -35.5 -74.5 -53.5l-123 157c28.667 26.667 61.667 52 99 76s78 45 122 63s91.5 32.167 142.5 42.5
s104.5 15.5 160.5 15.5c72.667 0 134 -8.5 184 -25.5s90.333 -42.167 121 -75.5s52.667 -74.5 66 -123.5s20 -105.167 20 -168.5v-449c0 -66 2.33301 -119.833 7 -161.5s12.667 -76.5 24 -104.5h-254l-9.5 32c-3 10 -5.66699 20.5 -8 31.5s-4.16602 22.5 -5.49902 34.5
s-2 25.667 -2 41c-55.333 -56 -115.833 -95.833 -181.5 -119.5s-138.834 -35.5 -219.501 -35.5zM471.001 177.999c64.667 0 122.333 11.334 173 34.001s96 53 136 91v240c-151.333 -20.667 -266 -49.834 -344 -87.501s-117 -86.5 -117 -146.5c0 -43.333 13.833 -76 41.5 -98
s64.5 -33 110.5 -33zM649 1542h270l-297 -340h-165z" />
    <glyph glyph-name="acircumflex" unicode="&#xe2;" horiz-adv-x="1157" 
d="M379 -16c-44 0 -84.666 5.99902 -121.999 17.999s-69.833 29.833 -97.5 53.5s-49.167 52.667 -64.5 87s-23 74.166 -23 119.499c0 58.667 13 112.5 39 161.5s67.5 92.5 124.5 130.5s130.167 70.333 219.5 97s197.666 47.334 324.999 62.001v32
c0 54.667 -14.5 94.334 -43.5 119.001s-73.833 37 -134.5 37c-38 0 -74 -4.16699 -108 -12.5s-66.333 -19.5 -97 -33.5s-59.5 -29.833 -86.5 -47.5s-51.833 -35.5 -74.5 -53.5l-123 157c28.667 26.667 61.667 52 99 76s78 45 122 63s91.5 32.167 142.5 42.5
s104.5 15.5 160.5 15.5c72.667 0 134 -8.5 184 -25.5s90.333 -42.167 121 -75.5s52.667 -74.5 66 -123.5s20 -105.167 20 -168.5v-449c0 -66 2.33301 -119.833 7 -161.5s12.667 -76.5 24 -104.5h-254l-9.5 32c-3 10 -5.66699 20.5 -8 31.5s-4.16602 22.5 -5.49902 34.5
s-2 25.667 -2 41c-55.333 -56 -115.833 -95.833 -181.5 -119.5s-138.834 -35.5 -219.501 -35.5zM471.001 177.999c64.667 0 122.333 11.334 173 34.001s96 53 136 91v240c-151.333 -20.667 -266 -49.834 -344 -87.501s-117 -86.5 -117 -146.5c0 -43.333 13.833 -76 41.5 -98
s64.5 -33 110.5 -33zM498 1542h174l264 -340h-147l-205 172l-205 -172h-145z" />
    <glyph glyph-name="atilde" unicode="&#xe3;" horiz-adv-x="1157" 
d="M379 -16c-44 0 -84.666 5.99902 -121.999 17.999s-69.833 29.833 -97.5 53.5s-49.167 52.667 -64.5 87s-23 74.166 -23 119.499c0 58.667 13 112.5 39 161.5s67.5 92.5 124.5 130.5s130.167 70.333 219.5 97s197.666 47.334 324.999 62.001v32
c0 54.667 -14.5 94.334 -43.5 119.001s-73.833 37 -134.5 37c-38 0 -74 -4.16699 -108 -12.5s-66.333 -19.5 -97 -33.5s-59.5 -29.833 -86.5 -47.5s-51.833 -35.5 -74.5 -53.5l-123 157c28.667 26.667 61.667 52 99 76s78 45 122 63s91.5 32.167 142.5 42.5
s104.5 15.5 160.5 15.5c72.667 0 134 -8.5 184 -25.5s90.333 -42.167 121 -75.5s52.667 -74.5 66 -123.5s20 -105.167 20 -168.5v-449c0 -66 2.33301 -119.833 7 -161.5s12.667 -76.5 24 -104.5h-254l-9.5 32c-3 10 -5.66699 20.5 -8 31.5s-4.16602 22.5 -5.49902 34.5
s-2 25.667 -2 41c-55.333 -56 -115.833 -95.833 -181.5 -119.5s-138.834 -35.5 -219.501 -35.5zM471.001 177.999c64.667 0 122.333 11.334 173 34.001s96 53 136 91v240c-151.333 -20.667 -266 -49.834 -344 -87.501s-117 -86.5 -117 -146.5c0 -43.333 13.833 -76 41.5 -98
s64.5 -33 110.5 -33zM737 1188c-34 0 -64.4971 5.99902 -91.4971 17.999s-52.167 25.167 -75.5 39.5l-66.5 39.5c-21 12 -42.167 18 -63.5 18c-28.667 0 -49.834 -8.5 -63.501 -25.5s-20.5 -45.5 -20.5 -85.5h-141c0 50 4.83301 93 14.5 129s23.667 65.5 42 88.5
s40.666 40 66.999 51s56.166 16.5 89.499 16.5c34 0 64.5 -6 91.5 -18s52.167 -25.167 75.5 -39.5l67 -39.5c21.333 -12 43 -18 65 -18c28 0 49 8.5 63 25.5s21 45.5 21 85.5h141c0 -99.333 -19.167 -171.666 -57.5 -216.999s-90.833 -68 -157.5 -68z" />
    <glyph glyph-name="adieresis" unicode="&#xe4;" horiz-adv-x="1157" 
d="M379 -16c-44 0 -84.666 5.99902 -121.999 17.999s-69.833 29.833 -97.5 53.5s-49.167 52.667 -64.5 87s-23 74.166 -23 119.499c0 58.667 13 112.5 39 161.5s67.5 92.5 124.5 130.5s130.167 70.333 219.5 97s197.666 47.334 324.999 62.001v32
c0 54.667 -14.5 94.334 -43.5 119.001s-73.833 37 -134.5 37c-38 0 -74 -4.16699 -108 -12.5s-66.333 -19.5 -97 -33.5s-59.5 -29.833 -86.5 -47.5s-51.833 -35.5 -74.5 -53.5l-123 157c28.667 26.667 61.667 52 99 76s78 45 122 63s91.5 32.167 142.5 42.5
s104.5 15.5 160.5 15.5c72.667 0 134 -8.5 184 -25.5s90.333 -42.167 121 -75.5s52.667 -74.5 66 -123.5s20 -105.167 20 -168.5v-449c0 -66 2.33301 -119.833 7 -161.5s12.667 -76.5 24 -104.5h-254l-9.5 32c-3 10 -5.66699 20.5 -8 31.5s-4.16602 22.5 -5.49902 34.5
s-2 25.667 -2 41c-55.333 -56 -115.833 -95.833 -181.5 -119.5s-138.834 -35.5 -219.501 -35.5zM471.001 177.999c64.667 0 122.333 11.334 173 34.001s96 53 136 91v240c-151.333 -20.667 -266 -49.834 -344 -87.501s-117 -86.5 -117 -146.5c0 -43.333 13.833 -76 41.5 -98
s64.5 -33 110.5 -33zM272 1444h229v-248h-229v248zM677 1444h230v-248h-230v248z" />
    <glyph glyph-name="aring" unicode="&#xe5;" horiz-adv-x="1157" 
d="M379 -16c-44 0 -84.666 5.99902 -121.999 17.999s-69.833 29.833 -97.5 53.5s-49.167 52.667 -64.5 87s-23 74.166 -23 119.499c0 58.667 13 112.5 39 161.5s67.5 92.5 124.5 130.5s130.167 70.333 219.5 97s197.666 47.334 324.999 62.001v32
c0 54.667 -14.5 94.334 -43.5 119.001s-73.833 37 -134.5 37c-38 0 -74 -4.16699 -108 -12.5s-66.333 -19.5 -97 -33.5s-59.5 -29.833 -86.5 -47.5s-51.833 -35.5 -74.5 -53.5l-123 157c28.667 26.667 61.667 52 99 76s78 45 122 63s91.5 32.167 142.5 42.5
s104.5 15.5 160.5 15.5c72.667 0 134 -8.5 184 -25.5s90.333 -42.167 121 -75.5s52.667 -74.5 66 -123.5s20 -105.167 20 -168.5v-449c0 -66 2.33301 -119.833 7 -161.5s12.667 -76.5 24 -104.5h-254l-9.5 32c-3 10 -5.66699 20.5 -8 31.5s-4.16602 22.5 -5.49902 34.5
s-2 25.667 -2 41c-55.333 -56 -115.833 -95.833 -181.5 -119.5s-138.834 -35.5 -219.501 -35.5zM471.001 177.999c64.667 0 122.333 11.334 173 34.001s96 53 136 91v240c-151.333 -20.667 -266 -49.834 -344 -87.501s-117 -86.5 -117 -146.5c0 -43.333 13.833 -76 41.5 -98
s64.5 -33 110.5 -33zM594 1186c-30 0 -57.667 5.33301 -83 16s-47.333 25.334 -66 44.001s-33.334 40.667 -44.001 66s-16 53 -16 83c0 29.333 5.33301 56.666 16 81.999s25.334 47.166 44.001 65.499s40.667 32.833 66 43.5s53 16 83 16s57.833 -5.33301 83.5 -16
s47.834 -25.167 66.501 -43.5s33.167 -40.166 43.5 -65.499s15.5 -52.666 15.5 -81.999c0 -30 -5.16699 -57.667 -15.5 -83s-24.833 -47.333 -43.5 -66s-40.834 -33.334 -66.501 -44.001s-53.5 -16 -83.5 -16zM594 1290c30 0 54.167 9.66699 72.5 29
s27.5 44.666 27.5 75.999c0 30 -9.16699 54.833 -27.5 74.5s-42.5 29.5 -72.5 29.5c-28.667 0 -52.5 -9.83301 -71.5 -29.5s-28.5 -44.5 -28.5 -74.5c0 -31.333 9.5 -56.666 28.5 -75.999s42.833 -29 71.5 -29z" />
    <glyph glyph-name="ae" unicode="&#xe6;" horiz-adv-x="1833" 
d="M379 -23c-44.667 0 -85.6699 6.16504 -123.003 18.498s-69.666 30.166 -96.999 53.499s-48.666 52.333 -63.999 87s-23 74.667 -23 120c0 58.667 13 112.834 39 162.501s67.5 93.834 124.5 132.501s130.167 71.667 219.5 99s197.666 48.333 324.999 63v32
c0 54.667 -14.5 94.334 -43.5 119.001s-73.833 37 -134.5 37c-38 0 -74 -4.16699 -108 -12.5s-66.333 -19.5 -97 -33.5s-59.5 -29.833 -86.5 -47.5s-51.833 -35.5 -74.5 -53.5l-123 157c28.667 26.667 61.667 52 99 76s78 45 122 63s91.5 32.167 142.5 42.5
s104.5 15.5 160.5 15.5c47.333 0 88 -4.16699 122 -12.5s63 -20 87 -35s43.833 -33 59.5 -54s28.5 -43.833 38.5 -68.5c16 24 36 46.333 60 67s50.667 38.667 80 54s60.333 27.333 93 36s65.667 13 99 13c60.667 0 119.5 -9.83301 176.5 -29.5s107.833 -52.5 152.5 -98.5
s80.5 -106.5 107.5 -181.5s40.5 -167.833 40.5 -278.5v-49h-743c2.66699 -52 11.834 -96.5 27.501 -133.5s36.334 -67.333 62.001 -91s55.5 -41 89.5 -52s71 -16.5 111 -16.5c35.333 0 67.333 2.83301 96 8.5s55.167 14 79.5 25s47 24.333 68 40s41.833 33.5 62.5 53.5
l133 -131c-57.333 -62.667 -123.5 -111.167 -198.5 -145.5s-161.833 -51.5 -260.5 -51.5c-44 0 -86.5 4 -127.5 12s-79.667 21 -116 39s-69.833 41 -100.5 69s-57.334 62 -80.001 102c-35.333 -38.667 -70.166 -72 -104.499 -100s-70.333 -51 -108 -69s-78 -31.333 -121 -40
s-90.833 -13 -143.5 -13zM468.997 171.998c62.667 0 120.998 12.501 174.998 37.501s107 64.5 159 118.5c-7.33301 22.667 -12.666 47.5 -15.999 74.5s-5.66602 55.833 -6.99902 86.5v60c-151.333 -20.667 -266 -51.834 -344 -93.501s-117 -92.5 -117 -152.5
c0 -43.333 13.5 -76 40.5 -98s63.5 -33 109.5 -33zM1522 648.999c-7.33301 83.333 -31.5 146.499 -72.5 189.499s-99.5 64.5 -175.5 64.5c-30.667 0 -60.334 -4.5 -89.001 -13.5s-54.667 -23.667 -78 -44s-43.166 -46.666 -59.499 -78.999s-27.5 -71.5 -33.5 -117.5h508z
" />
    <glyph glyph-name="ccedilla" unicode="&#xe7;" horiz-adv-x="1126" 
d="M592 -408c-56 0 -108.165 6.83398 -156.498 20.501s-90.5 32.167 -126.5 55.5l49 82c31.333 -20.667 65.666 -36 102.999 -46s73.333 -15 108 -15c82 0 123 26.667 123 80c0 21.333 -6.5 37.166 -19.5 47.499s-31.167 15.5 -54.5 15.5
c-19.333 0 -36.5 -3.33301 -51.5 -10s-29.833 -15.667 -44.5 -27l-71 35l49 158c-55.333 8 -108.166 25.167 -158.499 51.5s-94.833 62.166 -133.5 107.499s-69.334 100.833 -92.001 166.5s-34 142.167 -34 229.5c0 69.333 7.16699 131.333 21.5 186s34.166 103 59.499 145
s54.833 77.833 88.5 107.5s69.667 53.834 108 72.501s78.166 32.334 119.499 41.001s82.333 13 123 13c67.333 0 125.666 -8.5 174.999 -25.5s91.666 -40 126.999 -69s64.833 -62.667 88.5 -101s43.834 -78.833 60.501 -121.5l-211 -76
c-25.333 72 -57.166 124.167 -95.499 156.5s-87.833 48.5 -148.5 48.5c-36 0 -70 -7.5 -102 -22.5s-60 -37.833 -84 -68.5s-43 -69.834 -57 -117.501s-21 -103.834 -21 -168.501c0 -58 5.83301 -110.5 17.5 -157.5s28.5 -87 50.5 -120s49.167 -58.5 81.5 -76.5
s69.166 -27 110.499 -27c28.667 0 55.334 3.83301 80.001 11.5s47.667 19.834 69 36.501s40.833 38.334 58.5 65.001s33.834 59.334 48.501 98.001l207 -76c-19.333 -42.667 -41.666 -82.667 -66.999 -120s-55.833 -70.166 -91.5 -98.499s-76.834 -51 -123.501 -68
s-100.334 -26.5 -161.001 -28.5l-22 -82c14.667 9.33301 31.834 16.666 51.501 21.999s43.5 8 71.5 8c19.333 0 37.833 -3 55.5 -9s33.334 -15 47.001 -27s24.5 -26.833 32.5 -44.5s12 -37.834 12 -60.501c0 -32 -7 -60.333 -21 -85s-33.333 -45.334 -58 -62.001
s-53.334 -29.167 -86.001 -37.5s-67.667 -12.5 -105 -12.5z" />
    <glyph glyph-name="egrave" unicode="&#xe8;" horiz-adv-x="1155" 
d="M604 -23c-68 0 -133.496 10.668 -196.496 32.001s-118.833 55 -167.5 101s-87.5 104.667 -116.5 176s-43.5 157 -43.5 257c0 68.667 7.5 130.334 22.5 185.001s35.5 103 61.5 145s56.167 77.833 90.5 107.5s70.666 54 108.999 73s77.666 32.833 117.999 41.5
s79.166 13 116.499 13c40.667 0 80.667 -4.33301 120 -13s76.666 -22.334 111.999 -41.001s68 -43.167 98 -73.5s55.833 -67.333 77.5 -111s38.667 -94.334 51 -152.001s18.5 -123.5 18.5 -197.5v-59h-743c2.66699 -49.333 11.834 -91.833 27.501 -127.5
s36.334 -65 62.001 -88s55.667 -40 90 -51s71.5 -16.5 111.5 -16.5c35.333 0 67.166 2.83301 95.499 8.5s54.666 14 78.999 25s47 24.333 68 40s41.833 33.5 62.5 53.5l133 -131c-56.667 -62.667 -122.5 -111.167 -197.5 -145.5s-161.5 -51.5 -259.5 -51.5zM844.004 649.001
c-7.33301 83.333 -31.332 146.499 -71.999 189.499s-99.334 64.5 -176.001 64.5c-30.667 0 -60.334 -4.5 -89.001 -13.5s-54.667 -23.667 -78 -44s-43.166 -46.666 -59.499 -78.999s-27.5 -71.5 -33.5 -117.5h508zM242.005 1542h272l193 -340h-166z" />
    <glyph glyph-name="eacute" unicode="&#xe9;" horiz-adv-x="1155" 
d="M651 1542h270l-297 -340h-165zM604 -23c-68 0 -133.496 10.668 -196.496 32.001s-118.833 55 -167.5 101s-87.5 104.667 -116.5 176s-43.5 157 -43.5 257c0 68.667 7.5 130.334 22.5 185.001s35.5 103 61.5 145s56.167 77.833 90.5 107.5s70.666 54 108.999 73
s77.666 32.833 117.999 41.5s79.166 13 116.499 13c40.667 0 80.667 -4.33301 120 -13s76.666 -22.334 111.999 -41.001s68 -43.167 98 -73.5s55.833 -67.333 77.5 -111s38.667 -94.334 51 -152.001s18.5 -123.5 18.5 -197.5v-59h-743
c2.66699 -49.333 11.834 -91.833 27.501 -127.5s36.334 -65 62.001 -88s55.667 -40 90 -51s71.5 -16.5 111.5 -16.5c35.333 0 67.166 2.83301 95.499 8.5s54.666 14 78.999 25s47 24.333 68 40s41.833 33.5 62.5 53.5l133 -131
c-56.667 -62.667 -122.5 -111.167 -197.5 -145.5s-161.5 -51.5 -259.5 -51.5zM844.004 649.001c-7.33301 83.333 -31.332 146.499 -71.999 189.499s-99.334 64.5 -176.001 64.5c-30.667 0 -60.334 -4.5 -89.001 -13.5s-54.667 -23.667 -78 -44
s-43.166 -46.666 -59.499 -78.999s-27.5 -71.5 -33.5 -117.5h508z" />
    <glyph glyph-name="ecircumflex" unicode="&#xea;" horiz-adv-x="1155" 
d="M498 1542h174l264 -340h-147l-205 172l-205 -172h-145zM604 -23c-68 0 -133.496 10.668 -196.496 32.001s-118.833 55 -167.5 101s-87.5 104.667 -116.5 176s-43.5 157 -43.5 257c0 68.667 7.5 130.334 22.5 185.001s35.5 103 61.5 145s56.167 77.833 90.5 107.5
s70.666 54 108.999 73s77.666 32.833 117.999 41.5s79.166 13 116.499 13c40.667 0 80.667 -4.33301 120 -13s76.666 -22.334 111.999 -41.001s68 -43.167 98 -73.5s55.833 -67.333 77.5 -111s38.667 -94.334 51 -152.001s18.5 -123.5 18.5 -197.5v-59h-743
c2.66699 -49.333 11.834 -91.833 27.501 -127.5s36.334 -65 62.001 -88s55.667 -40 90 -51s71.5 -16.5 111.5 -16.5c35.333 0 67.166 2.83301 95.499 8.5s54.666 14 78.999 25s47 24.333 68 40s41.833 33.5 62.5 53.5l133 -131
c-56.667 -62.667 -122.5 -111.167 -197.5 -145.5s-161.5 -51.5 -259.5 -51.5zM844.004 649.001c-7.33301 83.333 -31.332 146.499 -71.999 189.499s-99.334 64.5 -176.001 64.5c-30.667 0 -60.334 -4.5 -89.001 -13.5s-54.667 -23.667 -78 -44
s-43.166 -46.666 -59.499 -78.999s-27.5 -71.5 -33.5 -117.5h508z" />
    <glyph glyph-name="edieresis" unicode="&#xeb;" horiz-adv-x="1155" 
d="M262 1444h229v-248h-229v248zM667 1444h230v-248h-230v248zM604 -23c-68 0 -133.496 10.668 -196.496 32.001s-118.833 55 -167.5 101s-87.5 104.667 -116.5 176s-43.5 157 -43.5 257c0 68.667 7.5 130.334 22.5 185.001s35.5 103 61.5 145s56.167 77.833 90.5 107.5
s70.666 54 108.999 73s77.666 32.833 117.999 41.5s79.166 13 116.499 13c40.667 0 80.667 -4.33301 120 -13s76.666 -22.334 111.999 -41.001s68 -43.167 98 -73.5s55.833 -67.333 77.5 -111s38.667 -94.334 51 -152.001s18.5 -123.5 18.5 -197.5v-59h-743
c2.66699 -49.333 11.834 -91.833 27.501 -127.5s36.334 -65 62.001 -88s55.667 -40 90 -51s71.5 -16.5 111.5 -16.5c35.333 0 67.166 2.83301 95.499 8.5s54.666 14 78.999 25s47 24.333 68 40s41.833 33.5 62.5 53.5l133 -131
c-56.667 -62.667 -122.5 -111.167 -197.5 -145.5s-161.5 -51.5 -259.5 -51.5zM844.004 649.001c-7.33301 83.333 -31.332 146.499 -71.999 189.499s-99.334 64.5 -176.001 64.5c-30.667 0 -60.334 -4.5 -89.001 -13.5s-54.667 -23.667 -78 -44
s-43.166 -46.666 -59.499 -78.999s-27.5 -71.5 -33.5 -117.5h508z" />
    <glyph glyph-name="igrave" unicode="&#xec;" horiz-adv-x="557" 
d="M152 0v1087h254v-1087h-254zM-83 1542h272l193 -340h-166z" />
    <glyph glyph-name="iacute" unicode="&#xed;" horiz-adv-x="557" 
d="M388 1542h270l-297 -340h-165zM152 0v1087h254v-1087h-254z" />
    <glyph glyph-name="icircumflex" unicode="&#xee;" horiz-adv-x="557" 
d="M194 1542h174l264 -340h-147l-205 172l-205 -172h-145zM152 0v1087h254v-1087h-254z" />
    <glyph glyph-name="idieresis" unicode="&#xef;" horiz-adv-x="557" 
d="M-40 1444h229v-248h-229v248zM365 1444h230v-248h-230v248zM152 0v1087h254v-1087h-254z" />
    <glyph glyph-name="eth" unicode="&#xf0;" horiz-adv-x="1219" 
d="M610 -23c-76 0 -146.163 11.999 -210.496 35.999s-120 58.833 -167 104.5s-83.833 101.167 -110.5 166.5s-40 139.333 -40 222c0 84.667 12.5 159.5 37.5 224.5s59.167 119.333 102.5 163s93.666 76.667 150.999 99s118.666 33.5 183.999 33.5
c26.667 0 54.667 -3.33301 84 -10s58.166 -16.5 86.499 -29.5s55.166 -29 80.499 -48s47.333 -41.167 66 -66.5c-12 54 -29.333 106.5 -52 157.5s-53 99.833 -91 146.5l-182 -78l-74 139l152 66c-20.667 20 -42.167 39 -64.5 57s-45.833 35.667 -70.5 53l120 143
c37.333 -22.667 72.666 -46.667 105.999 -72s65 -53 95 -83l182 82l74 -142l-149 -67c70 -95.333 123.667 -203.333 161 -324s56 -257.667 56 -411c0 -88 -13.333 -166.833 -40 -236.5s-63.5 -128.667 -110.5 -177s-102.667 -85.166 -167 -110.499
s-134.166 -38 -209.499 -38zM610.004 181.999c42 0 80.0029 6.99609 114.003 20.9961s62.833 34.833 86.5 62.5s42 61.834 55 102.501s19.5 88 19.5 142c0 50.667 -6.33301 95.834 -19 135.501s-30.834 73.334 -54.501 101.001s-52.5 48.667 -86.5 63
s-72.333 21.5 -115 21.5s-81 -6.83301 -115 -20.5s-63 -34 -87 -61s-42.333 -60.667 -55 -101s-19 -87.166 -19 -140.499c0 -50.667 6.16699 -96.167 18.5 -136.5s30.166 -74.5 53.499 -102.5s52.166 -49.5 86.499 -64.5s73.5 -22.5 117.5 -22.5z" />
    <glyph glyph-name="ntilde" unicode="&#xf1;" 
d="M172 0l0.000976562 1087h252v-174c20.667 24 44 47.5 70 70.5s55.167 43.833 87.5 62.5s67.666 33.667 105.999 45s80.166 17 125.499 17c50 0 94.833 -6.5 134.5 -19.5s73.334 -32.5 101.001 -58.5s49 -58.833 64 -98.5s22.5 -86.5 22.5 -140.5v-791h-252v719
c0 60 -12.833 105 -38.5 135s-67.5 45 -125.5 45c-55.333 0 -106.833 -12.667 -154.5 -38s-94.5 -59.666 -140.5 -102.999v-758h-252zM780.001 1188c-34 0 -64.4971 5.99902 -91.4971 17.999s-52.167 25.167 -75.5 39.5l-66.5 39.5c-21 12 -42.167 18 -63.5 18
c-28.667 0 -49.834 -8.5 -63.501 -25.5s-20.5 -45.5 -20.5 -85.5h-141c0 50 4.83301 93 14.5 129s23.667 65.5 42 88.5s40.666 40 66.999 51s56.166 16.5 89.499 16.5c34 0 64.5 -6 91.5 -18s52.167 -25.167 75.5 -39.5l67 -39.5c21.333 -12 43 -18 65 -18
c28 0 49 8.5 63 25.5s21 45.5 21 85.5h141c0 -99.333 -19.167 -171.666 -57.5 -216.999s-90.833 -68 -157.5 -68z" />
    <glyph glyph-name="ograve" unicode="&#xf2;" horiz-adv-x="1221" 
d="M610 -23c-66 0 -130.669 10.835 -194.002 32.502s-120 55.5 -170 101.5s-90.167 104.667 -120.5 176s-45.5 156.666 -45.5 255.999c0 100 15.167 185.833 45.5 257.5s70.333 130.167 120 175.5s106.167 78.666 169.5 99.999s128.333 32 195 32
c66 0 130.833 -10.667 194.5 -32s120.334 -54.666 170.001 -99.999s89.834 -103.833 120.501 -175.5s46 -157.5 46 -257.5c0 -66 -7 -126 -21 -180s-33.333 -102 -58 -144s-53.834 -78.167 -87.501 -108.5s-70.167 -55.333 -109.5 -75s-80.666 -34.334 -123.999 -44.001
s-87 -14.5 -131 -14.5zM609.998 188.002c91.333 0 160.332 31.165 206.999 93.498s70 149.5 70 261.5c0 50.667 -5.5 97.334 -16.5 140.001s-27.833 79.5 -50.5 110.5s-51.334 55.333 -86.001 73s-76 26.5 -124 26.5c-45.333 0 -85.333 -8 -120 -24s-63.5 -39 -86.5 -69
s-40.333 -66.667 -52 -110s-17.5 -92.333 -17.5 -147c0 -52 5.33301 -99.667 16 -143s27.334 -80.666 50.001 -111.999s51.334 -55.833 86.001 -73.5s76 -26.5 124 -26.5zM270.997 1542h272l193 -340h-166z" />
    <glyph glyph-name="oacute" unicode="&#xf3;" horiz-adv-x="1221" 
d="M676 1542h270l-297 -340h-165zM610 -23c-66 0 -130.669 10.835 -194.002 32.502s-120 55.5 -170 101.5s-90.167 104.667 -120.5 176s-45.5 156.666 -45.5 255.999c0 100 15.167 185.833 45.5 257.5s70.333 130.167 120 175.5s106.167 78.666 169.5 99.999
s128.333 32 195 32c66 0 130.833 -10.667 194.5 -32s120.334 -54.666 170.001 -99.999s89.834 -103.833 120.501 -175.5s46 -157.5 46 -257.5c0 -66 -7 -126 -21 -180s-33.333 -102 -58 -144s-53.834 -78.167 -87.501 -108.5s-70.167 -55.333 -109.5 -75
s-80.666 -34.334 -123.999 -44.001s-87 -14.5 -131 -14.5zM609.998 188.002c91.333 0 160.332 31.165 206.999 93.498s70 149.5 70 261.5c0 50.667 -5.5 97.334 -16.5 140.001s-27.833 79.5 -50.5 110.5s-51.334 55.333 -86.001 73s-76 26.5 -124 26.5
c-45.333 0 -85.333 -8 -120 -24s-63.5 -39 -86.5 -69s-40.333 -66.667 -52 -110s-17.5 -92.333 -17.5 -147c0 -52 5.33301 -99.667 16 -143s27.334 -80.666 50.001 -111.999s51.334 -55.833 86.001 -73.5s76 -26.5 124 -26.5z" />
    <glyph glyph-name="ocircumflex" unicode="&#xf4;" horiz-adv-x="1221" 
d="M522 1542h174l264 -340h-147l-205 172l-205 -172h-145zM610 -23c-66 0 -130.669 10.835 -194.002 32.502s-120 55.5 -170 101.5s-90.167 104.667 -120.5 176s-45.5 156.666 -45.5 255.999c0 100 15.167 185.833 45.5 257.5s70.333 130.167 120 175.5
s106.167 78.666 169.5 99.999s128.333 32 195 32c66 0 130.833 -10.667 194.5 -32s120.334 -54.666 170.001 -99.999s89.834 -103.833 120.501 -175.5s46 -157.5 46 -257.5c0 -66 -7 -126 -21 -180s-33.333 -102 -58 -144s-53.834 -78.167 -87.501 -108.5
s-70.167 -55.333 -109.5 -75s-80.666 -34.334 -123.999 -44.001s-87 -14.5 -131 -14.5zM609.998 188.002c91.333 0 160.332 31.165 206.999 93.498s70 149.5 70 261.5c0 50.667 -5.5 97.334 -16.5 140.001s-27.833 79.5 -50.5 110.5s-51.334 55.333 -86.001 73
s-76 26.5 -124 26.5c-45.333 0 -85.333 -8 -120 -24s-63.5 -39 -86.5 -69s-40.333 -66.667 -52 -110s-17.5 -92.333 -17.5 -147c0 -52 5.33301 -99.667 16 -143s27.334 -80.666 50.001 -111.999s51.334 -55.833 86.001 -73.5s76 -26.5 124 -26.5z" />
    <glyph glyph-name="otilde" unicode="&#xf5;" horiz-adv-x="1221" 
d="M610 -23c-66 0 -130.669 10.835 -194.002 32.502s-120 55.5 -170 101.5s-90.167 104.667 -120.5 176s-45.5 156.666 -45.5 255.999c0 100 15.167 185.833 45.5 257.5s70.333 130.167 120 175.5s106.167 78.666 169.5 99.999s128.333 32 195 32
c66 0 130.833 -10.667 194.5 -32s120.334 -54.666 170.001 -99.999s89.834 -103.833 120.501 -175.5s46 -157.5 46 -257.5c0 -66 -7 -126 -21 -180s-33.333 -102 -58 -144s-53.834 -78.167 -87.501 -108.5s-70.167 -55.333 -109.5 -75s-80.666 -34.334 -123.999 -44.001
s-87 -14.5 -131 -14.5zM609.998 188.002c91.333 0 160.332 31.165 206.999 93.498s70 149.5 70 261.5c0 50.667 -5.5 97.334 -16.5 140.001s-27.833 79.5 -50.5 110.5s-51.334 55.333 -86.001 73s-76 26.5 -124 26.5c-45.333 0 -85.333 -8 -120 -24s-63.5 -39 -86.5 -69
s-40.333 -66.667 -52 -110s-17.5 -92.333 -17.5 -147c0 -52 5.33301 -99.667 16 -143s27.334 -80.666 50.001 -111.999s51.334 -55.833 86.001 -73.5s76 -26.5 124 -26.5zM765.997 1188c-34 0 -64.4971 5.99902 -91.4971 17.999s-52.167 25.167 -75.5 39.5l-66.5 39.5
c-21 12 -42.167 18 -63.5 18c-28.667 0 -49.834 -8.5 -63.501 -25.5s-20.5 -45.5 -20.5 -85.5h-141c0 50 4.83301 93 14.5 129s23.667 65.5 42 88.5s40.666 40 66.999 51s56.166 16.5 89.499 16.5c34 0 64.5 -6 91.5 -18s52.167 -25.167 75.5 -39.5l67 -39.5
c21.333 -12 43 -18 65 -18c28 0 49 8.5 63 25.5s21 45.5 21 85.5h141c0 -99.333 -19.167 -171.666 -57.5 -216.999s-90.833 -68 -157.5 -68z" />
    <glyph glyph-name="odieresis" unicode="&#xf6;" horiz-adv-x="1221" 
d="M289 1444h229v-248h-229v248zM694 1444h230v-248h-230v248zM610 -23c-66 0 -130.669 10.835 -194.002 32.502s-120 55.5 -170 101.5s-90.167 104.667 -120.5 176s-45.5 156.666 -45.5 255.999c0 100 15.167 185.833 45.5 257.5s70.333 130.167 120 175.5
s106.167 78.666 169.5 99.999s128.333 32 195 32c66 0 130.833 -10.667 194.5 -32s120.334 -54.666 170.001 -99.999s89.834 -103.833 120.501 -175.5s46 -157.5 46 -257.5c0 -66 -7 -126 -21 -180s-33.333 -102 -58 -144s-53.834 -78.167 -87.501 -108.5
s-70.167 -55.333 -109.5 -75s-80.666 -34.334 -123.999 -44.001s-87 -14.5 -131 -14.5zM609.998 188.002c91.333 0 160.332 31.165 206.999 93.498s70 149.5 70 261.5c0 50.667 -5.5 97.334 -16.5 140.001s-27.833 79.5 -50.5 110.5s-51.334 55.333 -86.001 73
s-76 26.5 -124 26.5c-45.333 0 -85.333 -8 -120 -24s-63.5 -39 -86.5 -69s-40.333 -66.667 -52 -110s-17.5 -92.333 -17.5 -147c0 -52 5.33301 -99.667 16 -143s27.334 -80.666 50.001 -111.999s51.334 -55.833 86.001 -73.5s76 -26.5 124 -26.5z" />
    <glyph glyph-name="divide" unicode="&#xf7;" horiz-adv-x="1315" 
d="M137 598v203h1043v-203h-1043zM537 207v215h235v-215h-235zM537 975v215h235v-215h-235z" />
    <glyph glyph-name="oslash" unicode="&#xf8;" horiz-adv-x="1221" 
d="M1026 922c35.333 -46 63.333 -99.999 84 -161.999s31 -134.333 31 -217c0 -66 -7 -126 -21 -180s-33.333 -102 -58 -144s-53.834 -78.167 -87.501 -108.5s-70.167 -55.333 -109.5 -75s-80.666 -34.334 -123.999 -44.001s-87 -14.5 -131 -14.5
c-53.333 0 -105.5 6.83301 -156.5 20.5s-99.167 34.834 -144.5 63.501l-121 -139l-106 98l119 138c-37.333 46 -66.833 100.833 -88.5 164.5s-32.5 137.167 -32.5 220.5c0 100 15.167 185.833 45.5 257.5s70.333 130.167 120 175.5s106.167 78.666 169.5 99.999
s128.333 32 195 32c54.667 0 108.167 -7 160.5 -21s101.5 -36.333 147.5 -67l114 135l109 -100zM778 850.001c-21.333 17.333 -46.167 30.833 -74.5 40.5s-59.5 14.5 -93.5 14.5c-46 0 -86.5 -8.5 -121.5 -25.5s-64.5 -41.167 -88.5 -72.5s-42 -69.333 -54 -114
s-18 -94.667 -18 -150c0 -38 3 -74.167 9 -108.5s15.333 -65.833 28 -94.5zM445.999 227.001c20.667 -16 44.666 -28.833 71.999 -38.5s58 -14.5 92 -14.5c46 0 86.667 8.66699 122 26s65 42 89 74s42 70.667 54 116s18 96.333 18 153c0 36 -2.66699 70 -8 102
s-13.666 62 -24.999 90z" />
    <glyph glyph-name="ugrave" unicode="&#xf9;" 
d="M442 -20c-47.333 0 -90.334 7.00098 -129.001 21.001s-71.667 34.667 -99 62s-48.333 61.333 -63 102s-22 88 -22 142v780h254v-720c0 -60.667 13 -105.334 39 -134.001s67 -43 123 -43c55.333 0 106.833 13.167 154.5 39.5s94.5 60.5 140.5 102.5v755h254v-1087h-254
v147c-17.333 -18 -38.666 -36.833 -63.999 -56.5s-54.5 -37.667 -87.5 -54s-70 -29.833 -111 -40.5s-86.167 -16 -135.5 -16zM280.999 1542h272l193 -340h-166z" />
    <glyph glyph-name="uacute" unicode="&#xfa;" 
d="M670 1542h270l-297 -340h-165zM442 -20c-47.333 0 -90.334 7.00098 -129.001 21.001s-71.667 34.667 -99 62s-48.333 61.333 -63 102s-22 88 -22 142v780h254v-720c0 -60.667 13 -105.334 39 -134.001s67 -43 123 -43c55.333 0 106.833 13.167 154.5 39.5
s94.5 60.5 140.5 102.5v755h254v-1087h-254v147c-17.333 -18 -38.666 -36.833 -63.999 -56.5s-54.5 -37.667 -87.5 -54s-70 -29.833 -111 -40.5s-86.167 -16 -135.5 -16z" />
    <glyph glyph-name="ucircumflex" unicode="&#xfb;" 
d="M524 1542h174l264 -340h-147l-205 172l-205 -172h-145zM442 -20c-47.333 0 -90.334 7.00098 -129.001 21.001s-71.667 34.667 -99 62s-48.333 61.333 -63 102s-22 88 -22 142v780h254v-720c0 -60.667 13 -105.334 39 -134.001s67 -43 123 -43
c55.333 0 106.833 13.167 154.5 39.5s94.5 60.5 140.5 102.5v755h254v-1087h-254v147c-17.333 -18 -38.666 -36.833 -63.999 -56.5s-54.5 -37.667 -87.5 -54s-70 -29.833 -111 -40.5s-86.167 -16 -135.5 -16z" />
    <glyph glyph-name="udieresis" unicode="&#xfc;" 
d="M293 1444h229v-248h-229v248zM698 1444h230v-248h-230v248zM442 -20c-47.333 0 -90.334 7.00098 -129.001 21.001s-71.667 34.667 -99 62s-48.333 61.333 -63 102s-22 88 -22 142v780h254v-720c0 -60.667 13 -105.334 39 -134.001s67 -43 123 -43
c55.333 0 106.833 13.167 154.5 39.5s94.5 60.5 140.5 102.5v755h254v-1087h-254v147c-17.333 -18 -38.666 -36.833 -63.999 -56.5s-54.5 -37.667 -87.5 -54s-70 -29.833 -111 -40.5s-86.167 -16 -135.5 -16z" />
    <glyph glyph-name="yacute" unicode="&#xfd;" horiz-adv-x="1120" 
d="M256 -422c-64.667 0 -117.164 3.66797 -157.497 11.001s-73.833 14.666 -100.5 21.999l57 203c15.333 -4.66699 39 -9.66699 71 -15s70 -8 114 -8c44.667 0 80.167 9.5 106.5 28.5s48.166 50.5 65.499 94.5l30 80l-417 1093h262l280 -792h4l279 792h250l-463 -1206
c-18 -47.333 -37.833 -89.833 -59.5 -127.5s-47.334 -69.5 -77.001 -95.5s-64.334 -45.833 -104.001 -59.5s-86.5 -20.5 -140.5 -20.5zM571.003 1542h270l-297 -340h-165z" />
    <glyph glyph-name="thorn" unicode="&#xfe;" horiz-adv-x="1251" 
d="M141 -410l0.000976562 1926h252v-572c18 21.333 38.667 42 62 62s49.333 37.5 78 52.5s60.167 27 94.5 36s71.5 13.5 111.5 13.5c62 0 119.333 -11.667 172 -35s98 -58.333 136 -105s67.833 -105.334 89.5 -176.001s32.5 -153 32.5 -247s-11.167 -176.167 -33.5 -246.5
s-53.833 -128.833 -94.5 -175.5s-89.5 -81.5 -146.5 -104.5s-120.167 -34.5 -189.5 -34.5c-58.667 0 -115.334 11.5 -170.001 34.5s-102 57.167 -142 102.5v-531h-252zM649.001 184.001c95.333 0 164 29.501 206 88.501s63 149.167 63 270.5
c0 115.333 -23.167 202.5 -69.5 261.5s-110.166 88.5 -191.499 88.5c-26 0 -51.5 -3.83301 -76.5 -11.5s-49 -17.834 -72 -30.501s-44.333 -27.167 -64 -43.5s-36.834 -33.5 -51.501 -51.5v-437c34 -44 73.833 -77.5 119.5 -100.5s91.167 -34.5 136.5 -34.5z" />
    <glyph glyph-name="ydieresis" unicode="&#xff;" horiz-adv-x="1120" 
d="M256 -422c-64.667 0 -117.164 3.66797 -157.497 11.001s-73.833 14.666 -100.5 21.999l57 203c15.333 -4.66699 39 -9.66699 71 -15s70 -8 114 -8c44.667 0 80.167 9.5 106.5 28.5s48.166 50.5 65.499 94.5l30 80l-417 1093h262l280 -792h4l279 792h250l-463 -1206
c-18 -47.333 -37.833 -89.833 -59.5 -127.5s-47.334 -69.5 -77.001 -95.5s-64.334 -45.833 -104.001 -59.5s-86.5 -20.5 -140.5 -20.5zM248.003 1444h229v-248h-229v248zM653.003 1444h230v-248h-230v248z" />
    <glyph glyph-name="Amacron" unicode="&#x100;" horiz-adv-x="1427" 
 />
    <glyph glyph-name="amacron" unicode="&#x101;" horiz-adv-x="1157" 
 />
    <glyph glyph-name="Abreve" unicode="&#x102;" horiz-adv-x="1427" 
 />
    <glyph glyph-name="abreve" unicode="&#x103;" horiz-adv-x="1157" 
 />
    <glyph glyph-name="Aogonek" unicode="&#x104;" horiz-adv-x="1427" 
 />
    <glyph glyph-name="aogonek" unicode="&#x105;" horiz-adv-x="1157" 
 />
    <glyph glyph-name="Cacute" unicode="&#x106;" horiz-adv-x="1468" 
 />
    <glyph glyph-name="cacute" unicode="&#x107;" horiz-adv-x="1116" 
 />
    <glyph glyph-name="Ccircumflex" unicode="&#x108;" horiz-adv-x="1468" 
 />
    <glyph glyph-name="ccircumflex" unicode="&#x109;" horiz-adv-x="1116" 
 />
    <glyph glyph-name="Cdotaccent" unicode="&#x10a;" horiz-adv-x="1468" 
 />
    <glyph glyph-name="cdotaccent" unicode="&#x10b;" horiz-adv-x="1116" 
 />
    <glyph glyph-name="Ccaron" unicode="&#x10c;" horiz-adv-x="1468" 
 />
    <glyph glyph-name="ccaron" unicode="&#x10d;" horiz-adv-x="1116" 
 />
    <glyph glyph-name="Dcaron" unicode="&#x10e;" horiz-adv-x="1491" 
 />
    <glyph glyph-name="dcaron" unicode="&#x10f;" horiz-adv-x="1251" 
 />
    <glyph glyph-name="Dcroat" unicode="&#x110;" horiz-adv-x="1491" 
 />
    <glyph glyph-name="dcroat" unicode="&#x111;" horiz-adv-x="1251" 
 />
    <glyph glyph-name="Emacron" unicode="&#x112;" horiz-adv-x="1272" 
 />
    <glyph glyph-name="emacron" unicode="&#x113;" horiz-adv-x="1155" 
 />
    <glyph glyph-name="Ebreve" unicode="&#x114;" horiz-adv-x="1272" 
 />
    <glyph glyph-name="ebreve" unicode="&#x115;" horiz-adv-x="1155" 
 />
    <glyph glyph-name="Edotaccent" unicode="&#x116;" horiz-adv-x="1272" 
 />
    <glyph glyph-name="edotaccent" unicode="&#x117;" horiz-adv-x="1155" 
 />
    <glyph glyph-name="Eogonek" unicode="&#x118;" horiz-adv-x="1272" 
 />
    <glyph glyph-name="eogonek" unicode="&#x119;" horiz-adv-x="1155" 
 />
    <glyph glyph-name="Ecaron" unicode="&#x11a;" horiz-adv-x="1272" 
 />
    <glyph glyph-name="ecaron" unicode="&#x11b;" horiz-adv-x="1155" 
 />
    <glyph glyph-name="Gcircumflex" unicode="&#x11c;" horiz-adv-x="1526" 
 />
    <glyph glyph-name="gcircumflex" unicode="&#x11d;" horiz-adv-x="1219" 
 />
    <glyph glyph-name="Gbreve" unicode="&#x11e;" horiz-adv-x="1526" 
 />
    <glyph glyph-name="gbreve" unicode="&#x11f;" horiz-adv-x="1219" 
 />
    <glyph glyph-name="Gdotaccent" unicode="&#x120;" horiz-adv-x="1526" 
 />
    <glyph glyph-name="gdotaccent" unicode="&#x121;" horiz-adv-x="1219" 
 />
    <glyph glyph-name="Gcommaaccent" unicode="&#x122;" horiz-adv-x="1526" 
 />
    <glyph glyph-name="gcommaaccent" unicode="&#x123;" horiz-adv-x="1219" 
 />
    <glyph glyph-name="Hcircumflex" unicode="&#x124;" horiz-adv-x="1544" 
 />
    <glyph glyph-name="hcircumflex" unicode="&#x125;" 
 />
    <glyph glyph-name="Hbar" unicode="&#x126;" horiz-adv-x="1544" 
 />
    <glyph glyph-name="hbar" unicode="&#x127;" 
 />
    <glyph glyph-name="Itilde" unicode="&#x128;" horiz-adv-x="635" 
 />
    <glyph glyph-name="itilde" unicode="&#x129;" horiz-adv-x="557" 
 />
    <glyph glyph-name="Imacron" unicode="&#x12a;" horiz-adv-x="635" 
 />
    <glyph glyph-name="imacron" unicode="&#x12b;" horiz-adv-x="557" 
 />
    <glyph glyph-name="Ibreve" unicode="&#x12c;" horiz-adv-x="635" 
 />
    <glyph glyph-name="ibreve" unicode="&#x12d;" horiz-adv-x="557" 
 />
    <glyph glyph-name="Iogonek" unicode="&#x12e;" horiz-adv-x="635" 
 />
    <glyph glyph-name="iogonek" unicode="&#x12f;" horiz-adv-x="557" 
 />
    <glyph glyph-name="Idotaccent" unicode="&#x130;" horiz-adv-x="635" 
 />
    <glyph glyph-name="dotlessi" unicode="&#x131;" horiz-adv-x="557" 
d="M152 0v1087h254v-1087h-254z" />
    <glyph glyph-name="IJ" unicode="&#x132;" horiz-adv-x="1618" 
 />
    <glyph glyph-name="ij" unicode="&#x133;" horiz-adv-x="1114" 
 />
    <glyph glyph-name="Jcircumflex" unicode="&#x134;" horiz-adv-x="1065" 
 />
    <glyph glyph-name="jcircumflex" unicode="&#x135;" horiz-adv-x="557" 
 />
    <glyph glyph-name="Kcommaaccent" unicode="&#x136;" horiz-adv-x="1430" 
 />
    <glyph glyph-name="kcommaaccent" unicode="&#x137;" horiz-adv-x="1153" 
 />
    <glyph glyph-name="kgreenlandic" unicode="&#x138;" horiz-adv-x="1153" 
 />
    <glyph glyph-name="Lacute" unicode="&#x139;" horiz-adv-x="1184" 
 />
    <glyph glyph-name="lacute" unicode="&#x13a;" horiz-adv-x="557" 
 />
    <glyph glyph-name="Lcommaaccent" unicode="&#x13b;" horiz-adv-x="1184" 
 />
    <glyph glyph-name="lcommaaccent" unicode="&#x13c;" horiz-adv-x="557" 
 />
    <glyph glyph-name="Lcaron" unicode="&#x13d;" horiz-adv-x="1184" 
 />
    <glyph glyph-name="lcaron" unicode="&#x13e;" horiz-adv-x="557" 
 />
    <glyph glyph-name="Ldot" unicode="&#x13f;" 
 />
    <glyph glyph-name="ldot" unicode="&#x140;" horiz-adv-x="811" 
 />
    <glyph glyph-name="Lslash" unicode="&#x141;" horiz-adv-x="1184" 
 />
    <glyph glyph-name="lslash" unicode="&#x142;" horiz-adv-x="657" 
 />
    <glyph glyph-name="Nacute" unicode="&#x143;" horiz-adv-x="1563" 
 />
    <glyph glyph-name="nacute" unicode="&#x144;" 
 />
    <glyph glyph-name="Ncommaaccent" unicode="&#x145;" horiz-adv-x="1563" 
 />
    <glyph glyph-name="ncommaaccent" unicode="&#x146;" 
 />
    <glyph glyph-name="Ncaron" unicode="&#x147;" horiz-adv-x="1563" 
 />
    <glyph glyph-name="ncaron" unicode="&#x148;" 
 />
    <glyph glyph-name="Eng" unicode="&#x14a;" horiz-adv-x="1563" 
 />
    <glyph glyph-name="eng" unicode="&#x14b;" 
 />
    <glyph glyph-name="Omacron" unicode="&#x14c;" horiz-adv-x="1565" 
 />
    <glyph glyph-name="omacron" unicode="&#x14d;" horiz-adv-x="1221" 
 />
    <glyph glyph-name="Obreve" unicode="&#x14e;" horiz-adv-x="1565" 
 />
    <glyph glyph-name="obreve" unicode="&#x14f;" horiz-adv-x="1221" 
 />
    <glyph glyph-name="Ohungarumlaut" unicode="&#x150;" horiz-adv-x="1565" 
 />
    <glyph glyph-name="ohungarumlaut" unicode="&#x151;" horiz-adv-x="1221" 
 />
    <glyph glyph-name="OE" unicode="&#x152;" horiz-adv-x="2306" 
d="M782 -29c-91.333 0 -178.5 17 -261.5 51s-156 84.333 -219 151s-113 149 -150 247s-55.5 210.667 -55.5 338s18.5 240 55.5 338s87 180.167 150 246.5s136 116.5 219 150.5s170.167 51 261.5 51c95.333 0 181 -20 257 -60s139.333 -94.333 190 -163v195h956v-238h-723
v-377h531v-227h-531v-441h762v-233h-995v197c-50.667 -69.333 -114 -124.333 -190 -165s-161.667 -61 -257 -61zM782 203c63.333 0 121.166 12.167 173.499 36.5s97 60 134 107s65.667 105 86 174s30.5 148.167 30.5 237.5c0 88.667 -10.167 167.334 -30.5 236.001
s-49 126.334 -86 173.001s-81.667 82 -134 106s-110.166 36 -173.499 36c-64.667 0 -123.334 -12 -176.001 -36s-97.667 -59.333 -135 -106s-66.166 -104.334 -86.499 -173.001s-30.5 -147.334 -30.5 -236.001c0 -89.333 10.167 -168.5 30.5 -237.5s49.166 -127 86.499 -174
s82.333 -82.667 135 -107s111.334 -36.5 176.001 -36.5z" />
    <glyph glyph-name="oe" unicode="&#x153;" horiz-adv-x="1946" 
d="M608 -23c-66 0 -130.67 10.8379 -194.003 32.5049s-119.666 55.5 -168.999 101.5s-89.166 104.667 -119.499 176s-45.5 156.666 -45.5 255.999c0 100 15 185.833 45 257.5s69.667 130.167 119 175.5s105.666 78.666 168.999 99.999s128.333 32 195 32
c42 0 82.667 -4.83301 122 -14.5s76.166 -23.834 110.499 -42.501s65.333 -41.667 93 -69s51.167 -58.333 70.5 -93c17.333 32.667 40 62.5 68 89.5s59.167 50 93.5 69s70.833 33.833 109.5 44.5s77.334 16 116.001 16c40 0 79.5 -4.33301 118.5 -13
s76.167 -22.334 111.5 -41.001s68 -43.167 98 -73.5s55.833 -67.333 77.5 -111s38.667 -94.334 51 -152.001s18.5 -123.5 18.5 -197.5v-49h-744c2.66699 -52 11.834 -96.5 27.501 -133.5s36.334 -67.333 62.001 -91s55.667 -41 90 -52s71.5 -16.5 111.5 -16.5
c35.333 0 67.166 2.83301 95.499 8.5s54.666 14 78.999 25s47 24.333 68 40s41.833 33.5 62.5 53.5l133 -131c-56.667 -62.667 -122.167 -111.167 -196.5 -145.5s-160.833 -51.5 -259.5 -51.5c-41.333 0 -82.166 4.83301 -122.499 14.5s-78 23.667 -113 42
s-66.5 40.5 -94.5 66.5s-50 55.333 -66 88c-20 -32 -43.833 -61 -71.5 -87s-58.167 -48.167 -91.5 -66.5s-69.166 -32.5 -107.499 -42.5s-78.5 -15 -120.5 -15zM607.997 186.005c91.333 0 160 31.501 206 94.501s69 150.5 69 262.5c0 50.667 -5.33301 97.334 -16 140.001
s-27.334 79.5 -50.001 110.5s-51.167 55.333 -85.5 73s-75.5 26.5 -123.5 26.5c-45.333 0 -85.166 -8 -119.499 -24s-63 -39 -86 -69s-40.167 -66.667 -51.5 -110s-17 -92.333 -17 -147c0 -52 5.33301 -99.833 16 -143.5s27 -81.334 49 -113.001s50.333 -56.334 85 -74.001
s76 -26.5 124 -26.5zM1634 649.006c-7.33301 83.333 -31.333 146.499 -72 189.499s-99.334 64.5 -176.001 64.5c-30.667 0 -60.167 -4.5 -88.5 -13.5s-54.166 -23.667 -77.499 -44s-43.333 -46.666 -60 -78.999s-28 -71.5 -34 -117.5h508z" />
    <glyph glyph-name="Racute" unicode="&#x154;" horiz-adv-x="1415" 
 />
    <glyph glyph-name="racute" unicode="&#x155;" horiz-adv-x="844" 
 />
    <glyph glyph-name="Rcommaaccent" unicode="&#x156;" horiz-adv-x="1415" 
 />
    <glyph glyph-name="rcommaaccent" unicode="&#x157;" horiz-adv-x="844" 
 />
    <glyph glyph-name="Rcaron" unicode="&#x158;" horiz-adv-x="1415" 
 />
    <glyph glyph-name="rcaron" unicode="&#x159;" horiz-adv-x="844" 
 />
    <glyph glyph-name="Sacute" unicode="&#x15a;" horiz-adv-x="1380" 
 />
    <glyph glyph-name="sacute" unicode="&#x15b;" horiz-adv-x="1071" 
 />
    <glyph glyph-name="Scircumflex" unicode="&#x15c;" horiz-adv-x="1380" 
 />
    <glyph glyph-name="scircumflex" unicode="&#x15d;" horiz-adv-x="1071" 
 />
    <glyph glyph-name="Scedilla" unicode="&#x15e;" horiz-adv-x="1380" 
 />
    <glyph glyph-name="scedilla" unicode="&#x15f;" horiz-adv-x="1071" 
 />
    <glyph glyph-name="Scaron" unicode="&#x160;" horiz-adv-x="1380" 
d="M338 1962h147l205 -172l205 172h145l-264 -340h-174zM702 -29c-75.333 0 -145.003 9.32617 -209.003 27.9932s-121.667 44.834 -173 78.501s-96.166 74.167 -134.499 121.5s-69.5 99.666 -93.5 156.999l203 107c45.333 -89.333 102.5 -155.666 171.5 -198.999
s151.167 -65 246.5 -65c46 0 88 3.83301 126 11.5s70.5 19.5 97.5 35.5s48 36.333 63 61s22.5 54 22.5 88c0 32.667 -6.16699 61.5 -18.5 86.5s-32.166 47.833 -59.499 68.5s-62.833 39.834 -106.5 57.501s-96.834 35.834 -159.501 54.501
c-48.667 14 -95.5 28.333 -140.5 43s-87.167 30.834 -126.5 48.501s-75 37.5 -107 59.5s-59.333 47.333 -82 76s-40.334 61.667 -53.001 99s-19 80 -19 128c0 64.667 12.5 123.334 37.5 176.001s60.333 97.667 106 135s100.167 66.166 163.5 86.499
s133.666 30.5 210.999 30.5c74.667 0 141.834 -8.66699 201.501 -26s112.834 -40.666 159.501 -69.999s86.834 -63.666 120.501 -102.999s62.167 -81.333 85.5 -126l-186 -129c-46 76 -100.833 131.833 -164.5 167.5s-136.5 53.5 -218.5 53.5
c-84.667 0 -150 -14.833 -196 -44.5s-69 -72.167 -69 -127.5c0 -35.333 7 -65.5 21 -90.5s35.5 -47.167 64.5 -66.5s66 -37.166 111 -53.499s98.5 -33.5 160.5 -51.5c71.333 -21.333 138.333 -44 201 -68s117.334 -53.5 164.001 -88.5s83.5 -77.167 110.5 -126.5
s40.5 -109.333 40.5 -180c0 -62 -12.833 -120 -38.5 -174s-63 -100.833 -112 -140.5s-109 -71 -180 -94s-151.5 -34.5 -241.5 -34.5z" />
    <glyph glyph-name="scaron" unicode="&#x161;" horiz-adv-x="1071" 
d="M186 1548h147l205 -172l205 172h145l-264 -340h-174zM539 -23c-50 0 -98.5029 4.33496 -145.503 13.002s-91.167 20.667 -132.5 36s-79.166 33.5 -113.499 54.5s-63.833 44.167 -88.5 69.5l138 153c20.667 -17.333 43.5 -33.833 68.5 -49.5s52 -29.334 81 -41.001
s59.5 -21 91.5 -28s65.667 -10.5 101 -10.5c67.333 0 120.333 9.5 159 28.5s58 51.167 58 96.5c0 22 -6.5 40.5 -19.5 55.5s-30.5 27.833 -52.5 38.5s-47.667 20 -77 28s-60.333 15.667 -93 23l-95 23c-32 8 -63.333 17.833 -94 29.5s-59.334 25.5 -86.001 41.5
s-50 35.5 -70 58.5s-35.833 50.167 -47.5 81.5s-17.5 68 -17.5 110c0 48 9.83301 91.667 29.5 131s47.167 73 82.5 101s77.833 49.667 127.5 65s104.5 23 164.5 23c52 0 99.167 -3.5 141.5 -10.5s81.333 -17.167 117 -30.5s68.834 -29.5 99.501 -48.5s60 -40.5 88 -64.5
l-120 -163c-20 16 -42.667 31.167 -68 45.5s-51.666 26.833 -78.999 37.5s-54.833 19.167 -82.5 25.5s-53.834 9.5 -78.501 9.5c-34.667 0 -63.834 -2.83301 -87.501 -8.5s-42.667 -13.5 -57 -23.5s-24.5 -21.667 -30.5 -35s-9 -27.666 -9 -42.999
c0 -22 6.33301 -40.5 19 -55.5s29.834 -27.833 51.501 -38.5s47 -19.834 76 -27.501s59.5 -15.167 91.5 -22.5c30.667 -6.66699 62.334 -14 95.001 -22s64.334 -17.5 95.001 -28.5s59.5 -24.5 86.5 -40.5s50.667 -35.5 71 -58.5s36.333 -50.333 48 -82
s17.5 -68.5 17.5 -110.5c0 -57.333 -12 -107 -36 -149s-56.667 -76.833 -98 -104.5s-89.5 -48.334 -144.5 -62.001s-113.5 -20.5 -175.5 -20.5z" />
    <glyph glyph-name="Tcommaaccent" unicode="&#x162;" horiz-adv-x="1300" 
 />
    <glyph glyph-name="Tcommaaccent" unicode="&#x21a;" horiz-adv-x="1300" 
 />
    <glyph glyph-name="tcommaaccent" unicode="&#x163;" horiz-adv-x="821" 
 />
    <glyph glyph-name="tcommaaccent" unicode="&#x21b;" horiz-adv-x="821" 
 />
    <glyph glyph-name="Tcaron" unicode="&#x164;" horiz-adv-x="1300" 
 />
    <glyph glyph-name="tcaron" unicode="&#x165;" horiz-adv-x="821" 
 />
    <glyph glyph-name="Tbar" unicode="&#x166;" horiz-adv-x="1300" 
 />
    <glyph glyph-name="tbar" unicode="&#x167;" horiz-adv-x="821" 
 />
    <glyph glyph-name="Utilde" unicode="&#x168;" horiz-adv-x="1477" 
 />
    <glyph glyph-name="utilde" unicode="&#x169;" 
 />
    <glyph glyph-name="Umacron" unicode="&#x16a;" horiz-adv-x="1477" 
 />
    <glyph glyph-name="umacron" unicode="&#x16b;" 
 />
    <glyph glyph-name="Ubreve" unicode="&#x16c;" horiz-adv-x="1477" 
 />
    <glyph glyph-name="ubreve" unicode="&#x16d;" 
 />
    <glyph glyph-name="Uring" unicode="&#x16e;" horiz-adv-x="1477" 
 />
    <glyph glyph-name="uring" unicode="&#x16f;" 
 />
    <glyph glyph-name="Uhungarumlaut" unicode="&#x170;" horiz-adv-x="1477" 
 />
    <glyph glyph-name="uhungarumlaut" unicode="&#x171;" 
 />
    <glyph glyph-name="Uogonek" unicode="&#x172;" horiz-adv-x="1477" 
 />
    <glyph glyph-name="uogonek" unicode="&#x173;" 
 />
    <glyph glyph-name="Wcircumflex" unicode="&#x174;" horiz-adv-x="1933" 
 />
    <glyph glyph-name="wcircumflex" unicode="&#x175;" horiz-adv-x="1565" 
 />
    <glyph glyph-name="Ycircumflex" unicode="&#x176;" horiz-adv-x="1354" 
 />
    <glyph glyph-name="ycircumflex" unicode="&#x177;" horiz-adv-x="1120" 
 />
    <glyph glyph-name="Ydieresis" unicode="&#x178;" horiz-adv-x="1354" 
d="M547 0v653l-516 863h270l379 -646l377 646h266l-518 -863v-653h-258zM358 1847h229v-248h-229v248zM763 1847h230v-248h-230v248z" />
    <glyph glyph-name="Zacute" unicode="&#x179;" horiz-adv-x="1321" 
 />
    <glyph glyph-name="zacute" unicode="&#x17a;" horiz-adv-x="1065" 
 />
    <glyph glyph-name="Zdotaccent" unicode="&#x17b;" horiz-adv-x="1321" 
 />
    <glyph glyph-name="zdotaccent" unicode="&#x17c;" horiz-adv-x="1065" 
 />
    <glyph glyph-name="Zcaron" unicode="&#x17d;" horiz-adv-x="1321" 
d="M318 1962h147l205 -172l205 172h145l-264 -340h-174zM72 0v178l837 1122h-782v216h1104v-185l-828 -1122h828v-209h-1159z" />
    <glyph glyph-name="zcaron" unicode="&#x17e;" horiz-adv-x="1065" 
d="M188 1548h147l205 -172l205 172h145l-264 -340h-174zM70 0v145l579 742h-536v200h852v-151l-582 -741h616v-195h-929z" />
    <glyph glyph-name="florin" unicode="&#x192;" horiz-adv-x="788" 
d="M-166 -225c8 -2 20.667 -3.83301 38 -5.5s32.666 -2.5 45.999 -2.5c52.667 0 95 12.333 127 37s51.667 66 59 124l119 885h-188l22 182h189l26 203c6 46 16.667 88.667 32 128s38.333 73.5 69 102.5s70 51.833 118 68.5s107 25 177 25c12 0 25.667 -0.5 41 -1.5
s30.166 -2.16699 44.499 -3.5l39 -3.5c11.667 -1 19.834 -1.83301 24.501 -2.5l-24 -184c-8.66699 2 -21.5 3.83301 -38.5 5.5s-32.167 2.5 -45.5 2.5c-22.667 0 -44.5 -1.83301 -65.5 -5.5s-39.833 -10.667 -56.5 -21s-30.5 -24.666 -41.5 -42.999
s-18.167 -42.166 -21.5 -71.499l-26 -199h237l-22 -182h-238l-123 -926c-5.33301 -42.667 -15.666 -82.334 -30.999 -119.001s-38 -68.5 -68 -95.5s-68.667 -48.167 -116 -63.5s-106 -23 -176 -23c-12 0 -25.667 0.333008 -41 1s-30.333 1.5 -45 2.5
s-27.667 2.16699 -39 3.5s-19.333 2.66602 -24 3.99902z" />
    <glyph glyph-name="Scommaaccent" unicode="&#x218;" horiz-adv-x="1380" 
 />
    <glyph glyph-name="scommaaccent" unicode="&#x219;" horiz-adv-x="1071" 
 />
    <glyph glyph-name="schwa" unicode="&#x259;" horiz-adv-x="1157" 
 />
    <glyph glyph-name="circumflex" unicode="&#x2c6;" horiz-adv-x="1096" 
d="M461 1542h174l264 -340h-147l-205 172l-205 -172h-145z" />
    <glyph glyph-name="caron" unicode="&#x2c7;" horiz-adv-x="1096" 
d="M197 1548h147l205 -172l205 172h145l-264 -340h-174z" />
    <glyph glyph-name="breve" unicode="&#x2d8;" horiz-adv-x="1024" 
 />
    <glyph glyph-name="dotaccent" unicode="&#x2d9;" horiz-adv-x="1024" 
 />
    <glyph glyph-name="ring" unicode="&#x2da;" horiz-adv-x="1106" 
d="M553 1186c-30 0 -57.667 5.33301 -83 16s-47.333 25.334 -66 44.001s-33.334 40.667 -44.001 66s-16 53 -16 83c0 29.333 5.33301 56.666 16 81.999s25.334 47.166 44.001 65.499s40.667 32.833 66 43.5s53 16 83 16s57.833 -5.33301 83.5 -16
s47.834 -25.167 66.501 -43.5s33.167 -40.166 43.5 -65.499s15.5 -52.666 15.5 -81.999c0 -30 -5.16699 -57.667 -15.5 -83s-24.833 -47.333 -43.5 -66s-40.834 -33.334 -66.501 -44.001s-53.5 -16 -83.5 -16zM553 1290c30 0 54.167 9.66699 72.5 29
s27.5 44.666 27.5 75.999c0 30 -9.16699 54.833 -27.5 74.5s-42.5 29.5 -72.5 29.5c-28.667 0 -52.5 -9.83301 -71.5 -29.5s-28.5 -44.5 -28.5 -74.5c0 -31.333 9.5 -56.666 28.5 -75.999s42.833 -29 71.5 -29z" />
    <glyph glyph-name="ogonek" unicode="&#x2db;" horiz-adv-x="1024" 
 />
    <glyph glyph-name="tilde" unicode="&#x2dc;" horiz-adv-x="1055" 
d="M682 1188c-34 0 -64.4971 5.99902 -91.4971 17.999s-52.167 25.167 -75.5 39.5l-66.5 39.5c-21 12 -42.167 18 -63.5 18c-28.667 0 -49.834 -8.5 -63.501 -25.5s-20.5 -45.5 -20.5 -85.5h-141c0 50 4.83301 93 14.5 129s23.667 65.5 42 88.5s40.666 40 66.999 51
s56.166 16.5 89.499 16.5c34 0 64.5 -6 91.5 -18s52.167 -25.167 75.5 -39.5l67 -39.5c21.333 -12 43 -18 65 -18c28 0 49 8.5 63 25.5s21 45.5 21 85.5h141c0 -99.333 -19.167 -171.666 -57.5 -216.999s-90.833 -68 -157.5 -68z" />
    <glyph glyph-name="hungarumlaut" unicode="&#x2dd;" horiz-adv-x="1061" 
 />
    <glyph glyph-name="commaaccent" unicode="&#x326;" horiz-adv-x="565" 
 />
    <glyph glyph-name="Delta" unicode="&#x394;" horiz-adv-x="1536" 
 />
    <glyph glyph-name="Delta" unicode="&#x2206;" horiz-adv-x="1536" 
 />
    <glyph glyph-name="Omega" unicode="&#x3a9;" horiz-adv-x="1664" 
 />
    <glyph glyph-name="Omega" unicode="&#x2126;" horiz-adv-x="1664" 
 />
    <glyph glyph-name="pi" unicode="&#x3c0;" horiz-adv-x="1408" 
 />
    <glyph glyph-name="Wgrave" unicode="&#x1e80;" horiz-adv-x="1933" 
 />
    <glyph glyph-name="wgrave" unicode="&#x1e81;" horiz-adv-x="1565" 
 />
    <glyph glyph-name="Wacute" unicode="&#x1e82;" horiz-adv-x="1933" 
 />
    <glyph glyph-name="wacute" unicode="&#x1e83;" horiz-adv-x="1565" 
 />
    <glyph glyph-name="Wdieresis" unicode="&#x1e84;" horiz-adv-x="1933" 
 />
    <glyph glyph-name="wdieresis" unicode="&#x1e85;" horiz-adv-x="1565" 
 />
    <glyph glyph-name="Ygrave" unicode="&#x1ef2;" horiz-adv-x="1354" 
 />
    <glyph glyph-name="ygrave" unicode="&#x1ef3;" horiz-adv-x="1120" 
 />
    <glyph glyph-name="space.en" unicode="&#x2002;" horiz-adv-x="1024" 
 />
    <glyph glyph-name="space.em" unicode="&#x2003;" horiz-adv-x="2048" 
 />
    <glyph glyph-name="space.tab_en" unicode="&#x2007;" horiz-adv-x="1331" 
 />
    <glyph glyph-name="space.tab_em" unicode="&#x2008;" horiz-adv-x="2662" 
 />
    <glyph glyph-name="space.thin" unicode="&#x2009;" horiz-adv-x="410" 
 />
    <glyph glyph-name="endash.tab" unicode="&#x2012;" horiz-adv-x="1331" 
 />
    <glyph glyph-name="endash" unicode="&#x2013;" horiz-adv-x="1331" 
d="M123 530v218h1085v-218h-1085z" />
    <glyph glyph-name="emdash" unicode="&#x2014;" horiz-adv-x="1915" 
d="M123 530v218h1669v-218h-1669z" />
    <glyph glyph-name="emdash.em_salt" unicode="&#x2015;" horiz-adv-x="2048" 
 />
    <glyph glyph-name="quoteleft" unicode="&#x2018;" horiz-adv-x="565" 
d="M147 1020v244l132 252h116l-71 -230h94v-266h-271z" />
    <glyph glyph-name="quoteright" unicode="&#x2019;" horiz-adv-x="565" 
d="M170 1020l72 229h-95v267h271v-244l-131 -252h-117z" />
    <glyph glyph-name="quotesinglbase" unicode="&#x201a;" horiz-adv-x="565" 
d="M170 -229l72 229h-95v266h271v-243l-131 -252h-117z" />
    <glyph glyph-name="quotedblleft" unicode="&#x201c;" horiz-adv-x="1010" 
d="M592 1020v244l131 252h117l-72 -230h94v-266h-270zM147 1020v244l132 252h116l-71 -230h94v-266h-271z" />
    <glyph glyph-name="quotedblright" unicode="&#x201d;" horiz-adv-x="1010" 
d="M614 1020l72 229h-94v267h270v-244l-131 -252h-117zM170 1020l72 229h-95v267h271v-244l-131 -252h-117z" />
    <glyph glyph-name="quotedblbase" unicode="&#x201e;" horiz-adv-x="1010" 
d="M614 -229l72 229h-94v266h270v-243l-131 -252h-117zM170 -229l72 229h-95v266h271v-243l-131 -252h-117z" />
    <glyph glyph-name="dagger" unicode="&#x2020;" horiz-adv-x="1204" 
d="M469 -410l41 1211l-432 -29v234l432 -31l-41 541h266l-41 -541l432 31v-234l-432 29l41 -1211h-266z" />
    <glyph glyph-name="daggerdbl" unicode="&#x2021;" horiz-adv-x="1204" 
d="M469 -410l41 449l-401 -31v223l401 -28l-33 352l33 348l-401 -29v224l401 -31l-41 449h266l-41 -449l402 31v-224l-402 29l33 -348l-33 -352l402 28v-223l-402 31l41 -449h-266z" />
    <glyph glyph-name="bullet" unicode="&#x2022;" horiz-adv-x="948" 
d="M473 455c-38 0 -73 6.5 -105 19.5s-59.667 31.167 -83 54.5s-41.5 51 -54.5 83s-19.5 67 -19.5 105s6.5 73.167 19.5 105.5s31.167 60.333 54.5 84s51 42 83 55s67 19.5 105 19.5c38.667 0 74.167 -6.5 106.5 -19.5s60.166 -31.333 83.499 -55s41.5 -51.667 54.5 -84
s19.5 -67.5 19.5 -105.5s-6.5 -73 -19.5 -105s-31.167 -59.667 -54.5 -83s-51.166 -41.5 -83.499 -54.5s-67.833 -19.5 -106.5 -19.5z" />
    <glyph glyph-name="ellipsis" unicode="&#x2026;" horiz-adv-x="1696" 
d="M1272 0v266h282v-266h-282zM141 0v266h283v-266h-283zM707 0v266h282v-266h-282z" />
    <glyph glyph-name="perthousand" unicode="&#x2030;" horiz-adv-x="3037" 
d="M485 580c-60 0 -113.669 11.5 -161.002 34.5s-87.333 55.333 -120 97s-57.5 91.834 -74.5 150.501s-25.5 123.667 -25.5 195c0 73.333 9 139.666 27 198.999s43.5 110 76.5 152s73.167 74.5 120.5 97.5s100.333 34.5 159 34.5s111.5 -11.333 158.5 -34
s86.833 -54.834 119.5 -96.501s57.667 -92 75 -151s26 -124.833 26 -197.5c0 -71.333 -8.66699 -136.5 -26 -195.5s-42.166 -109.667 -74.499 -152s-72.166 -75.166 -119.499 -98.499s-101 -35 -161 -35zM1669 -20c-60.667 0 -114.672 11.5 -162.005 34.5
s-87.166 55.333 -119.499 97s-57 91.834 -74 150.501s-25.5 123.667 -25.5 195c0 73.333 9 139.666 27 198.999s43.5 109.833 76.5 151.5s73.167 73.834 120.5 96.501s100.333 34 159 34s111.334 -11.167 158.001 -33.5s86.334 -54.333 119.001 -96
s57.834 -91.834 75.501 -150.501s26.5 -124.334 26.5 -197.001c0 -71.333 -8.66699 -136.5 -26 -195.5s-42.333 -109.667 -75 -152s-72.667 -75.166 -120 -98.499s-100.666 -35 -159.999 -35zM2551.99 -20c-60.667 0 -114.668 11.5 -162.001 34.5s-87.166 55.333 -119.5 97
c-32.333 41.667 -57 91.834 -74 150.501s-25.5 123.667 -25.5 195c0 73.333 8.83301 139.666 26.5 198.999s43.167 109.833 76.5 151.5s73.5 73.834 120.5 96.501s100.167 34 159.5 34c58 0 110.5 -11.167 157.5 -33.5s86.833 -54.333 119.5 -96
s57.834 -91.834 75.501 -150.501s26.5 -124.334 26.5 -197.001c0 -71.333 -8.66699 -136.5 -26 -195.5s-42.5 -109.667 -75.5 -152s-73 -75.166 -120 -98.499s-100.167 -35 -159.5 -35zM513.992 0l905 1516h221l-905 -1516h-221zM1668.99 158
c28.667 0 53.5 7.16699 74.5 21.5s38.5 34.5 52.5 60.5s24.333 57.5 31 94.5s10 78.5 10 124.5c0 95.333 -13.833 169 -41.5 221s-69.834 78 -126.501 78c-29.333 0 -54.666 -7 -75.999 -21s-39 -33.833 -53 -59.5s-24.333 -56.834 -31 -93.501s-10 -77.667 -10 -123
c0 -95.333 14 -169.666 42 -222.999s70.667 -80 128 -80zM2551.99 158c28.667 0 53.5 7.16699 74.5 21.5s38.5 34.5 52.5 60.5s24.333 57.5 31 94.5s10 78.5 10 124.5c0 95.333 -13.833 169 -41.5 221s-69.834 78 -126.5 78c-29.333 0 -54.666 -7 -76 -21
c-21.333 -14 -39 -33.833 -53 -59.5s-24.333 -56.834 -31 -93.501s-10 -77.667 -10 -123c0 -95.333 14 -169.666 42 -222.999s70.667 -80 128 -80zM486.992 760c28 0 52.5 7.00098 73.5 21.001s38.333 34 52 60s23.834 57.5 30.501 94.5s10 78.167 10 123.5
c0 95.333 -13.833 169 -41.5 221s-69.834 78 -126.501 78c-28.667 0 -53.5 -7 -74.5 -21s-38.5 -33.833 -52.5 -59.5s-24.333 -56.834 -31 -93.501s-10 -77.667 -10 -123c0 -96 14 -170.167 42 -222.5s70.667 -78.5 128 -78.5z" />
    <glyph glyph-name="prime" unicode="&#x2032;" horiz-adv-x="514" 
 />
    <glyph glyph-name="primedbl" unicode="&#x2033;" horiz-adv-x="895" 
 />
    <glyph glyph-name="guilsinglleft" unicode="&#x2039;" horiz-adv-x="723" 
d="M391 0l-325 545l325 542h246l-313 -542l313 -545h-246z" />
    <glyph glyph-name="guilsinglright" unicode="&#x203a;" horiz-adv-x="723" 
d="M84 0l315 545l-315 542h246l327 -542l-327 -545h-246z" />
    <glyph glyph-name="fraction" unicode="&#x2044;" horiz-adv-x="1049" 
 />
    <glyph glyph-name="fraction" unicode="&#x2215;" horiz-adv-x="1049" 
 />
    <glyph glyph-name="zero.sups" unicode="&#x2070;" horiz-adv-x="1038" 
 />
    <glyph glyph-name="four.sups" unicode="&#x2074;" horiz-adv-x="969" 
 />
    <glyph glyph-name="five.sups" unicode="&#x2075;" horiz-adv-x="924" 
 />
    <glyph glyph-name="six.sups" unicode="&#x2076;" horiz-adv-x="975" 
 />
    <glyph glyph-name="seven.sups" unicode="&#x2077;" horiz-adv-x="852" 
 />
    <glyph glyph-name="eight.sups" unicode="&#x2078;" horiz-adv-x="958" 
 />
    <glyph glyph-name="nine.sups" unicode="&#x2079;" horiz-adv-x="975" 
 />
    <glyph glyph-name="zero.sinf" unicode="&#x2080;" horiz-adv-x="1038" 
 />
    <glyph glyph-name="one.sinf" unicode="&#x2081;" horiz-adv-x="756" 
 />
    <glyph glyph-name="two.sinf" unicode="&#x2082;" horiz-adv-x="952" 
 />
    <glyph glyph-name="three.sinf" unicode="&#x2083;" horiz-adv-x="952" 
 />
    <glyph glyph-name="four.sinf" unicode="&#x2084;" horiz-adv-x="969" 
 />
    <glyph glyph-name="five.sinf" unicode="&#x2085;" horiz-adv-x="924" 
 />
    <glyph glyph-name="six.sinf" unicode="&#x2086;" horiz-adv-x="975" 
 />
    <glyph glyph-name="seven.sinf" unicode="&#x2087;" horiz-adv-x="852" 
 />
    <glyph glyph-name="eight.sinf" unicode="&#x2088;" horiz-adv-x="958" 
 />
    <glyph glyph-name="nine.sinf" unicode="&#x2089;" horiz-adv-x="975" 
 />
    <glyph glyph-name="Euro" unicode="&#x20ac;" horiz-adv-x="1493" 
d="M268 819l-225.006 0.000976562v170h244c16.667 95.333 43.334 177.833 80.001 247.5s80.5 127.334 131.5 173.001s107.833 79.5 170.5 101.5s128.334 33 197.001 33c76 0 142.333 -10 199 -30s105.667 -48.5 147 -85.5s76.166 -81.333 104.499 -133
s51.5 -108.834 69.5 -171.501l-221 -75c-14 45.333 -28.833 85.166 -44.5 119.499s-34.667 63 -57 86s-49.166 40.167 -80.499 51.5s-69.666 17 -114.999 17c-84 0 -154.833 -27.5 -212.5 -82.5s-97.834 -138.833 -120.501 -251.5h380v-170h-399v-53v-44.5
c0 -14.333 0.666992 -28.833 2 -43.5h397v-172h-376c21.333 -105.333 58.833 -184.666 112.5 -237.999s127.167 -80 220.5 -80c40.667 0 76.834 5.66699 108.501 17s59.834 29 84.501 53s46.334 54.833 65.001 92.5s35.334 82.5 50.001 134.5l225 -67
c-20 -68.667 -45.833 -130.667 -77.5 -186s-69.667 -102.333 -114 -141s-95 -68.334 -152 -89.001s-120.833 -31 -191.5 -31c-71.333 0 -138.333 10.667 -201 32s-119.167 54 -169.5 98s-93.333 99.5 -129 166.5s-62.167 146.5 -79.5 238.5h-248v172h227
c-1.33301 13.333 -2 27 -2 41v43v57z" />
    <glyph glyph-name="copyrightsound" unicode="&#x2117;" horiz-adv-x="1772" 
 />
    <glyph glyph-name="trademark" unicode="&#x2122;" horiz-adv-x="1853" 
d="M870 649v867h238l201 -635l202 635h236v-867h-172v613l-199 -613h-147l-199 608v-608h-160zM309 649v719h-250v148h678v-148h-250v-719h-178z" />
    <glyph glyph-name="partialdiff" unicode="&#x2202;" horiz-adv-x="1280" 
 />
    <glyph glyph-name="product" unicode="&#x220f;" horiz-adv-x="1536" 
 />
    <glyph glyph-name="summation" unicode="&#x2211;" horiz-adv-x="1152" 
 />
    <glyph glyph-name="minus" unicode="&#x2212;" horiz-adv-x="1315" 
 />
    <glyph glyph-name="radical" unicode="&#x221a;" horiz-adv-x="1161" 
 />
    <glyph glyph-name="infinity" unicode="&#x221e;" horiz-adv-x="1606" 
 />
    <glyph glyph-name="integral" unicode="&#x222b;" horiz-adv-x="1152" 
 />
    <glyph glyph-name="approxequal" unicode="&#x2248;" horiz-adv-x="1315" 
 />
    <glyph glyph-name="notequal" unicode="&#x2260;" horiz-adv-x="1315" 
 />
    <glyph glyph-name="lessequal" unicode="&#x2264;" horiz-adv-x="1315" 
 />
    <glyph glyph-name="greaterequal" unicode="&#x2265;" horiz-adv-x="1315" 
 />
    <glyph glyph-name="lozenge" unicode="&#x25ca;" horiz-adv-x="1331" 
 />
    <glyph glyph-name="u2022.check" unicode="&#x2713;" horiz-adv-x="1161" 
 />
    <glyph glyph-name="apple" unicode="&#xf8ff;" horiz-adv-x="1556" 
 />
    <glyph glyph-name="null" horiz-adv-x="0" 
 />
    <glyph glyph-name="uni00A0" horiz-adv-x="514" 
 />
    <glyph glyph-name="fi" horiz-adv-x="1284" 
 />
    <glyph glyph-name="fl" horiz-adv-x="1278" 
 />
    <glyph glyph-name="onesuperior" horiz-adv-x="760" 
 />
    <glyph glyph-name="twosuperior" horiz-adv-x="952" 
 />
    <glyph glyph-name="threesuperior" horiz-adv-x="952" 
 />
    </font>
</defs>
</svg>
