<?xml version="1.0" encoding="utf-8"?>
<!-- Generator: Adobe Illustrator 17.1.0, SVG Export Plug-In . SVG Version: 6.00 Build 0)  -->
<!DOCTYPE svg PUBLIC "-//W3C//DTD SVG 1.1//EN" "http://www.w3.org/Graphics/SVG/1.1/DTD/svg11.dtd">
<svg width="18" height="18" version="1.1" id="Layer_1" xmlns="http://www.w3.org/2000/svg" xmlns:xlink="http://www.w3.org/1999/xlink" x="0px" y="0px"
	 viewBox="246.5 247.5 19 17" enable-background="new 246.5 247.5 19 17" xml:space="preserve">
<path id="check-mark-11-icon" fill="#2D3672" d="M263.6,254.8c0.8,5.1-3.2,9.6-8.2,9.6c-4.6,0-8.3-3.7-8.3-8.3
	c0-4.6,3.7-8.3,8.3-8.3c2,0,3.9,0.7,5.3,1.9l-1.3,1.3c-1.1-0.9-2.5-1.4-4-1.4c-3.6,0-6.4,2.9-6.4,6.4c0,3.6,2.9,6.4,6.4,6.4
	c3.4,0,6.1-2.6,6.4-5.9L263.6,254.8z M262.8,249.3l-7,7l-3-3l-2.2,2.2l5.3,5.3l9.2-9.2L262.8,249.3z"/>
</svg>