
<svg width="150px" height="57px" viewBox="0 0 150 57" version="1.1" xmlns="http://www.w3.org/2000/svg" xmlns:xlink="http://www.w3.org/1999/xlink">
    <g id="Page-1" stroke="none" stroke-width="1" fill="none" fill-rule="evenodd">
        <g id="logo" fill-rule="nonzero" fill="#141414">
            <path d="M0,20.1504348 L0,28.3130435 L22.02,25.8908696 L22.02,17.056087 L0,20.1504348 M7.02695652,28.8095652 L7.02695652,56.7804348 L15.0886957,56.7804348 L15.0886957,27.9856522 L7.02695652,28.8095652 M24.993913,16.6382609 L24.993913,56.7804348 L33.4886957,56.7804348 L33.4886957,15.443913 L24.993913,16.6382609 M35.0713043,15.2213043 L35.0713043,24.4556522 L47.3378261,23.106087 L47.3378261,13.4978261 L35.0713043,15.2213043 M35.0713043,31.3286957 L35.0713043,40.7313043 L43.1234783,40.2921739 L43.1234783,30.6356522 L35.0713043,31.3286957 M35.0713043,47.5086957 L35.0713043,56.7804348 L47.3378261,56.7804348 L47.3378261,47.1386957 L35.0713043,47.5086957 M79.0604348,9.02521739 L79.0604348,56.7804348 L90.1965217,56.7804348 L90.1965217,7.46 L79.0604348,9.02521739 M92.276087,7.1673913 L92.276087,18.1521739 L108.504783,16.3678261 L108.504783,4.88608696 L92.276087,7.1673913 M92.276087,26.4134783 L92.276087,37.6017391 L102.913043,37.0208696 L102.913043,25.5026087 L92.276087,26.4134783 M92.276087,45.7795652 L92.276087,56.7804348 L108.504783,56.7804348 L108.504783,45.2895652 L92.276087,45.7795652 M50.5834783,13.0408696 L50.5834783,56.7804348 L60.26,56.7804348 L60.26,11.6804348 L50.5834783,13.0408696 M62.066087,46.6943478 L62.066087,56.78 L76.1121739,56.78 L76.1121739,46.2704348 L62.066087,46.6943478 M144.888696,4.34608696 C141.36913,1.02086957 136.208696,-0.343043478 130.564348,0.467826087 L130.564348,12.6513043 C132.85,12.5243478 134.702174,13.3726087 135.527391,15.0804348 C136.830435,17.7730435 135.486087,21.8130435 132.314783,25.556087 C127.42,31.3321739 114.403913,43.1547826 114.403913,43.1547826 L133.08913,42.5404348 C144.506087,31.3865217 148.606087,24.616087 149.341739,16.166087 C149.728261,11.6956522 148.105652,7.38826087 144.888696,4.34608696 M150,56.7804348 L150,44.0321739 L112.10087,45.173913 M112.10087,45.1734783 L112.104783,56.78 L150,56.78 M128.385652,0.741304348 C117.375652,3.08608696 111.96913,11.186087 112.593043,24.4030435 L124.332174,23.3613043 C123.797391,15.8943478 126.081304,14.1230435 128.391304,13.1491304 L128.385652,0.741304348" id="Shape"></path>
        </g>
    </g>
</svg>