<svg width="144px" height="54px" viewBox="0 0 144 54" version="1.1" xmlns="http://www.w3.org/2000/svg" xmlns:xlink="http://www.w3.org/1999/xlink">
    <g id="Page-1" stroke="none" stroke-width="1" fill="none" fill-rule="evenodd">
        <g id="logo" fill-rule="nonzero" fill="#F3F3F3">
            <path d="M0,19.0160352 L0,26.8118424 L21.1392,24.4985131 L21.1392,16.0607375 L0,19.0160352 M6.74587825,27.286052 L6.74587825,54 L14.4851478,54 L14.4851478,26.499163 L6.74587825,27.286052 M23.9941565,15.6616872 L23.9941565,54 L32.1491479,54 L32.1491479,14.5210095 L23.9941565,15.6616872 M33.6684522,14.3084042 L33.6684522,23.12779 L45.4443131,21.8388697 L45.4443131,12.6623735 L33.6684522,14.3084042 M33.6684522,29.6919808 L33.6684522,38.6720663 L41.3985391,38.252669 L41.3985391,29.0300805 L33.6684522,29.6919808 M33.6684522,45.1449033 L33.6684522,54 L45.4443131,54 L45.4443131,44.7915299 L33.6684522,45.1449033 M75.8980174,8.39074957 L75.8980174,54 L86.5886609,54 L86.5886609,6.89586804 L75.8980174,8.39074957 M88.5850435,6.61640825 L88.5850435,17.1075698 L104.164591,15.4034049 L104.164591,4.43761844 L88.5850435,6.61640825 M88.5850435,24.9976375 L88.5850435,35.6831337 L98.7965218,35.1283666 L98.7965218,24.1276996 L88.5850435,24.9976375 M88.5850435,43.4934744 L88.5850435,54 L104.164591,54 L104.164591,43.0254934 L88.5850435,43.4934744 M48.5601391,12.2259512 L48.5601391,54 L57.8496001,54 L57.8496001,10.92665 L48.5601391,12.2259512 M59.5834435,44.3671497 L59.5834435,53.9995848 L73.0676869,53.9995848 L73.0676869,43.9622858 L59.5834435,44.3671497 M139.093148,3.92188431 C135.714365,0.746091572 130.760348,-0.556531575 125.341774,0.217900102 L125.341774,11.8538918 C127.536,11.7326403 129.314087,12.542783 130.106296,14.1738648 C131.357217,16.7454763 130.066643,20.6039316 127.022191,24.1787747 C122.3232,29.6953027 109.827756,40.9866411 109.827756,40.9866411 L127.765565,40.3999002 C138.725843,29.7472083 142.661844,23.2810152 143.36807,15.2107313 C143.73913,10.9411835 142.181426,6.82735265 139.093148,3.92188431 M144,54 L144,41.8246053 L107.616835,42.9150383 M107.616835,42.914623 L107.620591,53.9995848 L144,53.9995848 M123.250226,0.479089123 C112.680626,2.71850468 107.490365,10.4545166 108.089322,23.0775452 L119.358887,22.0826185 C118.845496,14.9512032 121.038052,13.2594956 123.255652,12.3293471 L123.250226,0.479089123" id="Shape"></path>
        </g>
    </g>
</svg>